<?xml version="1.0" encoding="utf-8"?>
<!-- Generator: Adobe Illustrator 21.0.0, SVG Export Plug-In . SVG Version: 6.00 Build 0)  -->
<svg version="1.1" id="Layer_1" xmlns="http://www.w3.org/2000/svg" xmlns:xlink="http://www.w3.org/1999/xlink" x="0px" y="0px"
	 viewBox="0 0 512 512" style="enable-background:new 0 0 512 512;" xml:space="preserve">
<style type="text/css">
	.st0{fill:#FFFFFF;}
	.st1{fill:#5FCDFF;}
</style>
<path class="st0" d="M399.8,0H112.2C50.2,0,0,50.2,0,112.2v287.6C0,461.8,50.2,512,112.2,512h287.6c62,0,112.2-50.2,112.2-112.2
	V112.2C512,50.2,461.8,0,399.8,0z"/>
<g>
	<path class="st1" d="M252,167.7h-0.2H252C251.9,167.7,252,167.7,252,167.7z"/>
</g>
<g>
	<g>
		<path d="M368.2,297.2c-9.6-13.8-14.4-29.3-14.4-46.5c0-15.7,4.5-30.1,13.5-43.1c4.9-7.1,12.8-15.3,23.8-24.6
			c-7.2-8.9-14.5-15.8-21.7-20.8c-13.1-9-27.9-13.5-44.4-13.5c-9.9,0-21.9,2.4-36.1,7.1c-13.6,4.7-23.6,7.1-29.8,7.1
			c-4.7,0-14.3-2.1-28.8-6.3c-14.6-4.2-26.9-6.3-36.9-6.3c-23.9,0-43.6,10-59.2,30c-15.7,20.3-23.6,46.3-23.6,78
			c0,33.6,10.2,68.6,30.6,104.8c20.7,36,41.6,54,62.7,54c7.1,0,16.3-2.4,27.5-7.1c11.3-4.6,21.1-6.9,29.6-6.9c9,0,19.5,2.2,31.5,6.7
			c12.6,4.4,22.4,6.7,29.2,6.7c17.8,0,35.6-13.6,53.6-40.9c11.7-17.4,20.2-34.7,25.6-52.1C388.8,319.7,377.8,311,368.2,297.2z"/>
		<path d="M297.4,136.1c8.8-8.8,15.2-18.3,19.4-28.8c4-10.4,6-19.9,6-28.3c0-0.6,0-1.2-0.1-2.1c-0.1-0.8-0.1-1.5-0.1-2.1
			c-0.1-0.4-0.3-1.2-0.5-2.3c-0.2-1.1-0.4-1.9-0.5-2.3c-24.5,5.7-41.8,16-52.1,30.9c-10.4,15-15.8,32.9-16.3,53.6
			c9.3-0.8,16.5-2,21.7-3.5C282.4,148.6,289.9,143.6,297.4,136.1z"/>
	</g>
</g>
</svg>
