<?xml version="1.0" encoding="utf-8"?>
<!-- Generator: Adobe Illustrator 21.0.0, SVG Export Plug-In . SVG Version: 6.00 Build 0)  -->
<svg version="1.1" id="Layer_1" xmlns="http://www.w3.org/2000/svg" xmlns:xlink="http://www.w3.org/1999/xlink" x="0px" y="0px"
	 viewBox="0 0 512 512" style="enable-background:new 0 0 512 512;" xml:space="preserve">
<style type="text/css">
	.st0{fill:#FFFFFF;}
	.st1{fill:#5FCDFF;}
	.st2{fill:#DD7E00;}
</style>
<path class="st0" d="M399.8,0H112.2C50.2,0,0,50.2,0,112.2v287.6C0,461.8,50.2,512,112.2,512h287.6c62,0,112.2-50.2,112.2-112.2
	V112.2C512,50.2,461.8,0,399.8,0z"/>
<g>
	<path class="st1" d="M252,167.7h-0.2H252C251.9,167.7,252,167.7,252,167.7z"/>
</g>
<g id="_x32_3SEU1_1_">
	<g>
		<path d="M295.4,319.1c-3.1,2.9-6.1,5.8-9.1,8.5c-8.3,7.4-17.4,13.5-28.1,16.8c-5.7,1.8-11.6,2.9-17.6,3.3
			c-4.7,0.3-9.4,0.6-14.1,0.5c-11.4-0.3-22.3-3-32.1-9.1c-11.7-7.4-18.9-18-22.8-31.1c-2.7-9.2-3.4-18.6-2.8-28.1
			c0.7-11.3,3.6-21.9,9.4-31.7c7.1-12,17.2-20.7,29.6-26.8c8.9-4.4,18.4-7.2,28.1-9c6.1-1.2,12.3-2.2,18.4-3
			c6.5-0.9,13-1.5,19.5-2.2c4.1-0.4,8.3-0.9,12.4-1.3c0.7-0.1,0.9-0.4,0.9-1.1c-0.1-6.5,0.1-12.9-0.4-19.4
			c-0.4-6.6-2.4-12.8-7.5-17.5c-3.9-3.6-8.6-5.6-13.7-6.4c-8.5-1.3-16.6-0.2-24.2,4c-7.8,4.3-12.2,11.1-14.1,19.7
			c-0.4,1.7-1.4,3.4-2.4,4.9c-1.3,1.8-3.2,2.6-5.4,2.3c-5.2-0.6-10.4-1.2-15.6-1.7c-4.3-0.5-8.6-0.9-13-1.4
			c-3.2-0.3-6.4-0.5-9.6-1.1c-3.7-0.6-6.9-3.9-5.9-8.7c2.6-12.9,7.7-24.5,16.6-34.4c7.2-8,16-13.8,25.8-18.1
			c7.9-3.4,16.1-5.6,24.6-7c8.8-1.5,17.6-2.1,26.5-1.8c15.9,0.6,31.3,3.6,45.4,11.4c15.2,8.5,24.6,21.3,27.7,38.5
			c1.5,8.4,1.8,16.9,1.8,25.4c0,24.9,0.1,49.8-0.1,74.7c-0.1,12.5,3.3,23.6,11,33.4c1.5,1.9,2.9,3.9,4.3,5.8
			c1.2,1.7,2.1,3.6,2.1,5.7c0,2.1-0.8,3.7-2.4,5.1c-10,8.6-20,17.3-30,26c-2.8,2.4-6,3.4-9.5,1.9c-1.3-0.6-2.4-1.7-3.6-2.7
			c-7.9-6.5-13.9-14.6-19.4-23C296.1,320,295.8,319.6,295.4,319.1z M287.3,238c-0.7,0-1.2,0-1.7,0c-5.6,0.4-11.3,0.6-16.9,1.1
			c-6.7,0.7-13.2,2.3-19.4,4.9c-9.1,3.9-16,10.1-19.4,19.6c-3,8.7-3.3,17.6-0.8,26.5c1.7,6.1,5,11.3,10.8,14.4
			c8.1,4.4,16.4,3.9,24.5,0c7.1-3.4,11.9-9.2,15.7-15.9c5.2-9.2,6.8-19.3,7-29.6c0.1-6.5,0-13,0.1-19.5
			C287.3,239.1,287.3,238.6,287.3,238z"/>
		<path class="st2" d="M257.1,422.3c-20.5-0.1-40.3-4-59.4-11.2c-21.5-8.1-41-19.8-58.9-34.3c-8.2-6.7-15.9-13.8-22.8-21.8
			c-0.7-0.8-1.4-1.6-2-2.5c-1-1.5-1.1-2.9-0.4-3.8c0.8-1,2.7-1.4,4.2-0.7c1.4,0.7,2.6,1.5,3.9,2.3c12.9,7.9,25.8,15.6,39.3,22.3
			c15.5,7.7,31.5,14.1,48.4,18.1c7.8,1.9,15.7,3.3,23.7,4.5c11.4,1.7,23,2,34.5,1.6c19.3-0.8,38.3-4.1,56.8-9.6
			c15.9-4.6,31.3-10.7,46.3-17.7c1.4-0.7,3-1,4.6-1.1c1.7-0.1,2.7,1.1,2.7,2.8c0,2.6-1.5,4.6-3.2,6.5c-5.2,5.6-11.2,10.3-17.5,14.6
			c-19.9,13.6-41.8,22.3-65.5,26.8c-7.7,1.5-15.4,2.5-23.3,2.8C264.7,422,260.9,422.2,257.1,422.3z"/>
		<path class="st2" d="M385,344.9c6.3,0,11.6,0.2,16.7,1.6c0.2,0,0.3,0.1,0.5,0.1c4.7,1.4,5.7,2.7,5.6,7.6c-0.1,7.2-1.9,14-4.2,20.8
			c-2.7,8-6.8,15.1-12.5,21.3c-1.2,1.4-2.7,2.5-4.1,3.7c-0.5,0.4-1.3,0.7-2,0.8c-1.2,0.2-1.9-0.4-1.7-1.6c0.2-1,0.5-2,0.9-2.9
			c3.6-8.6,6.8-17.4,8.7-26.6c0.5-2.7,1-5.3,0.5-8.1c-0.3-1.7-1.1-3.1-2.7-3.6c-2.1-0.8-4.3-1.5-6.5-1.8c-7.3-0.8-14.6-0.1-21.9,0.7
			c-3.2,0.4-6.5,0.6-9.8,0.8c-0.7,0-1.8-0.3-1.9-0.7c-0.2-0.6,0.2-1.7,0.7-2.1c1.9-1.4,3.9-2.9,6-3.9
			C366.3,346.7,375.9,344.6,385,344.9z"/>
	</g>
</g>
</svg>
