<?xml version="1.0" encoding="utf-8"?>
<!-- Generator: Adobe Illustrator 21.0.0, SVG Export Plug-In . SVG Version: 6.00 Build 0)  -->
<svg version="1.1" id="Layer_1" xmlns="http://www.w3.org/2000/svg" xmlns:xlink="http://www.w3.org/1999/xlink" x="0px" y="0px"
	 viewBox="0 0 512 512" style="enable-background:new 0 0 512 512;" xml:space="preserve">
<style type="text/css">
	.st0{fill:#FFFFFF;}
	.st1{fill:#5FCDFF;}
	.st2{fill:#4CAF50;}
</style>
<path class="st0" d="M399.8,0H112.2C50.2,0,0,50.2,0,112.2v287.6C0,461.8,50.2,512,112.2,512h287.6c62,0,112.2-50.2,112.2-112.2
	V112.2C512,50.2,461.8,0,399.8,0z"/>
<g>
	<path class="st1" d="M252,167.7h-0.2H252C251.9,167.7,252,167.7,252,167.7z"/>
</g>
<g>
	<polygon class="st2" points="201.9,205.9 117,250.2 117,404 274.5,404 315.1,319.1 201.9,319.1 	"/>
	<polygon class="st2" points="117,121 201.9,205.9 315.1,205.9 315.1,319.1 400,404 400,121 	"/>
</g>
</svg>
