<?xml version="1.0" encoding="utf-8"?>
<!-- Generator: Adobe Illustrator 21.0.0, SVG Export Plug-In . SVG Version: 6.00 Build 0)  -->
<svg version="1.1" id="Layer_1" xmlns="http://www.w3.org/2000/svg" xmlns:xlink="http://www.w3.org/1999/xlink" x="0px" y="0px"
	 viewBox="0 0 512 512" style="enable-background:new 0 0 512 512;" xml:space="preserve">
<style type="text/css">
	.st0{fill:#1F99DD;}
	.st1{fill:#FFFFFF;}
</style>
<path class="st0" d="M399.8,0H112.2C50.2,0,0,50.2,0,112.2v287.6C0,461.8,50.2,512,112.2,512h287.6c62,0,112.2-50.2,112.2-112.2
	V112.2C512,50.2,461.8,0,399.8,0z"/>
<path class="st1" d="M220.2,222.5v160.4h0.2l32.5-45V176.8L220.2,222.5z M142,330.4v52.5h32.5v-97.3L142,330.4z M180.7,276.8v106.1
	h33.2v-152L180.7,276.8z M292,222.5v160.4l-32.9-45V176.8L292,222.5L292,222.5z M370.4,330.4v52.5h-32.5v-97.3L370.4,330.4z
	 M331.3,276.8v106.1h-32.9v-152L331.3,276.8z"/>
<path class="st1" d="M371.6,129.1v55.4L338,229.3V129.1H371.6z M331.3,237.7V129.1h-32.9v90.7l22.7,31.6L331.3,237.7z M292,130
	l-29.8,39.8l29.8,41.4V130L292,130z M140.4,129.1v55.4l33.9,44.8V129.1H140.4z M180.7,237.5V129.1h33.2v90.7l-22.7,31.6L180.7,237.5
	z M220,130l29.8,39.8L220,211.1V130z"/>
</svg>
