<?xml version="1.0" encoding="utf-8"?>
<!-- Generator: Adobe Illustrator 21.0.0, SVG Export Plug-In . SVG Version: 6.00 Build 0)  -->
<svg version="1.1" id="Layer_1" xmlns="http://www.w3.org/2000/svg" xmlns:xlink="http://www.w3.org/1999/xlink" x="0px" y="0px"
	 viewBox="0 0 512 512" style="enable-background:new 0 0 512 512;" xml:space="preserve">
<style type="text/css">
	.st0{fill:#FFFFFF;}
	.st1{fill:#5FCDFF;}
	.st2{fill:#E25B00;}
</style>
<path class="st0" d="M399.8,0H112.2C50.2,0,0,50.2,0,112.2v287.6C0,461.8,50.2,512,112.2,512h287.6c62,0,112.2-50.2,112.2-112.2
	V112.2C512,50.2,461.8,0,399.8,0z"/>
<g>
	<path class="st1" d="M252,167.7h-0.2H252C251.9,167.7,252,167.7,252,167.7z"/>
</g>
<g id="_x38_ffifV_1_">
	<g>
		<path class="st2" d="M303.8,122.3c4.1,0.4,8.2,0.8,12.3,1.3c14.2,1.7,28,4.9,40,13.1c14.3,9.7,20,23.4,18.5,40.4
			c-1.1,11.5-6.2,21.4-12.1,31c-9.2,15.3-20.6,29-31.8,42.7c-8.3,10.1-16.6,20.2-24.6,30.4c-2.8,3.6-5.3,7.7-7.2,11.8
			c-3.1,6.8-0.2,11.3,7.3,11.4c6.5,0,13.1-0.4,19.6-1.2c20.3-2.3,40.3-6.4,60-11.9c31-8.6,60.9-20.3,90.5-32.9
			c0.5-0.2,1.1-0.4,1.8-0.2c-6.4,3.7-12.8,7.5-19.3,11.1c-34.9,19-70.8,35.7-108.4,48.6c-14.8,5.1-29.8,9.3-45.3,11.5
			c-8,1.1-16.1,1.5-24.2,0.2c-14.2-2.3-21-13.1-17.2-27.5c2.3-8.9,7-16.6,12.6-23.6c9-11.2,18.4-22.2,27.7-33.1
			c14.2-16.6,28.7-33,40.3-51.5c2.5-4.1,4.7-8.5,6.4-12.9c2.9-7.9,0.6-15.6-5.8-21.1c-7-6.1-15.5-9.4-24.1-12.2
			c-7.7-2.6-15.5-4.7-23.2-7.2c-2.5-0.8-4.6-0.8-6.7,0.9c-1,0.8-2.2,1.4-3.6,2.3c4.4,3.7,8.5,7.1,13.3,11.2
			c-47.9,7.9-93.9,20.6-139.2,37.2c1.6,4.3,3.2,8.5,4.9,12.7c0.8,2,0.6,3.2-1,4.8c-6.5,6.2-12.8,12.6-19.2,19
			c22.6,8.4,57.3,5.2,82.7-16.6c-2.8-2.6-5.5-5.2-8.1-7.5c11-0.6,19.5,12,17.9,21.3c-2,0-4.1,0-6.4,0c-0.3-2.3-0.5-4.7-0.8-7.6
			c-29.5,22.8-61.4,28-96.5,16.1c-0.1,1-0.2,2-0.2,3c0,7.2-0.1,14.3,0,21.5c0,1.8-0.6,2.6-2.3,3.3c-12.1,5.1-23.3,11.8-32,21.9
			c-2.2,2.5-4,5.5-5.3,8.6c-2.7,6.4-0.4,13,5.3,17c7.4,5.2,15.9,6.8,24.6,7.6c24.1,2.3,47.7-1.4,71.2-6.1c8.7-1.7,17.3-3.8,26.1-5.5
			c-4.1,2-8.3,4.1-12.4,6.1c-20.2,9.6-41.2,17-63.3,20.7c-13.3,2.2-26.8,4-40.3,3.1c-11.2-0.8-22.2-3-32.1-8.7
			C60,318.5,53.1,304.3,54.9,288c1.5-13.2,6.7-24.8,13.5-36c30.9-50.3,75.1-84.7,129.3-106.9c21.4-8.8,43.3-15.7,66.1-19.6
			c7.4-1.3,14.9-1.7,22.4-2.6c1.4-0.2,2.8-0.4,4.2-0.7C294.9,122.3,299.4,122.3,303.8,122.3z"/>
	</g>
</g>
</svg>
