<?xml version="1.0" encoding="utf-8"?>
<!-- Generator: Adobe Illustrator 21.0.0, SVG Export Plug-In . SVG Version: 6.00 Build 0)  -->
<svg version="1.1" id="Layer_1" xmlns="http://www.w3.org/2000/svg" xmlns:xlink="http://www.w3.org/1999/xlink" x="0px" y="0px"
	 viewBox="0 0 512 512" style="enable-background:new 0 0 512 512;" xml:space="preserve">
<style type="text/css">
	.st0{fill:url(#SVGID_1_);}
	.st1{fill:#5FCDFF;}
	.st2{fill:#FFFFFF;}
</style>
<linearGradient id="SVGID_1_" gradientUnits="userSpaceOnUse" x1="256" y1="0" x2="256" y2="512">
	<stop  offset="0" style="stop-color:#2199DB"/>
	<stop  offset="1" style="stop-color:#0070BC"/>
</linearGradient>
<path class="st0" d="M399.8,0H112.2C50.2,0,0,50.2,0,112.2v287.6C0,461.8,50.2,512,112.2,512h287.6c62,0,112.2-50.2,112.2-112.2
	V112.2C512,50.2,461.8,0,399.8,0z"/>
<g>
	<path class="st1" d="M252,167.7h-0.2H252C251.9,167.7,252,167.7,252,167.7z"/>
</g>
<path class="st2" d="M108.1,239.2h17.7c3.7,0,16.4,0,16.4-13.4c0-13.9-13-13.9-17.3-13.9h-16.7V239.2z M107.8,191.6h15
	c5.1,0,8.4,0,11.1-1.4c3.7-2.1,6-6.2,6-11.2c0-3.5-1.3-7.6-4.4-10.2c-3.5-2.8-7-2.8-10.4-2.8h-17.3V191.6z M77,145.3h46
	c14.6,0,29.3,0,39.8,9.4c3.7,3.3,8.8,9.6,8.8,19.7c0,20.3-18.8,24.7-24.5,26.1v0.3c7.2,1.3,27.7,5,27.7,28.5
	c0,8.9-3.3,19.4-15.9,26.1c-9.1,4.7-20.7,4.7-31.1,4.7H77L77,145.3L77,145.3z"/>
<path class="st2" d="M258.7,269.8l-14.8-48.3h-0.6l-15.9,48.3H258.7z M225.6,199.1h38.8L309.8,314h-36l-8-23.1h-46l-7.7,23.1h-31.9
	L225.6,199.1z"/>
<path class="st2" d="M404.5,287.7c-1.4-11.7-9.6-15.9-18.6-15.9c-19.3,0-25.2,17.7-25.2,38.7c0,7,0.1,36,24.8,36
	c16.9,0,18.6-12.2,19.3-16.7H438c-0.1,35.9-36.7,39-51.7,39c-11.2,0-30.8-2-43.7-15.2c-12.6-13.4-14.8-31.6-14.8-43.7
	c0-15.7,3.7-31.5,14.4-43.8c11.8-13.4,26.9-16.9,43.7-16.9c18.6,0,32.8,4.4,41.8,14c9.2,9.8,9.4,20.2,9.6,24.5L404.5,287.7
	L404.5,287.7z"/>
</svg>
