<?xml version="1.0" encoding="utf-8"?>
<!-- Generator: Adobe Illustrator 21.0.0, SVG Export Plug-In . SVG Version: 6.00 Build 0)  -->
<svg version="1.1" id="Layer_1" xmlns="http://www.w3.org/2000/svg" xmlns:xlink="http://www.w3.org/1999/xlink" x="0px" y="0px"
	 viewBox="0 0 512 512" style="enable-background:new 0 0 512 512;" xml:space="preserve">
<style type="text/css">
	.st0{fill:url(#SVGID_1_);}
</style>
<linearGradient id="SVGID_1_" gradientUnits="userSpaceOnUse" x1="256" y1="0" x2="256" y2="512">
	<stop  offset="0" style="stop-color:#FFDB4A"/>
	<stop  offset="1" style="stop-color:#FFBB01"/>
</linearGradient>
<path class="st0" d="M399.8,0H112.2C50.2,0,0,50.2,0,112.2v287.6C0,461.8,50.2,512,112.2,512h287.6c62,0,112.2-50.2,112.2-112.2
	V112.2C512,50.2,461.8,0,399.8,0z"/>
<g>
	<path d="M401.1,272.3c-9.7-12.6-24.4-21.2-44-25.9c25-12.7,35.9-34.3,32.9-64.8c-1-11.1-4.1-20.6-9.2-28.8
		c-5.1-8.1-12-14.7-20.7-19.6c-8.7-4.9-18.2-8.7-28.4-11.3c-10.2-2.6-21.9-4.5-35.2-5.7V53h-38.7v61.6c-6.7,0-16.9,0.2-30.7,0.5V53
		h-38.7v63.3c-5.5,0.2-13.7,0.3-24.4,0.3l-53.3-0.3v41.2h27.9c12.7,0,20.2,5.7,22.4,17.1v72.1c1.7,0,3,0.1,4,0.3h-4v101
		c-1.3,8.5-6.2,12.8-14.6,12.8h-27.9l-7.8,46h50.3c3.2,0,7.8,0,13.8,0.1c6,0.1,10.5,0.1,13.6,0.1v64.1h38.7v-63.3
		c7,0.2,17.3,0.3,30.7,0.3v63.1h38.7V407c13.7-0.7,25.9-1.9,36.6-3.8c10.6-1.8,20.8-4.7,30.5-8.7c9.7-3.9,17.8-8.8,24.4-14.7
		c6.5-5.9,11.9-13.3,16.2-22.4c4.3-9,7-19.5,8.2-31.4C414.6,302.8,410.8,284.9,401.1,272.3z M228,160.3c1.2,0,4.5,0,9.9-0.1
		c5.4-0.1,10-0.2,13.6-0.3c3.6-0.1,8.5,0.1,14.6,0.6c6.1,0.5,11.3,1.2,15.4,2s8.8,2.2,13.8,4.1c5,1.9,9,4.3,12.1,7
		c3,2.8,5.6,6.3,7.7,10.6c2.1,4.3,3.1,9.2,3.1,14.7c0,4.7-0.8,9-2.3,12.8c-1.5,3.9-3.8,7.1-6.8,9.7c-3,2.6-6.1,4.9-9.3,6.8
		c-3.2,1.9-7.2,3.5-12.2,4.6c-4.9,1.2-9.3,2.1-12.9,2.8c-3.7,0.7-8.3,1.1-13.8,1.4c-5.5,0.2-9.7,0.4-12.6,0.5
		c-2.8,0.1-6.7,0.1-11.7,0c-4.9-0.1-7.8-0.1-8.7-0.1L228,160.3L228,160.3L228,160.3z M333.6,331.4c-1.6,3.9-3.6,7.2-6.2,10.1
		c-2.5,2.8-5.8,5.4-9.9,7.5c-4.1,2.2-8.1,3.9-11.9,5.3c-3.9,1.3-8.5,2.5-13.9,3.5c-5.5,1-10.2,1.7-14.3,2.1c-4.1,0.4-9,0.8-14.7,1
		c-5.7,0.2-10.1,0.4-13.3,0.4c-3.2,0-7.2,0-12.1-0.1c-4.9-0.1-8-0.1-9.3-0.1v-84.9c1.3,0,5.3-0.1,11.9-0.3c6.6-0.2,12-0.2,16.2-0.2
		c4.2,0,10,0.2,17.3,0.8c7.4,0.5,13.6,1.2,18.6,2.3c5,1,10.5,2.6,16.5,4.6c5.9,2.1,10.8,4.6,14.4,7.7c3.7,3,6.8,6.9,9.3,11.6
		c2.5,4.7,3.8,10,3.8,16.1C336,323.3,335.2,327.5,333.6,331.4z"/>
</g>
</svg>
