<?xml version="1.0" encoding="utf-8"?>
<!-- Generator: Adobe Illustrator 21.0.0, SVG Export Plug-In . SVG Version: 6.00 Build 0)  -->
<svg version="1.1" id="Layer_1" xmlns="http://www.w3.org/2000/svg" xmlns:xlink="http://www.w3.org/1999/xlink" x="0px" y="0px"
	 viewBox="0 0 512 512" style="enable-background:new 0 0 512 512;" xml:space="preserve">
<style type="text/css">
	.st0{fill:#FFFFFF;}
	.st1{fill:#986B54;}
	.st2{fill:#845C47;}
	.st3{fill:#664545;}
	.st4{fill:#523838;}
</style>
<path class="st0" d="M399.8,0H112.2C50.2,0,0,50.2,0,112.2v287.6C0,461.8,50.2,512,112.2,512h287.6c62,0,112.2-50.2,112.2-112.2
	V112.2C512,50.2,461.8,0,399.8,0z"/>
<g>
	<g>
		<ellipse class="st1" cx="182.8" cy="236.4" rx="103.6" ry="146.7"/>
		<path class="st2" d="M111,342.1c18.6,25.4,44,41.1,71.9,41.1c57.2,0,103.6-65.7,103.6-146.7c0-57.6-23.4-107.4-57.5-131.4
			c10.1,13.8,18.3,30.6,23.8,49.3c1.6,5.4-0.3,11.2-4.7,14.6c-7,5.5-13.6,11.4-20,17.7c-30.7,30.7-51.2,68.3-57.7,105.9
			c-3,17.1-2.9,33.4,0,48.4c1.6,8.4-4.6,16.4-13.2,16.4c-0.1,0-0.1,0-0.2,0C140.5,357.4,124.9,351.9,111,342.1L111,342.1z"/>
		<path class="st3" d="M191.5,338.5c-3.5-16.4-6.5-33.5-11-49.5c-4.2-15.6-9.4-30.4-15.7-45c-15.1-34.9-17.7-76.7-0.2-111.1
			c1.1-2.1,3.8-2.9,6-1.8c4.5,3.5,4.9,19.3,7.2,25.5c5.4,24.9,12.9,49.2,23.3,72.1c7.9,17.6,12.6,36.8,13,55.9
			c0.4,19-2.8,38.3-11.3,55.3c-1.5,2.9-5.1,4-8,2.6C192.9,341.8,191.8,340.3,191.5,338.5L191.5,338.5z"/>
		<path class="st4" d="M194.6,342.6c2.9,1.4,6.5,0.3,8-2.6c8.6-17.1,11.8-36.3,11.3-55.3c-0.5-19.2-5.2-38.3-13-55.9
			c-0.8-1.9-1.7-3.7-2.5-5.6c-10.1,15.6-17.9,32.1-23.1,48.9c1.8,5.6,3.5,11.3,5.1,17.1c4.5,16,7.5,33.1,11,49.5
			C191.8,340.3,192.9,341.8,194.6,342.6z"/>
	</g>
	<g>
		
			<ellipse transform="matrix(0.7071 -0.7071 0.7071 0.7071 -101.5701 303.8116)" class="st1" cx="315.9" cy="274.5" rx="146.7" ry="103.6"/>
		<path class="st2" d="M441.5,214.2c-5,32.7-22.9,67.8-52.3,97.1c-57.3,57.3-136.5,71-177,30.5c-11.7-11.7-18.9-26.7-21.8-43.4
			c-4.8,31.2,2,60.1,21.8,79.9c40.4,40.4,119.7,26.8,177-30.5C429.9,307,448.6,255.3,441.5,214.2L441.5,214.2z"/>
		<path class="st4" d="M249.9,352.8c9.1-14.1,19.1-28.3,27.2-42.7c8-14,14.9-28.2,20.7-43c14-35.3,41.7-66.7,78.4-78.7
			c2.3-0.7,4.8,0.6,5.5,2.9c0.7,5.7-10.2,17.1-13,23.1c-13.7,21.4-25.7,43.9-34.5,67.5c-6.9,18-17.1,34.9-30.3,48.8
			c-13.2,13.8-29,25.1-47.1,31.1c-3.1,1-6.4-0.7-7.5-3.8C248.6,356.1,248.9,354.3,249.9,352.8L249.9,352.8z"/>
	</g>
</g>
</svg>
