<?xml version="1.0" encoding="utf-8"?>
<!-- Generator: Adobe Illustrator 21.0.0, SVG Export Plug-In . SVG Version: 6.00 Build 0)  -->
<svg version="1.1" id="Layer_1" xmlns="http://www.w3.org/2000/svg" xmlns:xlink="http://www.w3.org/1999/xlink" x="0px" y="0px"
	 viewBox="0 0 512 512" style="enable-background:new 0 0 512 512;" xml:space="preserve">
<style type="text/css">
	.st0{fill:#FFFFFF;}
	.st1{fill:#000199;}
</style>
<path class="st0" d="M399.8,0H112.2C50.2,0,0,50.2,0,112.2v287.6C0,461.8,50.2,512,112.2,512h287.6c62,0,112.2-50.2,112.2-112.2
	V112.2C512,50.2,461.8,0,399.8,0z"/>
<g id="Iq9HRj_1_">
	<g>
		<path class="st0" d="M51.2,358.8c0.5,0,0.8,0,1.2,0c96.1,0,192.2,0,288.3,0c0.8,0,1.2-0.3,1.6-1.2c11.3-21.1,22.6-42.1,33.9-63.2
			c0.2-0.3,0.4-0.6,0.6-1.1c0.2,0.4,0.4,0.8,0.6,1.1c11.3,21.1,22.6,42.2,33.9,63.3c0.4,0.7,0.8,1,1.4,1c13.6,0,27.2,0,40.8,0
			c0.3,0,0.6,0,1-0.1c-0.3-0.6-0.6-1.1-0.8-1.5c-18.3-34.1-36.6-68.2-54.8-102.3c-0.9-1.8-1-1.1,0-2.9c18.4-34.3,36.8-68.7,55.2-103
			c0.1-0.2,0.2-0.5,0.4-0.9c-0.4,0-0.7,0-1,0c-13.6,0-27.2,0-40.8,0c-0.7,0-1.1,0.3-1.5,1c-11.3,21.1-22.6,42.3-34,63.4
			c-0.2,0.3-0.4,0.6-0.6,1c-0.2-0.4-0.4-0.7-0.6-1c-11.3-21.1-22.6-42.1-33.9-63.2c-0.4-0.8-0.9-1.2-1.7-1.2
			c-96.1,0-192.2,0-288.3,0c-1.2,0-1.2,0-1.2,1.5c0,69.2,0,138.4,0,207.7C51.2,357.7,51.2,358.2,51.2,358.8z"/>
		<path class="st1" d="M51.2,358.8c0-0.7,0-1.1,0-1.6c0-69.2,0-138.4,0-207.7c0-1.5,0-1.5,1.2-1.5c96.1,0,192.2,0,288.3,0
			c0.8,0,1.2,0.4,1.7,1.2c11.3,21.1,22.6,42.1,33.9,63.2c0.2,0.3,0.3,0.6,0.6,1c0.2-0.4,0.4-0.7,0.6-1c11.3-21.1,22.7-42.2,34-63.4
			c0.4-0.8,0.8-1,1.5-1c13.6,0,27.2,0,40.8,0c0.3,0,0.6,0,1,0c-0.2,0.4-0.3,0.7-0.4,0.9c-18.4,34.3-36.8,68.7-55.2,103
			c-1,1.8-0.9,1.1,0,2.9c18.3,34.1,36.6,68.2,54.8,102.3c0.2,0.4,0.5,0.9,0.8,1.5c-0.5,0-0.8,0.1-1,0.1c-13.6,0-27.2,0-40.8,0
			c-0.7,0-1-0.3-1.4-1c-11.3-21.1-22.6-42.2-33.9-63.3c-0.2-0.3-0.4-0.7-0.6-1.1c-0.2,0.4-0.4,0.7-0.6,1.1
			c-11.3,21.1-22.6,42.1-33.9,63.2c-0.4,0.8-0.9,1.2-1.6,1.2c-96.1,0-192.2,0-288.3,0C52,358.8,51.7,358.8,51.2,358.8z M59.2,158.6
			c0,63.3,0,126.5,0,189.8c0.4,0,0.7,0,1,0c8.2,0,16.4,0,24.6,0c7.4,0,14.8,0,22.3-0.3c6.5-0.2,13-1.6,19.3-4.1
			c16.8-6.5,28.7-20.5,35.4-42.4c3.7-12.4,5.3-25.3,5.9-38.6c0.4-9.3,0.3-18.5-0.5-27.8c-0.8-10-2.3-19.8-5.1-29.2
			c-5.6-19.2-15.4-32.9-29.7-40.5c-9.2-4.9-18.8-6.8-28.6-6.8c-14.6-0.1-29.2,0-43.8,0C59.8,158.6,59.5,158.6,59.2,158.6z
			 M291.7,348.3c-14.1-63.3-28.2-126.5-42.3-189.7c-0.3,0-0.5,0-0.8,0c-10.5,0-21,0-31.5,0c-0.8,0-0.9,0.5-1.1,1.3
			c-13.3,59.5-26.5,119-39.8,178.6c-0.7,3.3-1.5,6.6-2.2,10c0.4,0,0.7,0,1.1,0c7.6,0,15.3,0,22.9,0c0.9,0,1.2-0.3,1.5-1.5
			c2.7-12.9,5.5-25.8,8.2-38.8c0.2-0.9,0.5-1.3,1.2-1.3c15.5,0,31,0,46.5,0c0.7,0,1,0.2,1.2,1.2c2.7,13.1,5.5,26.2,8.2,39.2
			c0.1,0.3,0.2,0.7,0.3,1C274,348.3,282.8,348.3,291.7,348.3z M303.6,348.3c0.3,0,0.5,0.1,0.6,0.1c11.3,0,22.5,0,33.8,0
			c0.3,0,0.8-0.4,1-0.7c16.7-31.1,33.4-62.3,50.1-93.4c0.3-0.6,0.3-1,0-1.7c-16.7-31.1-33.4-62.1-50-93.2c-0.3-0.6-0.7-0.9-1.2-0.9
			c-11.2,0-22.3,0-33.5,0c-0.2,0-0.5,0-0.8,0.1c0.3,0.6,0.6,1.2,0.9,1.7c16.5,30.7,32.9,61.4,49.4,92.1c0.4,0.8,0.4,1.2,0,2
			c-15,27.9-30,55.8-44.9,83.8C307.3,341.6,305.5,344.9,303.6,348.3z"/>
		<path class="st0" d="M59.2,158.6c0.3,0,0.6,0,0.9,0c14.6,0,29.2-0.1,43.8,0c9.8,0.1,19.4,2,28.6,6.8c14.3,7.6,24.1,21.3,29.7,40.5
			c2.7,9.4,4.3,19.2,5.1,29.2c0.7,9.2,0.8,18.5,0.5,27.8c-0.5,13.2-2.1,26.2-5.9,38.6c-6.6,22-18.6,35.9-35.4,42.4
			c-6.3,2.5-12.7,3.9-19.3,4.1c-7.4,0.3-14.8,0.2-22.3,0.3c-8.2,0-16.4,0-24.6,0c-0.3,0-0.7,0-1,0C59.2,285.1,59.2,221.9,59.2,158.6
			z M85.6,317c0.3,0,0.4,0,0.6,0c4.6,0,9.3,0,13.9,0c5-0.1,10-0.6,14.8-2.2c10.6-3.5,18-12,21.9-25.8c2.3-7.8,3.2-16,3.7-24.4
			c0.5-8.2,0.5-16.5-0.1-24.7c-0.5-6.6-1.4-13.1-3.1-19.4c-3.1-11.6-8.5-20.3-17-25.3c-5.4-3.2-11.2-4.6-17.1-4.8
			c-5.7-0.2-11.3-0.1-17-0.2c-0.2,0-0.5,0.1-0.7,0.1C85.6,232.6,85.6,274.7,85.6,317z"/>
		<path class="st0" d="M291.7,348.3c-8.9,0-17.6,0-26.4,0c-0.1-0.3-0.2-0.7-0.3-1c-2.7-13.1-5.5-26.2-8.2-39.2
			c-0.2-1-0.5-1.2-1.2-1.2c-15.5,0-31,0-46.5,0c-0.8,0-1,0.3-1.2,1.3c-2.7,12.9-5.5,25.8-8.2,38.8c-0.2,1.2-0.6,1.5-1.5,1.5
			c-7.6-0.1-15.3,0-22.9,0c-0.3,0-0.7,0-1.1,0c0.8-3.4,1.5-6.7,2.2-10c13.3-59.5,26.5-119,39.8-178.6c0.2-0.8,0.3-1.3,1.1-1.3
			c10.5,0,21,0,31.5,0c0.2,0,0.5,0,0.8,0C263.5,221.8,277.6,285,291.7,348.3z M232.3,192.3c-0.1,0-0.1,0-0.2,0
			c-5.9,28-11.7,56.1-17.6,84.2c11.9,0,23.7,0,35.6,0C244.2,248.4,238.2,220.4,232.3,192.3z"/>
		<path class="st0" d="M303.6,348.3c1.9-3.5,3.6-6.8,5.4-10.1c15-27.9,29.9-55.9,44.9-83.8c0.4-0.8,0.4-1.3,0-2
			c-16.5-30.7-33-61.4-49.4-92.1c-0.3-0.5-0.5-1-0.9-1.7c0.4,0,0.6-0.1,0.8-0.1c11.2,0,22.3,0,33.5,0c0.6,0,0.9,0.3,1.2,0.9
			c16.7,31.1,33.3,62.1,50,93.2c0.3,0.6,0.3,1,0,1.7c-16.7,31.1-33.4,62.3-50.1,93.4c-0.2,0.4-0.7,0.7-1,0.7c-11.3,0-22.5,0-33.8,0
			C304.1,348.4,303.9,348.4,303.6,348.3z"/>
		<path class="st1" d="M85.6,317c0-42.2,0-84.4,0-126.6c0.3,0,0.5-0.1,0.7-0.1c5.7,0,11.3-0.1,17,0.2c5.9,0.2,11.6,1.6,17.1,4.8
			c8.4,5,13.9,13.7,17,25.3c1.7,6.3,2.6,12.8,3.1,19.4c0.6,8.2,0.6,16.5,0.1,24.7c-0.5,8.3-1.5,16.5-3.7,24.4
			c-4,13.8-11.4,22.3-21.9,25.8c-4.9,1.6-9.8,2.1-14.8,2.2c-4.6,0-9.3,0-13.9,0C86.1,317,85.9,317,85.6,317z"/>
		<path class="st1" d="M232.3,192.3c5.9,28,11.9,56.1,17.8,84.2c-11.9,0-23.7,0-35.6,0c5.9-28.1,11.8-56.1,17.6-84.2
			C232.2,192.3,232.2,192.3,232.3,192.3z"/>
	</g>
</g>
</svg>
