<?xml version="1.0" encoding="utf-8"?>
<!-- Generator: Adobe Illustrator 21.0.0, SVG Export Plug-In . SVG Version: 6.00 Build 0)  -->
<svg version="1.1" id="Layer_1" xmlns="http://www.w3.org/2000/svg" xmlns:xlink="http://www.w3.org/1999/xlink" x="0px" y="0px"
	 viewBox="0 0 512 512" style="enable-background:new 0 0 512 512;" xml:space="preserve">
<style type="text/css">
	.st0{fill:#FFFFFF;}
	.st1{fill:#EA1313;}
</style>
<path class="st0" d="M399.8,0H112.2C50.2,0,0,50.2,0,112.2v287.6C0,461.8,50.2,512,112.2,512h287.6c62,0,112.2-50.2,112.2-112.2
	V112.2C512,50.2,461.8,0,399.8,0z"/>
<g id="oQ4UQH_1_">
	<g>
		<path class="st1" d="M254.6,105.6c3.7,2.7,7.4,5.5,11.2,8c65.7,45.1,131.4,90.2,197.1,135.3c0.6,0.4,1.1,0.9,1.9,1.5
			c-4.2,3-8.2,5.8-12.2,8.7c-43.7,30.8-87.4,61.5-131,92.3c-21.8,15.3-43.6,30.7-65.4,46.1c-1.3,0.9-2.4,0.8-3.6-0.1
			c-68-49-136.1-97.9-204.1-146.8c-0.4-0.3-0.7-0.6-1.3-1.1c0.6-0.6,1-1,1.4-1.3c56.5-39.1,113.1-78.2,169.6-117.3
			c11.7-8.1,23.5-16.3,35.2-24.4c0.3-0.2,0.6-0.6,0.8-0.9C254.4,105.6,254.5,105.6,254.6,105.6z M348.6,272.2
			c-0.4-1.8-0.6-3-0.8-4.1c-2.9-16-5.9-31.9-8.7-47.9c-0.4-2.4-0.9-3.3-2.2-3.2c-4.1,0.1-8.3,0.2-12.4,0c-1.3-0.1-1.8,0.9-2.2,3.2
			c-2.7,15.4-5.4,30.8-8.2,46.2c-0.2,0.9-0.4,1.8-0.7,3.5c-2.5-15.3-4.9-29.7-7.2-44.1c-0.4-2.4,0.1-3.8,1.3-4.4
			c0.5-0.2,0.9-0.4,1.4-0.6c0-2.4,0-4.5,0-6.6c-7.6,0-15,0-22.5,0c0,1.8-0.1,3.4,0,4.9c0.1,0.7,0.5,1.9,0.8,1.9
			c2.3-0.2,2.9,2.9,3.6,6.6c4.2,22.5,8.5,44.8,12.7,67.2c1,5.5,0.6,7.1-2.1,8.4c-0.4,0.2-0.9,1-0.9,1.7c-0.1,1.8,0,3.6,0,5.6
			c8.4,0,16.5,0,24.5,0c0-2.4,0-4.4,0-6.6c-0.4-0.1-0.6-0.1-0.9-0.2c-2.7-0.7-3.2-2.5-2-7.5c2.5-11.3,5-22.6,7.6-33.9
			c0.3-1.5,0.7-3,1.3-5.3c2.5,13.4,4.9,25.9,7.2,38.5c1.1,6,0.9,6.8-2.1,8.7c0,2,0,4.1,0,6c7.6,0,15.1,0,22.6,0c0-2.5,0-4.5,0-6.5
			c-0.3-0.2-0.5-0.4-0.7-0.4c-3-0.9-3.1-1.6-1.9-7.2c4.9-22.2,9.8-44.4,14.6-66.8c1.2-5.5,2.6-8.7,5.7-8.1c0.1,0,0.2-0.2,0.3-0.4
			c0-2.2,0-4.5,0-6.8c-7.7,0-15.3,0-22.9,0c0,2.6,0,4.9,0,7.1c1,0.3,1.9,0.5,2.7,1c0.9,0.5,1.4,1.7,1,3.8
			C354.5,241.1,351.6,256.2,348.6,272.2z M148.8,191.3c-0.3,5.7-0.3,5.7,2,6.3c0.7,0.2,1.4,0.5,2.1,0.9c1.3,0.7,1.9,2.2,1.9,5.2
			c-0.1,29.7,0,59.4,0,89.2c0,7.2-0.5,8.3-4.1,8.9c-0.3,0.1-0.7-0.1-1,0.2c-0.4,0.6-1,1.4-1,2.3c-0.3,4-0.1,4.3,1.9,4.3
			c13,0,25.9-0.2,38.9,0.1c5.3,0.1,10-3.2,14.1-9.7c16.4-25.9,15.2-71.7,0.5-97.3c-4.1-7.2-8.8-10.6-14.4-10.5
			c-13,0.4-25.9,0.1-38.9,0.1C150.2,191.3,149.5,191.3,148.8,191.3z M254.9,314c3.6-1.1,7.2-1.7,10.8-3.4
			c9.7-4.9,18.3-18.6,19.6-44.6c0.9-19.1-3.3-39.1-13.4-50.3c-4.5-5-9.4-7.4-14.5-8c-7.5-0.8-14.7,1.7-21.1,10.2
			c-8.1,10.7-12.1,26.1-11.7,45.8c0.5,19.5,5.1,34,13.8,42.6C243.6,311.5,249.1,313.2,254.9,314z"/>
		<path class="st0" d="M348.6,272.2c3-15.9,5.8-31.1,8.7-46.3c0.4-2.1-0.1-3.2-1-3.8c-0.8-0.5-1.7-0.6-2.7-1c0-2.2,0-4.5,0-7.1
			c7.6,0,15.2,0,22.9,0c0,2.3,0,4.6,0,6.8c-0.1,0.2-0.2,0.4-0.3,0.4c-3.1-0.6-4.5,2.7-5.7,8.1c-4.7,22.4-9.7,44.5-14.6,66.8
			c-1.2,5.6-1.1,6.2,1.9,7.2c0.2,0.1,0.4,0.3,0.7,0.4c0,2,0,4,0,6.5c-7.5,0-15,0-22.6,0c0-1.9,0-3.9,0-6c3-1.9,3.2-2.7,2.1-8.7
			c-2.3-12.6-4.7-25.2-7.2-38.5c-0.5,2.2-0.9,3.7-1.3,5.3c-2.5,11.3-5,22.6-7.6,33.9c-1.1,5.1-0.6,6.9,2,7.5
			c0.3,0.1,0.5,0.1,0.9,0.2c0,2.1,0,4.2,0,6.6c-8.1,0-16.2,0-24.5,0c0-2-0.1-3.8,0-5.6c0-0.6,0.6-1.5,0.9-1.7
			c2.7-1.3,3.2-2.9,2.1-8.4c-4.3-22.4-8.6-44.8-12.7-67.2c-0.7-3.7-1.3-6.8-3.6-6.6c-0.3,0-0.7-1.2-0.8-1.9c-0.1-1.5,0-3.1,0-4.9
			c7.5,0,15,0,22.5,0c0,2.1,0,4.2,0,6.6c-0.5,0.2-0.9,0.3-1.4,0.6c-1.2,0.6-1.7,2-1.3,4.4c2.3,14.4,4.7,28.8,7.2,44.1
			c0.3-1.7,0.5-2.6,0.7-3.5c2.7-15.4,5.5-30.8,8.2-46.2c0.4-2.3,0.9-3.3,2.2-3.2c4.1,0.2,8.3,0.2,12.4,0c1.3,0,1.8,0.9,2.2,3.2
			c2.9,16,5.8,32,8.7,47.9C348,269.2,348.3,270.3,348.6,272.2z"/>
		<path class="st0" d="M148.8,191.3c0.7,0,1.4,0,2,0c13,0,25.9,0.2,38.9-0.1c5.6-0.2,10.3,3.3,14.4,10.5
			c14.7,25.7,15.9,71.5-0.5,97.3c-4.1,6.5-8.7,9.8-14.1,9.7c-13-0.3-25.9-0.1-38.9-0.1c-2,0-2.2-0.3-1.9-4.3c0.1-0.8,0.6-1.7,1-2.3
			c0.2-0.3,0.6-0.1,1-0.2c3.5-0.6,4.1-1.7,4.1-8.9c0-29.7,0-59.4,0-89.2c0-3.1-0.6-4.5-1.9-5.2c-0.7-0.4-1.4-0.7-2.1-0.9
			C148.5,197,148.5,197,148.8,191.3z M168.3,282.4c0.5,0.1,0.8,0.3,1.1,0.3c7.1,0,14.3,0,21.4,0c2.9,0,5.3-2.6,7.3-6.5
			c6.2-12,6.6-35.8,0.8-49.9c-2.7-6.6-6.1-10.3-10.5-10.1c-6.1,0.3-12.2,0.1-18.3,0.1c-0.6,0-1.2,0-1.8,0
			C168.3,238.5,168.3,260.3,168.3,282.4z"/>
		<path class="st0" d="M254.9,314c-5.8-0.8-11.3-2.5-16.5-7.7c-8.7-8.7-13.3-23.1-13.8-42.6c-0.5-19.7,3.6-35,11.7-45.8
			c6.4-8.5,13.5-11.1,21.1-10.2c5.1,0.6,10,3,14.5,8c10.1,11.1,14.4,31.2,13.4,50.3c-1.3,25.9-9.9,39.7-19.6,44.6
			C262.2,312.3,258.5,312.9,254.9,314z M254.5,232.7c-2.8-0.1-5.9,1.1-8.8,4.2c-4.7,5.1-7.4,13-7.6,23.8c-0.2,10.7,2,19.4,6.5,24.7
			c6.7,8,13.8,8.1,20.5,0.3c9.3-10.8,9.3-36.1,0.2-47.6C262.2,234.2,258.7,232.7,254.5,232.7z"/>
		<path class="st1" d="M168.3,282.4c0-22.1,0-43.9,0-66.2c0.7,0,1.2,0,1.8,0c6.1,0,12.2,0.3,18.3-0.1c4.4-0.2,7.8,3.4,10.5,10.1
			c5.8,14.1,5.4,37.9-0.8,49.9c-2,3.9-4.4,6.5-7.3,6.5c-7.1,0-14.3,0-21.4,0C169.1,282.7,168.8,282.5,168.3,282.4z"/>
		<path class="st1" d="M254.5,232.7c4.2,0,7.6,1.5,10.8,5.4c9.1,11.5,9.1,36.8-0.2,47.6c-6.7,7.8-13.8,7.7-20.5-0.3
			c-4.5-5.4-6.7-14.1-6.5-24.7c0.2-10.9,3-18.7,7.6-23.8C248.6,233.8,251.8,232.6,254.5,232.7z"/>
	</g>
</g>
</svg>
