<?xml version="1.0" encoding="utf-8"?>
<!-- Generator: Adobe Illustrator 21.0.0, SVG Export Plug-In . SVG Version: 6.00 Build 0)  -->
<svg version="1.1" id="Layer_1" xmlns="http://www.w3.org/2000/svg" xmlns:xlink="http://www.w3.org/1999/xlink" x="0px" y="0px"
	 viewBox="0 0 512 512" style="enable-background:new 0 0 512 512;" xml:space="preserve">
<style type="text/css">
	.st0{fill:#2176DB;}
	.st1{fill:#FFF200;}
</style>
<path class="st0" d="M399.8,0H112.2C50.2,0,0,50.2,0,112.2v287.6C0,461.8,50.2,512,112.2,512h287.6c62,0,112.2-50.2,112.2-112.2
	V112.2C512,50.2,461.8,0,399.8,0z"/>
<g>
	<g>
		<path class="st1" d="M446,201.6l-36.6-44c-5.9-7.1-16.8-7.1-22.7,0l-36.6,44c-5.7,6.9-0.8,17.3,8.1,17.3h79.7
			C446.9,218.9,451.8,208.5,446,201.6z"/>
		<path class="st1" d="M437.9,306.9h-79.7c-9,0-13.8,10.4-8.1,17.3l36.6,44c5.9,7.1,16.8,7.1,22.7,0l36.6-44
			C451.8,317.3,446.9,306.9,437.9,306.9z"/>
		<path class="st1" d="M103.6,324.1V382c0,14.6,11.8,26.4,26.4,26.4h165.2c14.6,0,26.4-11.8,26.4-26.4v-46.4
			c0-14.6-11.8-26.4-26.4-26.4s-26.4,11.8-26.4,26.4v20.1H156.4v-31.5h55.9c14.6,0,26.4-11.8,26.4-26.4s-11.8-26.4-26.4-26.4h-55.9
			v-19.6h55.9c14.6,0,26.4-11.8,26.4-26.4s-11.8-26.4-26.4-26.4h-55.9v-31.5h112.4v20.4c0,14.6,11.8,26.4,26.4,26.4
			s26.4-11.8,26.4-26.4v-46.8c0-14.6-11.8-26.4-26.4-26.4H130c-14.6,0-26.4,11.8-26.4,26.4v57.8H85.9c-14.6,0-26.4,11.8-26.4,26.4
			s11.8,26.4,26.4,26.4h17.7v19.6H85.9c-14.6,0-26.4,11.8-26.4,26.4s11.8,26.4,26.4,26.4L103.6,324.1L103.6,324.1z"/>
	</g>
</g>
</svg>
