<?xml version="1.0" encoding="utf-8"?>
<!-- Generator: Adobe Illustrator 21.0.0, SVG Export Plug-In . SVG Version: 6.00 Build 0)  -->
<svg version="1.1" id="Layer_1" xmlns="http://www.w3.org/2000/svg" xmlns:xlink="http://www.w3.org/1999/xlink" x="0px" y="0px"
	 viewBox="0 0 512 512" style="enable-background:new 0 0 512 512;" xml:space="preserve">
<style type="text/css">
	.st0{fill:#FFFFFF;}
	.st1{fill:#5FCDFF;}
	.st2{fill:#3D6AD6;}
</style>
<path class="st0" d="M399.8,0H112.2C50.2,0,0,50.2,0,112.2v287.6C0,461.8,50.2,512,112.2,512h287.6c62,0,112.2-50.2,112.2-112.2
	V112.2C512,50.2,461.8,0,399.8,0z"/>
<g>
	<path class="st1" d="M252,167.7h-0.2H252C251.9,167.7,252,167.7,252,167.7z"/>
</g>
<g id="_x30_1._Facebook">
	<path id="Icon_11_" class="st2" d="M214.5,291.1c-1.2,0-27.1,0-39,0c-6.1,0-8.3-2.2-8.3-8.4c0-15.9,0-31.7,0-47.6
		c0-6.1,2.3-8.4,8.4-8.4c11.9,0,37.6,0,38.9,0c0-1.1,0-24,0-34.5c0-15.6,2.8-30.5,10.7-44.2c8.1-14,19.9-23.6,35-29.1
		c9.7-3.6,19.7-5,30-5c12.9,0,25.7,0,38.6,0c5.5,0,8,2.5,8,8c0,14.9,0,29.8,0,44.8c0,5.6-2.4,7.9-8,7.9c-10.5,0.1-21.1,0-31.6,0.5
		c-10.6,0-16.2,5.2-16.2,16.2c-0.3,11.6-0.1,23.3-0.1,35.4c1,0,31.3,0,45.4,0c6.4,0,8.6,2.2,8.6,8.7c0,15.8,0,31.6,0,47.3
		c0,6.4-2.1,8.4-8.5,8.4c-14.1,0-44.3,0-45.6,0v127.7c0,6.8-2.1,9-8.9,9c-16.4,0-32.8,0-49.1,0c-5.9,0-8.3-2.3-8.3-8.2
		C214.5,378,214.5,292.6,214.5,291.1L214.5,291.1z"/>
</g>
</svg>
