<?xml version="1.0" encoding="utf-8"?>
<!-- Generator: Adobe Illustrator 21.0.0, SVG Export Plug-In . SVG Version: 6.00 Build 0)  -->
<svg version="1.1" id="Layer_1" xmlns="http://www.w3.org/2000/svg" xmlns:xlink="http://www.w3.org/1999/xlink" x="0px" y="0px"
	 viewBox="0 0 512 512" style="enable-background:new 0 0 512 512;" xml:space="preserve">
<style type="text/css">
	.st0{fill:#FFFFFF;}
	.st1{fill:#7F1939;}
</style>
<path class="st0" d="M399.8,0H112.2C50.2,0,0,50.2,0,112.2v287.6C0,461.8,50.2,512,112.2,512h287.6c62,0,112.2-50.2,112.2-112.2
	V112.2C512,50.2,461.8,0,399.8,0z"/>
<g>
	<path class="st1" d="M159.9,284.6h-41v84.6H93.5V156.8h70.6v39.5H119v48.9h41v39.4H159.9z"/>
	<path class="st1" d="M258.9,196.3h-31.7v172.9h-25.4V196.3h-31.1v-39.5h88.2V196.3z"/>
	<path class="st1" d="M321.7,313.9c0-7.5-1.3-13.3-3.9-17.5s-7.3-8.5-13.9-13s-12-8.8-16.2-13c-13.7-13.5-20.5-32.1-20.5-55.7
		c0-11.8,1.7-22.2,5.1-31.2s8.2-16,14.5-21c6.2-5,13.2-7.5,21-7.5c7.6,0,14.4,2.7,20.4,8.2c6,5.4,10.7,13.2,14,23.3s5,21.6,5,34.5
		h-25.4c0-8.7-1.3-15.4-3.9-20.1c-2.6-4.8-6.2-7.2-10.7-7.2s-8.1,2-10.8,6.1c-2.6,4-3.9,9.2-3.9,15.4c0,5.5,1.4,10.4,4.3,14.8
		c2.9,4.4,8,9,15.3,13.7s13.3,9.8,18,15.2c11.4,13.2,17.1,31.5,17.1,54.7c0,18.6-3.5,33.2-10.4,43.8c-7,10.6-16.5,15.9-28.6,15.9
		c-8.5,0-16.3-3.1-23.2-9.3c-6.9-6.2-12.1-14.6-15.6-25.4c-3.5-10.7-5.3-23.1-5.3-37.1h25.5c0,11.4,1.5,19.8,4.4,25.2
		c2.9,5.4,7.7,8.1,14.2,8.1c4.2,0,7.5-1.8,10-5.5C320.5,325.6,321.7,320.5,321.7,313.9z"/>
	<path class="st1" d="M425.6,280.2h-40V331h47.2v39.4h-72.7V157.9H433v39.5h-47.4v44.8h40V280.2z"/>
</g>
</svg>
