<?xml version="1.0" encoding="utf-8"?>
<!-- Generator: Adobe Illustrator 21.0.0, SVG Export Plug-In . SVG Version: 6.00 Build 0)  -->
<svg version="1.1" id="Layer_1" xmlns="http://www.w3.org/2000/svg" xmlns:xlink="http://www.w3.org/1999/xlink" x="0px" y="0px"
	 viewBox="0 0 512 512" style="enable-background:new 0 0 512 512;" xml:space="preserve">
<style type="text/css">
	.st0{fill:#FFFFFF;}
	.st1{fill:#C74C5E;}
	.st2{fill:#F9C153;}
</style>
<path class="st0" d="M399.8,0H112.2C50.2,0,0,50.2,0,112.2v287.6C0,461.8,50.2,512,112.2,512h287.6c62,0,112.2-50.2,112.2-112.2
	V112.2C512,50.2,461.8,0,399.8,0z"/>
<path class="st1" d="M391.6,276.4c0,75.4-52.4,120-89.3,142.1c-21.8,13.1-49.1,13.1-70.9,0c-36.9-22-89.3-66.6-89.3-142.1
	c0-71.3,72.5-131,120.2-190.4c1.9-2.5,5.5-3,8-1c0.4,0.3,0.7,0.6,1,1C319.1,145.4,391.6,205.1,391.6,276.4L391.6,276.4z"/>
<path class="st2" d="M332.2,310c0,76.5-65.3,118.2-65.3,118.2s-65.3-41.7-65.3-118.2c0-48.7,39.6-89,57.1-104.4
	c4.7-4.1,11.7-4.1,16.4,0C292.6,221.1,332.2,261.3,332.2,310z"/>
</svg>
