<?xml version="1.0" encoding="utf-8"?>
<!-- Generator: Adobe Illustrator 21.0.0, SVG Export Plug-In . SVG Version: 6.00 Build 0)  -->
<svg version="1.1" id="Layer_1" xmlns="http://www.w3.org/2000/svg" xmlns:xlink="http://www.w3.org/1999/xlink" x="0px" y="0px"
	 viewBox="0 0 512 512" style="enable-background:new 0 0 512 512;" xml:space="preserve">
<style type="text/css">
	.st0{display:none;fill:#FFFFFF;}
	.st1{fill:url(#SVGID_1_);}
</style>
<path class="st0" d="M399.8,0H112.2C50.2,0,0,50.2,0,112.2v287.6C0,461.8,50.2,512,112.2,512h287.6c62,0,112.2-50.2,112.2-112.2
	V112.2C512,50.2,461.8,0,399.8,0z"/>
<linearGradient id="SVGID_1_" gradientUnits="userSpaceOnUse" x1="256" y1="0" x2="256" y2="512">
	<stop  offset="0" style="stop-color:#EAE478"/>
	<stop  offset="1" style="stop-color:#F4C634"/>
</linearGradient>
<path class="st1" d="M399.8,0H112.2C50.2,0,0,50.2,0,112.2v287.6C0,461.8,50.2,512,112.2,512h287.6c62,0,112.2-50.2,112.2-112.2
	V112.2C512,50.2,461.8,0,399.8,0z"/>
<g>
	<path d="M173,310.3c-5.5,6.1-13.6,11.1-24.2,14.8s-22.3,5.6-34.9,5.6c-19.5,0-35-6-46.7-17.9c-11.6-11.9-17.9-28.5-18.7-49.7
		l-0.1-12.9c0-14.6,2.6-27.4,7.8-38.4c5.2-10.9,12.6-19.3,22.2-25.2c9.6-5.9,20.8-8.8,33.5-8.8c18.5,0,32.9,4.2,43.2,12.7
		c10.2,8.5,16.2,21.1,17.9,37.9h-34.5c-1.2-8.3-3.9-14.2-8-17.8c-4.1-3.5-9.9-5.3-17.4-5.3c-9,0-15.9,3.8-20.8,11.4
		c-4.9,7.6-7.4,18.5-7.5,32.7v9c0,14.8,2.5,26,7.6,33.5c5.1,7.5,13.1,11.2,24,11.2c9.3,0,16.3-2.1,20.8-6.2v-23.1h-24.9v-24.6H173
		V310.3z"/>
	<path d="M193.8,328.7V180h47.9c13.1,0,25,3,35.4,8.9c10.5,6,18.7,14.4,24.6,25.2c5.9,10.9,8.9,23,8.9,36.5v6.8
		c0,13.6-2.9,25.8-8.6,36.6c-5.8,10.8-13.9,19.2-24.3,25.3c-10.5,6.1-22.1,9.2-35,9.2H193.8z M229.7,207.7v93.5h12.5
		c10.3,0,18.2-3.7,23.7-11c5.5-7.3,8.3-18.2,8.3-32.6v-6.4c0-14.4-2.8-25.2-8.3-32.5c-5.5-7.3-13.6-10.9-24.1-10.9H229.7z"/>
	<path d="M382.3,229.4l24.3-49.4h41L406,253.7l42.7,75h-41.4l-25-50.4l-25,50.4H316l42.6-75L317.1,180H358L382.3,229.4z"/>
</g>
</svg>
