<?xml version="1.0" encoding="utf-8"?>
<!-- Generator: Adobe Illustrator 21.0.0, SVG Export Plug-In . SVG Version: 6.00 Build 0)  -->
<svg version="1.1" id="Layer_1" xmlns="http://www.w3.org/2000/svg" xmlns:xlink="http://www.w3.org/1999/xlink" x="0px" y="0px"
	 viewBox="0 0 512 512" style="enable-background:new 0 0 512 512;" xml:space="preserve">
<style type="text/css">
	.st0{fill:#FFFFFF;}
	.st1{fill:#5FCDFF;}
</style>
<path class="st0" d="M399.8,0H112.2C50.2,0,0,50.2,0,112.2v287.6C0,461.8,50.2,512,112.2,512h287.6c62,0,112.2-50.2,112.2-112.2
	V112.2C512,50.2,461.8,0,399.8,0z"/>
<g>
	<path class="st1" d="M252,167.7h-0.2H252C251.9,167.7,252,167.7,252,167.7z"/>
</g>
<g>
	<path d="M248.6,327.7c-12.9,4.4-37.4,10.4-61.9,10.4c-33.8,0-58.3-8.5-75.3-25c-17-15.9-26.4-40.1-26.1-67.4
		c0.3-61.6,45.1-96.8,105.8-96.8c23.9,0,42.3,4.7,51.4,9.1l-8.8,33.5c-10.2-4.4-22.8-8-43.2-8c-34.9,0-61.3,19.8-61.3,59.9
		c0,38.2,23.9,60.8,58.3,60.8c9.6,0,17.3-1.1,20.6-2.7v-38.8h-28.6v-32.7h69V327.7z"/>
	<path d="M391.6,257.8h-68.2v44h76.2v34.4H281.3V150.9h114.4v34.4h-72.3v38.5h68.2V257.8z"/>
</g>
</svg>
