<?xml version="1.0" encoding="utf-8"?>
<!-- Generator: Adobe Illustrator 21.0.0, SVG Export Plug-In . SVG Version: 6.00 Build 0)  -->
<svg version="1.1" id="Layer_1" xmlns="http://www.w3.org/2000/svg" xmlns:xlink="http://www.w3.org/1999/xlink" x="0px" y="0px"
	 viewBox="0 0 512 512" style="enable-background:new 0 0 512 512;" xml:space="preserve">
<style type="text/css">
	.st0{fill:#FFFFFF;}
	.st1{fill:#5FCDFF;}
	.st2{fill:#FBBD00;}
	.st3{fill:#0F9D58;}
	.st4{fill:#31AA52;}
	.st5{fill:#3C79E6;}
	.st6{fill:#CF2D48;}
	.st7{fill:#EB4132;}
</style>
<path class="st0" d="M399.8,0H112.2C50.2,0,0,50.2,0,112.2v287.6C0,461.8,50.2,512,112.2,512h287.6c62,0,112.2-50.2,112.2-112.2
	V112.2C512,50.2,461.8,0,399.8,0z"/>
<g>
	<path class="st1" d="M252,167.7h-0.2H252C251.9,167.7,252,167.7,252,167.7z"/>
</g>
<g>
	<path class="st2" d="M184.6,256c0-14.7,4-28.4,11.1-40.2v-49.9h-49.9C126,191.6,115.2,223,115.2,256s10.7,64.4,30.5,90.1h49.9
		v-49.9C188.7,284.4,184.6,270.7,184.6,256z"/>
	<path class="st3" d="M263.3,334.6l-34.7,34.7l34.7,34.7c33,0,64.4-10.7,90.1-30.5v-49.9h-49.9C291.6,330.7,277.8,334.6,263.3,334.6
		z"/>
	<path class="st4" d="M195.7,296.2l-49.9,49.9c3.9,5.1,8.2,10,12.8,14.6c28,28,65.1,43.4,104.7,43.4v-69.4
		C234.6,334.6,209.4,319.2,195.7,296.2L195.7,296.2z"/>
	<path class="st5" d="M411.3,256c0-9-0.8-18-2.4-26.8l-1.3-7.1H263.3v69.4h70.2c-6.8,13.6-17.3,24.6-30,32.2l49.9,49.9
		c5.1-3.9,10-8.2,14.6-12.8C395.9,332.7,411.3,295.5,411.3,256z"/>
	<path class="st6" d="M318.9,200.4l6.1,6.1l49.1-49.1l-6.1-6.1c-28-28-65.1-43.4-104.7-43.4l-34.7,34.7l34.7,34.7
		C284.3,177.4,304,185.5,318.9,200.4z"/>
	<path class="st7" d="M263.3,177.4V108c-39.5,0-76.7,15.4-104.7,43.4c-4.6,4.6-8.9,9.5-12.8,14.6l49.9,49.9
		C209.4,192.8,234.6,177.4,263.3,177.4z"/>
</g>
</svg>
