<?xml version="1.0" encoding="utf-8"?>
<!-- Generator: Adobe Illustrator 21.0.0, SVG Export Plug-In . SVG Version: 6.00 Build 0)  -->
<svg version="1.1" id="Layer_1" xmlns="http://www.w3.org/2000/svg" xmlns:xlink="http://www.w3.org/1999/xlink" x="0px" y="0px"
	 viewBox="0 0 512 512" style="enable-background:new 0 0 512 512;" xml:space="preserve">
<style type="text/css">
	.st0{fill:#FFFFFF;}
	.st1{fill:#EA1313;}
</style>
<path class="st0" d="M399.8,0H112.2C50.2,0,0,50.2,0,112.2v287.6C0,461.8,50.2,512,112.2,512h287.6c62,0,112.2-50.2,112.2-112.2
	V112.2C512,50.2,461.8,0,399.8,0z"/>
<g id="xTFa8D_1_">
	<g>
		<path class="st1" d="M272,105c8.3,1.4,16.7,2.4,25,4.2c61.4,13.4,110.1,65.5,119,127.4c11.9,82.6-39.6,157.7-120.7,175.9
			c-82,18.4-166.1-35.3-184.1-117.5c-1.8-8.2-2.8-16.7-4.2-25c0-6.3,0-12.7,0-19c0.7-4.2,1.4-8.5,2-12.7
			c8.5-62.7,57.1-115.5,119.1-129c8.2-1.8,16.6-2.8,25-4.2C259.3,105,265.7,105,272,105z M398.5,260.7
			c0.2-75.1-60.4-135.9-135.7-136.1c-75.1-0.2-135.9,60.4-136.1,135.7c-0.1,75.2,60.4,136,135.7,136.1
			C337.6,396.5,398.3,336,398.5,260.7z"/>
		<path class="st0" d="M398.5,260.7c-0.2,75.3-60.9,135.8-136.1,135.7c-75.3-0.1-135.8-60.9-135.7-136.1
			c0.1-75.3,61-135.9,136.1-135.7C338.1,124.8,398.7,185.5,398.5,260.7z M391.8,260.7c0.1-71.2-57.7-129.3-128.8-129.5
			c-71.5-0.2-129.6,57.7-129.8,129.1c-0.1,71.3,58.2,129.6,129.4,129.5C333.8,389.7,391.7,331.8,391.8,260.7z"/>
		<path class="st1" d="M391.8,260.7c-0.1,71.1-58,129.1-129.2,129.1c-71.2,0.1-129.5-58.3-129.4-129.5
			c0.1-71.4,58.3-129.2,129.8-129.1C334.1,131.3,391.9,189.4,391.8,260.7z M338.5,347.2c-22.3-48.2-26.4-98.3-21.2-150.3
			c-11.4,0-22.1,0-33,0c1.9-14.2,3.7-27.8,5.5-41.6c-8.3,0-16,0-23.6,0c0,10.2,0,20,0,30.1c2.9,0,5.5-0.4,7.8,0.1
			c1.7,0.4,3.1,2.1,4.7,3.2c-1.5,1-2.9,2.5-4.5,2.8c-2.5,0.5-5.2,0.1-8,0.1c0,17.2,0,33.7,0,50.7c2.5,0,4.8-0.4,6.8,0.1
			c1.3,0.3,2.3,1.9,3.4,3c-1.1,1.1-2,2.7-3.3,3c-2.1,0.6-4.5,0.4-6.9,0.5c0,9.5,0,18.6,0,27.8c2.3,0.3,4.4,0.5,6.3,0.7
			c4.1,23.4,12.5,45.1,20.4,67c0.4,1.1,2,2.6,3,2.6C309.8,347.3,323.8,347.2,338.5,347.2z M241.1,197c-11.3,0-22,0-33,0
			c4.9,52,1.1,102.2-21.3,150.2c14.6,0,28.3,0.1,41.9-0.2c1.4,0,3.4-1.9,3.9-3.4c7.8-21.7,16.2-43.2,20.1-66.3
			c2.1-0.2,4.3-0.4,6.6-0.6c0-9.4,0-18.6,0-28.2c-2.6,0-4.8,0.4-6.9-0.1c-1.3-0.3-2.3-1.9-3.4-2.9c1.2-1.1,2.2-2.8,3.6-3.2
			c2-0.5,4.2-0.1,6.8-0.1c0-17.1,0-33.6,0-50.7c-3.3,0-6.3,0.3-9.2-0.1c-1.3-0.2-2.4-1.8-3.6-2.7c1.2-1.1,2.2-3,3.6-3.2
			c2.9-0.5,5.9-0.2,9.2-0.2c0-10.4,0-20.3,0-30.3c-8,0-15.6,0-23.8,0c0.9,7.1,1.7,13.8,2.6,20.5C239,182.5,240,189.4,241.1,197z"/>
		<path class="st0" d="M338.5,347.2c-14.7,0-28.7,0.1-42.6-0.1c-1,0-2.6-1.5-3-2.6c-8-21.9-16.3-43.6-20.4-67
			c-1.9-0.2-4-0.5-6.3-0.7c0-9.3,0-18.3,0-27.8c2.4-0.1,4.8,0.1,6.9-0.5c1.3-0.4,2.2-2,3.3-3c-1.1-1-2.1-2.6-3.4-3
			c-2-0.5-4.3-0.1-6.8-0.1c0-16.9,0-33.5,0-50.7c2.8,0,5.4,0.4,8-0.1c1.6-0.3,3-1.8,4.5-2.8c-1.5-1.1-3-2.8-4.7-3.2
			c-2.4-0.6-4.9-0.1-7.8-0.1c0-10.1,0-19.8,0-30.1c7.6,0,15.3,0,23.6,0c-1.8,13.7-3.6,27.3-5.5,41.6c10.9,0,21.7,0,33,0
			C312.1,248.9,316.2,299.1,338.5,347.2z M294.8,219.6c-2.7,5.2-4.3,9.7-7,13.4c-6.1,8.4-6.3,16.4,0,24.8c3.9,5.1,4.7,11.1,4.3,17.5
			c-0.4,6.3-0.2,12.7,0.1,19c0.1,1.3,1.8,2.5,2.8,3.7c0.9-1.2,2-2.2,2.7-3.5c0.4-0.6,0.1-1.6,0.1-2.5c-0.8-15.6-0.8-31,9.2-44.3
			c0.2-0.3,0.4-0.6,0.4-0.9c0-0.9,0.3-2.1-0.1-2.8C303.4,236.1,299.3,228.3,294.8,219.6z"/>
		<path class="st0" d="M241.1,197c-1.1-7.6-2.1-14.5-3-21.4c-0.9-6.7-1.7-13.4-2.6-20.5c8.2,0,15.8,0,23.8,0c0,10,0,19.8,0,30.3
			c-3.3,0-6.3-0.3-9.2,0.2c-1.3,0.2-2.4,2.1-3.6,3.2c1.2,1,2.3,2.6,3.6,2.7c2.9,0.4,5.9,0.1,9.2,0.1c0,17.1,0,33.6,0,50.7
			c-2.5,0-4.8-0.4-6.8,0.1c-1.4,0.4-2.4,2.1-3.6,3.2c1.1,1,2.1,2.6,3.4,2.9c2,0.5,4.3,0.1,6.9,0.1c0,9.7,0,18.8,0,28.2
			c-2.4,0.2-4.5,0.4-6.6,0.6c-3.9,23.1-12.3,44.6-20.1,66.3c-0.5,1.5-2.5,3.4-3.9,3.4c-13.6,0.3-27.3,0.2-41.9,0.2
			c22.4-48,26.2-98.2,21.3-150.2C219,197,229.8,197,241.1,197z M241.8,252.8C241.8,252.8,241.8,252.8,241.8,252.8
			c0-7.7,0.1-15.3-0.1-23c-0.2-6.1-4.1-10.3-9.6-10.9c-5.6-0.6-11.6,2.6-11.7,7.7c-0.5,17.3-1,34.6,0.4,51.8
			c0.4,4.8,2.1,9.4,0.6,14.5c-0.4,1.4,0.9,3.3,1.4,5c1.4-1.3,2.8-2.5,4.1-3.9c0.4-0.4,0.3-1.3,0.6-1.9c1.1-2,2.2-4,3.3-6
			c1.1,2,2.3,4,3.4,6c1.2,2.2,0.4,6.8,4.6,5.6c4.3-1.2,1.1-4.7,1-7.2c-0.1-2.8-0.8-5.7-0.4-8.4c0.4-3.3,2.2-6.5,2.5-9.9
			C242.1,265.8,241.8,259.3,241.8,252.8z"/>
		<path class="st1" d="M294.8,219.6c4.5,8.7,8.5,16.5,12.5,24.4c0.4,0.8,0.1,1.9,0.1,2.8c0,0.3-0.3,0.6-0.4,0.9
			c-10,13.3-10,28.7-9.2,44.3c0,0.8,0.3,1.8-0.1,2.5c-0.7,1.3-1.8,2.4-2.7,3.5c-1-1.2-2.7-2.4-2.8-3.7c-0.3-6.3-0.4-12.7-0.1-19
			c0.4-6.4-0.5-12.4-4.3-17.5c-6.3-8.4-6.1-16.3,0-24.8C290.5,229.2,292.2,224.7,294.8,219.6z M294.7,257.6
			c7.8-9.1,7.7-16.1-0.2-24.4C287.1,244.3,287.1,247.5,294.7,257.6z"/>
		<path class="st1" d="M241.8,252.8c0,6.5,0.3,13-0.1,19.5c-0.2,3.3-2,6.5-2.5,9.9c-0.4,2.7,0.4,5.6,0.4,8.4c0.1,2.5,3.3,6-1,7.2
			c-4.2,1.2-3.4-3.4-4.6-5.6c-1.1-2-2.2-4-3.4-6c-1.1,2-2.3,4-3.3,6c-0.3,0.6-0.2,1.4-0.6,1.9c-1.3,1.4-2.7,2.6-4.1,3.9
			c-0.5-1.7-1.8-3.6-1.4-5c1.6-5.1-0.2-9.6-0.6-14.5c-1.4-17.2-0.9-34.5-0.4-51.8c0.1-5.1,6.1-8.3,11.7-7.7
			c5.5,0.6,9.4,4.8,9.6,10.9C241.9,237.5,241.8,245.1,241.8,252.8C241.8,252.8,241.8,252.8,241.8,252.8z M225.7,248.6
			c0,9.2-0.2,18,0.2,26.7c0.1,1.7,2.9,4.4,4.6,4.5c1.8,0,5.1-2.4,5.2-3.9c0.5-9,0.2-18.1,0.2-27.3
			C232.2,248.6,229.1,248.6,225.7,248.6z M236,242.2c0-4.5,0.5-8.7-0.2-12.7c-0.4-1.9-3-4.4-5-4.8c-3.2-0.7-5.1,1.8-5.2,5.1
			c-0.1,4.1,0,8.1,0,12.3C229.4,242.2,232.5,242.2,236,242.2z"/>
		<path class="st0" d="M294.7,257.6c-7.6-10.1-7.6-13.3-0.2-24.4C302.5,241.4,302.5,248.5,294.7,257.6z"/>
		<path class="st0" d="M225.7,248.6c3.5,0,6.5,0,10.2,0c0,9.2,0.2,18.3-0.2,27.3c-0.1,1.5-3.4,3.9-5.2,3.9c-1.6,0-4.5-2.8-4.6-4.5
			C225.4,266.6,225.7,257.8,225.7,248.6z"/>
		<path class="st0" d="M236,242.2c-3.5,0-6.6,0-10.4,0c0-4.2-0.1-8.3,0-12.3c0.1-3.3,2-5.8,5.2-5.1c2,0.4,4.6,2.9,5,4.8
			C236.6,233.6,236,237.8,236,242.2z"/>
	</g>
</g>
</svg>
