<?xml version="1.0" encoding="utf-8"?>
<!-- Generator: Adobe Illustrator 21.0.0, SVG Export Plug-In . SVG Version: 6.00 Build 0)  -->
<svg version="1.1" id="Layer_1" xmlns="http://www.w3.org/2000/svg" xmlns:xlink="http://www.w3.org/1999/xlink" x="0px" y="0px"
	 viewBox="0 0 512 512" style="enable-background:new 0 0 512 512;" xml:space="preserve">
<style type="text/css">
	.st0{fill:#FFFFFF;}
	.st1{fill:#EA0043;}
</style>
<path class="st0" d="M399.8,0H112.2C50.2,0,0,50.2,0,112.2v287.6C0,461.8,50.2,512,112.2,512h287.6c62,0,112.2-50.2,112.2-112.2
	V112.2C512,50.2,461.8,0,399.8,0z"/>
<g>
	<path class="st1" d="M99,172.4c0,9.6-6.8,17.4-17.3,17.4c-10.1,0-16.9-7.8-16.7-17.4c-0.2-10.1,6.5-17.6,16.9-17.6
		S98.8,162.4,99,172.4z M65.9,315.3V203.5h32.1v111.7H65.9z"/>
	<path class="st1" d="M122.8,315.3c0.4-7.3,0.8-20.8,0.8-33.4V153h32.1v63.8h0.4c6.1-9.6,16.9-15.8,31.2-15.8
		c24.7,0,42.8,22.2,42.6,56.4c0,40.2-23.6,60.3-47.3,60.3c-12,0-23.6-4.8-31-18.1h-0.4l-1.3,15.5H122.8z M155.8,267.7
		c0,2.3,0.2,4.3,0.6,6.2c2.1,9.4,9.5,16.5,18.8,16.5c13.7,0,22.2-11.4,22.2-31.5c0-17.4-7.2-31.1-22.2-31.1
		c-8.7,0-16.7,7.1-18.8,17.1c-0.4,2.1-0.6,4.1-0.6,6.4V267.7z"/>
	<path class="st1" d="M275.2,270.5c1.1,14.4,14.1,21.3,29.1,21.3c11,0,19.8-1.6,28.5-4.6l4.2,23.5c-10.5,4.6-23.4,6.9-37.3,6.9
		c-35,0-55.1-21.9-55.1-56.9c0-28.3,16.2-59.6,52.1-59.6c33.3,0,46,28.1,46,55.8c0,5.9-0.6,11.2-1.1,13.7H275.2z M312.9,246.7
		c0-8.5-3.4-22.6-18.1-22.6c-13.5,0-19,13.3-19.8,22.6H312.9z"/>
	<path class="st1" d="M383.8,203.5L394,222c3,5.7,5.7,11.4,8.4,16.7h0.4c2.7-5.9,5.3-11.7,8-17.1l9.1-18.1h34.8l-34,53.2l34.4,58.5
		h-36.3l-10.3-20.1c-3-5.5-5.5-11.2-8-16.9h-0.6c-2.5,5.9-5.3,11.4-7.8,16.9l-9.7,20.1h-35.2l35-56.9L348,203.5H383.8z"/>
</g>
</svg>
