<?xml version="1.0" encoding="utf-8"?>
<!-- Generator: Adobe Illustrator 21.0.0, SVG Export Plug-In . SVG Version: 6.00 Build 0)  -->
<svg version="1.1" id="Layer_1" xmlns="http://www.w3.org/2000/svg" xmlns:xlink="http://www.w3.org/1999/xlink" x="0px" y="0px"
	 viewBox="0 0 512 512" style="enable-background:new 0 0 512 512;" xml:space="preserve">
<style type="text/css">
	.st0{fill:#FFFFFF;}
	.st1{fill:#319905;}
</style>
<path class="st0" d="M399.8,0H112.2C50.2,0,0,50.2,0,112.2v287.6C0,461.8,50.2,512,112.2,512h287.6c62,0,112.2-50.2,112.2-112.2
	V112.2C512,50.2,461.8,0,399.8,0z"/>
<g>
	<path class="st1" d="M117.9,161.5V338H77.8V161.5H117.9z"/>
	<path class="st1" d="M188.6,338v-72.3l-55.8-104.2h45.6l18.1,42.4c5.5,12.8,9.2,22.3,13.6,33.8h0.5c3.9-11,8.1-21.2,13.4-33.8
		l17.8-42.4h44.8l-58.1,102.9V338H188.6z"/>
	<path class="st1" d="M300.9,163.9c12.8-2.1,31.9-3.7,53.2-3.7c26.2,0,44.5,3.9,57.1,13.9c10.5,8.4,16.2,20.7,16.2,36.9
		c0,22.5-16,38-31.2,43.5v0.8c12.3,5,19.1,16.8,23.6,33c5.5,19.9,11,42.9,14.4,49.8h-40.9c-2.9-5-7.1-19.4-12.3-41.1
		c-4.7-22-12.3-28-28.5-28.3h-12V338h-39.5V163.9z M340.5,239.8h15.7c19.9,0,31.7-10,31.7-25.4c0-16.2-11-24.4-29.3-24.6
		c-9.7,0-15.2,0.8-18.1,1.3V239.8z"/>
</g>
</svg>
