<?xml version="1.0" encoding="utf-8"?>
<!-- Generator: Adobe Illustrator 21.0.0, SVG Export Plug-In . SVG Version: 6.00 Build 0)  -->
<svg version="1.1" id="Layer_1" xmlns="http://www.w3.org/2000/svg" xmlns:xlink="http://www.w3.org/1999/xlink" x="0px" y="0px"
	 viewBox="0 0 512 512" style="enable-background:new 0 0 512 512;" xml:space="preserve">
<style type="text/css">
	.st0{fill:#FFFFFF;}
	.st1{fill:#5FCDFF;}
	.st2{fill:#4CAF50;}
	.st3{fill:#F44336;}
	.st4{fill:#2196F3;}
	.st5{fill:#FFC107;}
</style>
<path class="st0" d="M399.8,0H112.2C50.2,0,0,50.2,0,112.2v287.6C0,461.8,50.2,512,112.2,512h287.6c62,0,112.2-50.2,112.2-112.2
	V112.2C512,50.2,461.8,0,399.8,0z"/>
<g>
	<path class="st1" d="M252,167.7h-0.2H252C251.9,167.7,252,167.7,252,167.7z"/>
</g>
<path class="st2" d="M270.4,255.6H397V137.4c0-4.7-3.8-8.4-8.4-8.4H270.4V255.6z"/>
<path class="st3" d="M253.6,255.6V129H135.4c-4.7,0-8.4,3.8-8.4,8.4v118.1h126.6V255.6z"/>
<path class="st4" d="M253.6,272.4H127v118.1c0,4.7,3.8,8.4,8.4,8.4h118.1V272.4H253.6z"/>
<path class="st5" d="M270.4,272.4V399h118.1c4.7,0,8.4-3.8,8.4-8.4V272.4H270.4z"/>
</svg>
