<?xml version="1.0" encoding="utf-8"?>
<!-- Generator: Adobe Illustrator 21.0.0, SVG Export Plug-In . SVG Version: 6.00 Build 0)  -->
<svg version="1.1" id="Layer_1" xmlns="http://www.w3.org/2000/svg" xmlns:xlink="http://www.w3.org/1999/xlink" x="0px" y="0px"
	 viewBox="0 0 512 512" style="enable-background:new 0 0 512 512;" xml:space="preserve">
<style type="text/css">
	.st0{fill:#FFFFFF;}
	.st1{fill:#1F99DD;}
	.st2{fill:#5FCDFF;}
</style>
<path class="st0" d="M399.8,0H112.2C50.2,0,0,50.2,0,112.2v287.6C0,461.8,50.2,512,112.2,512h287.6c62,0,112.2-50.2,112.2-112.2
	V112.2C512,50.2,461.8,0,399.8,0z"/>
<path class="st1" d="M352,128.4c-19.8,52.3-33.6,88.8-43.3,114.4c-20.5,54.1-22.3,58.9-22.3,58.9c-2.5,6.4-7.9,9.9-13.7,10.5
	c-0.6,0.1-1.2,0.1-1.7,0.1h81c6.4,0,12.8-3.6,15.4-10.6c0-0.4,65-171.7,65.6-173.3H352z"/>
<g>
	<path class="st1" d="M270.2,179.7c-3.2-7.2-10.3-12-18.3-12c-6.4,0-12.5,3.6-15.3,10.6c0,0-1.9,4.8-22.3,58.8l27.5,63.1
		c3.2,7.2,10.4,12,18.4,12h1.5c5.8-0.6,11.1-4.1,13.7-10.5c0,0,1.9-4.8,22.3-58.9L270.2,179.7z"/>
	<path class="st2" d="M252,167.7h-0.2c0,0,0.1,0,0.1,0C251.9,167.7,252,167.7,252,167.7z"/>
	<path class="st1" d="M239.8,167.7H172h-13c-6.4,0-12.8,3.6-15.4,10.6c0,0.4-65,171.7-65.6,173.3h81c19.8-52.3,33.6-88.9,43.3-114.5
		c20.5-54,22.3-58.8,22.3-58.8C227.4,171.3,233.5,167.7,239.8,167.7C239.9,167.7,239.8,167.7,239.8,167.7z"/>
</g>
</svg>
