<?xml version="1.0" encoding="utf-8"?>
<!-- Generator: Adobe Illustrator 21.0.0, SVG Export Plug-In . SVG Version: 6.00 Build 0)  -->
<svg version="1.1" id="Layer_1" xmlns="http://www.w3.org/2000/svg" xmlns:xlink="http://www.w3.org/1999/xlink" x="0px" y="0px"
	 viewBox="0 0 512 512" style="enable-background:new 0 0 512 512;" xml:space="preserve">
<style type="text/css">
	.st0{fill:#FFFFFF;}
	.st1{fill:#5FCDFF;}
	.st2{fill:#F23636;}
</style>
<path class="st0" d="M399.8,0H112.2C50.2,0,0,50.2,0,112.2v287.6C0,461.8,50.2,512,112.2,512h287.6c62,0,112.2-50.2,112.2-112.2
	V112.2C512,50.2,461.8,0,399.8,0z"/>
<g>
	<path class="st1" d="M252,167.7h-0.2H252C251.9,167.7,252,167.7,252,167.7z"/>
</g>
<g id="mzRy7o_1_">
	<g>
		<path class="st2" d="M229.7,259.6c0,30.4,0,60.9,0,91.3c0,11.2,0,22.4,0,33.6c0,1.1-0.3,1.6-1.5,1.7c-8.1,0.6-16.2,1.2-24.3,2
			c-8.1,0.9-16.1,2.1-24.1,3.1c-4.9,0.6-9.9,1.1-14.8,1.7c-0.9,0.1-1.2-0.2-1.2-1.1c0-14.7,0-29.5,0-44.2c0-23.8,0-47.7,0-71.5
			c0-21.4,0-42.8,0-64.2c0-31.9,0-63.8,0-95.7c0-1.1,0-2.2,0-3c19.1,0,38.1,0,57.1,0c1.4,0,2.8,0.1,4.2,0c1.1-0.1,1.6,0.4,2.1,1.3
			c3.7,8.4,7.5,16.7,11.3,25.1c6.5,14.4,13,28.9,19.5,43.3c6.3,14.1,12.7,28.1,19,42.2c3.1,6.8,6.1,13.6,9.2,20.3
			c0.2,0.4,0.5,0.8,0.9,1.2c0-4.1,0-8.3,0-12.4c0-39.6,0-79.2,0-118.7c0-2.2,0-2.2,2.1-2.2c20.8,0,41.5,0,62.3,0
			c1,0,1.5,0.3,1.5,1.4c0,15.1-0.1,30.2-0.1,45.3c0,17.7,0,35.3,0,53c0,30.9,0,61.7,0,92.6c0,27.7,0,55.3,0,83
			c0,1.1-0.1,2.2,0.1,3.3c0.1,1-0.2,1.3-1.2,1.2c-4.2-0.5-8.3-0.9-12.5-1.4c-6.5-0.8-12.9-2-19.4-2.6c-10.5-1.1-21.1-1.9-31.6-2.8
			c-1-0.1-1.3-0.6-1.7-1.3c-6.5-14.3-13-28.7-19.5-43c-8.9-19.6-17.7-39.2-26.6-58.8c-3.4-7.5-6.8-15.1-10.2-22.6
			c-0.1-0.3-0.3-0.6-0.4-0.8C229.9,259.5,229.8,259.6,229.7,259.6z"/>
	</g>
</g>
</svg>
