<?xml version="1.0" encoding="utf-8"?>
<!-- Generator: Adobe Illustrator 21.0.0, SVG Export Plug-In . SVG Version: 6.00 Build 0)  -->
<svg version="1.1" id="Layer_1" xmlns="http://www.w3.org/2000/svg" xmlns:xlink="http://www.w3.org/1999/xlink" x="0px" y="0px"
	 viewBox="0 0 512 512" style="enable-background:new 0 0 512 512;" xml:space="preserve">
<style type="text/css">
	.st0{fill:#FFFFFF;}
	.st1{fill:#1F0A73;}
	.st2{fill:#FF1608;}
	.st3{fill:#FB560A;}
	.st4{fill:#FDAA00;}
</style>
<path class="st0" d="M399.8,0H112.2C50.2,0,0,50.2,0,112.2v287.6C0,461.8,50.2,512,112.2,512h287.6c62,0,112.2-50.2,112.2-112.2
	V112.2C512,50.2,461.8,0,399.8,0z"/>
<path class="st1" d="M424.2,90.8c0,15.1,0.4,30.2-0.3,45.2c-0.2,4-3.2,8.2-5.7,11.7c-14.9,20.3-30.4,40.1-44.9,60.7
	c-3.7,5.3-6.2,12.7-6.2,19.1c-0.4,57-0.1,114-0.1,171c0,14.3-0.1,14.3-14.8,14.3c-19.3,0-38.5,0.4-57.7-0.4
	c-4.6-0.2-10.9-3.2-13.2-6.9c-25.1-41-49.7-82.4-74.3-123.7c-1.5-2.5-3.3-5.4-3.3-8.1c-0.3-18.3-0.2-36.6,2.3-55.8
	c5.3,8.6,10.6,17.2,15.8,25.8c25.5,42.5,50.9,85.1,76.4,127.6c5,8.3,25.9,13.5,33.4,8.1c1.7-1.2,2.8-4.3,2.8-6.6
	c0.3-35.9,0.3-71.8,0.3-107.7c0-0.5-0.9-1-2.6-2.9c-10.9,14.2-21.7,28.1-33.7,43.8c-10.9-18-20.6-34-30.2-50
	c-25.9-43.1-51.8-86.3-77.7-129.4c-0.8-1.3-1.3-3.1-2.4-3.6c-4.5-2.2-9.3-4-13.9-5.9c-1.5,3.7-4.3,7.4-4.4,11.1
	c-0.2,70.3-0.1,140.7,0,211c0,10.7,0.2,21.5,0,32.2c-0.1,6.6,2.7,9.4,9.3,9.2c10-0.2,20,0.3,30,0c6.9-0.2,10.1,2.2,10,9.6
	c-0.5,25.9,3.1,22.2-21.2,22.3c-15.2,0.1-30.4,0.1-45.5,0.1c-14.8,0-14.8,0-14.8-14.3c0-12.2,0.1-24.4,0-36.6c0-3-0.6-6.1-1.3-12.5
	C119.8,371,105.6,390,89.8,411c-1-4.6-1.8-6.8-1.8-9c-1-43.1-2-43.9,27.1-78.9c16.3-19.6,23.2-39.6,22.4-65.3
	c-1.8-54.4-0.2-108.8-0.5-163.2c-0.1-8.7,2.6-10.7,10.7-10.4c14.8,0.6,29.6,0.5,44.4,0c7.5-0.2,11.8,2.1,15.8,8.9
	c28.6,48.4,57.7,96.6,86.7,144.8c1.7,2.8,3.7,5.3,7,9.8c7.2-9.3,13-18.2,20.2-25.8c10.3-11,13.9-23.4,13.1-38.3
	c-1-18.8-0.3-37.7,0.1-56.6c0.1-7.6-2.7-10.6-10.5-10.2c-10.3,0.5-20.7,0.1-31.1,0.3c-5.5,0.1-8.2-1.6-8.1-7.6
	c0.6-30.9-4.2-24.6,23.8-25.1c15.9-0.3,31.8,0.2,47.8-0.2c7.6-0.2,10.6,2.3,10.3,10.1c-0.5,17-0.3,34.1-0.3,51.1
	c0,3.5,0.3,7.1,0.5,10.6c0.9,0.5,1.9,0.9,2.8,1.4c17.1-22.6,34.3-45.1,51.4-67.7C422.5,90,423.4,90.4,424.2,90.8z"/>
<rect x="138.3" y="432.7" class="st1" width="19.8" height="30.3"/>
<rect x="158.2" y="432.7" class="st2" width="53.5" height="30.3"/>
<rect x="211.7" y="432.7" class="st3" width="68.2" height="30.3"/>
<rect x="279.8" y="432.7" class="st4" width="87.8" height="30.3"/>
</svg>
