<?xml version="1.0" encoding="utf-8"?>
<!-- Generator: Adobe Illustrator 21.0.0, SVG Export Plug-In . SVG Version: 6.00 Build 0)  -->
<svg version="1.1" id="Layer_1" xmlns="http://www.w3.org/2000/svg" xmlns:xlink="http://www.w3.org/1999/xlink" x="0px" y="0px"
	 viewBox="0 0 512 512" style="enable-background:new 0 0 512 512;" xml:space="preserve">
<style type="text/css">
	.st0{fill:#FFFFFF;}
	.st1{fill:#004EA2;}
</style>
<path class="st0" d="M399.8,0H112.2C50.2,0,0,50.2,0,112.2v287.6C0,461.8,50.2,512,112.2,512h287.6c62,0,112.2-50.2,112.2-112.2
	V112.2C512,50.2,461.8,0,399.8,0z"/>
<g id="FeBkn5_1_">
	<g>
		<path class="st1" d="M106.7,377.8c5.7-19.7,11.4-39.4,17.2-59.1c17.6-59.9,35.2-119.8,52.8-179.7c1.1-3.7,2.5-4.9,6.5-4.8
			c24.3,0.2,48.5,0.2,72.8,0.1c3,0,4.3,0.5,5,3.9c10.8,52.7,21.7,105.3,32.6,158c0.3,1.4,0.6,2.7,1.2,5.1c0.9-2.5,1.5-3.9,2-5.4
			c15.4-52.4,30.9-104.9,46.2-157.4c0.9-3.1,2.1-4.2,5.4-4.2c16.1,0.2,32.2,0.1,48.3,0.1c1.3,0,2.5,0,4.5,0
			c-24.2,81.5-48.2,162.5-72.3,243.6c-26.3,0-52.6,0-79,0c-11.7-57.3-23.5-114.5-35.2-171.8c-1.3,1.2-1.8,2.4-2.1,3.6
			c-15.5,52.2-30.9,104.3-46.4,156.5c-1.1,3.9-2,7.8-2.9,11.8C144.5,377.8,125.6,377.8,106.7,377.8z"/>
	</g>
</g>
</svg>
