<?xml version="1.0" encoding="utf-8"?>
<!-- Generator: Adobe Illustrator 21.0.0, SVG Export Plug-In . SVG Version: 6.00 Build 0)  -->
<svg version="1.1" id="Layer_1" xmlns="http://www.w3.org/2000/svg" xmlns:xlink="http://www.w3.org/1999/xlink" x="0px" y="0px"
	 viewBox="0 0 512 512" style="enable-background:new 0 0 512 512;" xml:space="preserve">
<style type="text/css">
	.st0{fill:#FFFFFF;}
	.st1{fill:#5FCDFF;}
	.st2{fill:#4CAF50;}
</style>
<path class="st0" d="M399.8,0H112.2C50.2,0,0,50.2,0,112.2v287.6C0,461.8,50.2,512,112.2,512h287.6c62,0,112.2-50.2,112.2-112.2
	V112.2C512,50.2,461.8,0,399.8,0z"/>
<g>
	<path class="st1" d="M252,167.7h-0.2H252C251.9,167.7,252,167.7,252,167.7z"/>
</g>
<g>
	<path class="st2" d="M213.6,218.2c26.7,0,51,20.6,52,21.5c4.2,3.6,4.6,9.9,1.1,14.1s-9.9,4.7-14.1,1.1c-0.2-0.2-19.8-16.7-39-16.7
		c-0.2,0-0.3,0-0.5,0v41.4c4.1,1.2,8.5,2.1,13.5,2.1c28.6,0,62.3-23,82.6-40.7c-22.6-18.6-61-41.1-89.1-41.1c-2.3,0-4.6,0.3-7,0.6
		v17.7C213.3,218.2,213.4,218.2,213.6,218.2z"/>
	<path class="st2" d="M403.1,140h-180c-5.5,0-10,4.5-10,10v30.5c2.3-0.2,4.7-0.5,7-0.5c39.8,0,89.1,32.9,110.9,53.7
		c2,1.9,3.1,4.5,3.1,7.2s-1.1,5.3-3,7.2c-5.6,5.5-56.3,53.8-104.5,53.8c-4.8,0-9.3-0.6-13.5-1.4v18.5c2.5,0.6,4.9,1.1,7,1.1
		c27.9,0,110.1-22.7,136-48.1c3.9-3.9,10.3-3.8,14.1,0.2c3.9,3.9,3.8,10.3-0.2,14.1c-31.2,30.5-118.3,53.8-150,53.8
		c-2.2,0-4.7-0.7-7-1v31c0,5.5,4.5,10,10,10h180c5.5,0,10-4.5,10-10V150C413.1,144.5,408.6,140,403.1,140z"/>
	<path class="st2" d="M180.5,250.5c7.2-4.9,20-12.1,32.7-12.3v-20c-26.5,0.3-50.5,20.6-51.5,21.5c-3.1,2.7-4.3,6.9-2.9,10.8
		c0.6,1.9,14.9,42.1,54.5,49.9v-20.7C195.2,274.3,185,259.4,180.5,250.5z"/>
	<path class="st2" d="M118.6,244.2c7.2-3.9,14.6-8,21.9-12.3c24.9-14.2,50.5-28.7,72.6-31.4v-20.1c-26.8,2.5-55.1,18.4-82.5,34.1
		c-10.9,6.2-21.6,12.3-31.9,17.4c-2.7,1.3-4.7,3.8-5.4,6.7s0,6,1.9,8.4c34,43.4,82.3,86.7,117.9,91.9v-20.1
		C189.5,313.6,151.7,283.9,118.6,244.2z"/>
</g>
</svg>
