<?xml version="1.0" encoding="utf-8"?>
<!-- Generator: Adobe Illustrator 21.0.0, SVG Export Plug-In . SVG Version: 6.00 Build 0)  -->
<svg version="1.1" id="Layer_1" xmlns="http://www.w3.org/2000/svg" xmlns:xlink="http://www.w3.org/1999/xlink" x="0px" y="0px"
	 viewBox="0 0 512 512" style="enable-background:new 0 0 512 512;" xml:space="preserve">
<style type="text/css">
	.st0{fill:#FFE07D;}
</style>
<path class="st0" d="M399.8,0H112.2C50.2,0,0,50.2,0,112.2v287.6C0,461.8,50.2,512,112.2,512h287.6c62,0,112.2-50.2,112.2-112.2
	V112.2C512,50.2,461.8,0,399.8,0z"/>
<g>
	<g>
		<path d="M266.5,142.6c-6.8-11.6-14-11.2-20.8,0c-31.2,46.4-78.4,116-78.4,150.8c0,24.4,10,46.8,26,62.8s38.4,26,62.8,26
			c24.4,0,46.8-10,62.8-26s26-38.4,26-62.8C344.9,258.2,297.7,189,266.5,142.6z M320.1,333c-6.4,10.4-15.6,19.6-26.8,26
			c-5.2,2.8-11.6,1.2-14.4-4c-3.2-5.6-1.2-12,4-14.8c8-4.4,14.4-10.8,19.2-18.4c4.8-7.6,7.6-16.4,8-25.6c0.4-6,5.2-10.4,11.2-10
			s10.4,5.2,10,11.2C330.5,310.2,326.5,322.2,320.1,333z"/>
	</g>
</g>
</svg>
