<?xml version="1.0" encoding="utf-8"?>
<!-- Generator: Adobe Illustrator 21.0.0, SVG Export Plug-In . SVG Version: 6.00 Build 0)  -->
<svg version="1.1" id="Layer_1" xmlns="http://www.w3.org/2000/svg" xmlns:xlink="http://www.w3.org/1999/xlink" x="0px" y="0px"
	 viewBox="0 0 512 512" style="enable-background:new 0 0 512 512;" xml:space="preserve">
<style type="text/css">
	.st0{fill:url(#SVGID_1_);}
	.st1{fill:#FFFFFF;}
</style>
<linearGradient id="SVGID_1_" gradientUnits="userSpaceOnUse" x1="256" y1="512" x2="256" y2="-9.094947e-13">
	<stop  offset="0" style="stop-color:#A93AFF"/>
	<stop  offset="1" style="stop-color:#FF81FF"/>
</linearGradient>
<path class="st0" d="M399.8,0H112.2C50.2,0,0,50.2,0,112.2v287.6C0,461.8,50.2,512,112.2,512h287.6c62,0,112.2-50.2,112.2-112.2
	V112.2C512,50.2,461.8,0,399.8,0z"/>
<g id="Palladium">
	<g>
		<g>
			<path class="st1" d="M176,152h45v45c0,8.3,6.7,15,15,15s15-6.7,15-15V77c0-8.3-6.7-15-15-15s-15,6.7-15,15v45h-30V77
				c0-8.3-6.7-15-15-15s-15,6.7-15,15v60C161,145.3,167.7,152,176,152z M281.3,167.2C281.3,167.2,281.3,167.2,281.3,167.2
				c0.1,24.8,20.3,44.8,45,44.8c24.8,0,45-20.2,45-45s-20.2-45-45-45c-5.3,0-10.5,0.9-15.2,2.7c0.1-10.7,0.6-20.2,1.5-23.8
				c2.4-5.4,7.8-8.9,13.7-8.9c6,0,11.5,3.6,13.8,9.2c3.2,7.6,12,11.2,19.7,8c7.6-3.2,11.2-12,8-19.7C360.7,72.8,344.4,62,326.3,62
				s-34.4,10.8-41.5,27.5c-3.8,9-4.2,29.1-3.6,70.7C281.2,162.7,281.3,165,281.3,167.2L281.3,167.2z M326.3,152c8.3,0,15,6.7,15,15
				s-6.7,15-15,15s-15-6.7-15-15S318,152,326.3,152z M206,242h-45c-8.3,0-15,6.7-15,15v180c0,8.3,6.7,15,15,15s15-6.7,15-15v-75h30
				c33.1,0,60-26.9,60-60S239.1,242,206,242z M206,332h-30v-60h30c16.5,0,30,13.5,30,30S222.5,332,206,332z M371,272
				c-8.3,0-15,6.7-15,15v53.1c-8.8-5.1-19.1-8.1-30-8.1c-33.1,0-60,26.9-60,60s26.9,60,60,60c11.5,0,22.2-3.2,31.3-8.9
				c2.3,5.2,7.6,8.9,13.7,8.9c8.3,0,15-6.7,15-15V287C386,278.7,379.3,272,371,272z M326,422c-16.5,0-30-13.5-30-30s13.5-30,30-30
				s30,13.5,30,30S342.5,422,326,422z"/>
		</g>
	</g>
</g>
</svg>
