<?xml version="1.0" encoding="utf-8"?>
<!-- Generator: Adobe Illustrator 21.0.0, SVG Export Plug-In . SVG Version: 6.00 Build 0)  -->
<svg version="1.1" id="Layer_1" xmlns="http://www.w3.org/2000/svg" xmlns:xlink="http://www.w3.org/1999/xlink" x="0px" y="0px"
	 viewBox="0 0 512 512" style="enable-background:new 0 0 512 512;" xml:space="preserve">
<style type="text/css">
	.st0{fill:#FFFFFF;}
	.st1{fill:#0B2576;}
</style>
<path class="st0" d="M399.8,0H112.2C50.2,0,0,50.2,0,112.2v287.6C0,461.8,50.2,512,112.2,512h287.6c62,0,112.2-50.2,112.2-112.2
	V112.2C512,50.2,461.8,0,399.8,0z"/>
<g id="H6NoWM_1_">
	<g>
		<path class="st1" d="M288,202.3c23.8,0,46.6-0.3,69.3,0.2c7.7,0.2,10.1-3,11.9-9.9c10.7-42.6-14.6-78-59.9-79.6
			c-45.1-1.7-90.2-0.6-135.3-0.4c-2.9,0-7.7,1.5-8.5,3.6c-6.9,17.9-13.1,36-20.1,55.6c6.7,0,11.4,0,16.1,0
			c34.4,0,68.7-0.2,103.1,0.1C289,171.9,293.9,178.3,288,202.3z M370.7,381.9c-21.2-37.9-41.5-74.2-62.1-110.4
			c-1.4-2.5-4.8-5.6-7.4-5.6c-26.1-0.4-52.2-0.3-80-0.3c21.2,58.1,53.1,107.4,90.7,154.6C332.7,406.6,352.8,393.5,370.7,381.9z
			 M210,379c3.2-37.9,6.3-74.9,9.4-111.1c-2.7-1.3-3.4-1.9-4.2-1.9c-12.9-0.2-25.8-0.4-38.7-0.4c-25.7-0.1-26.2-0.1-28.8,25.5
			c-3,29-5,58-7.5,88C164.4,379,186.9,379,210,379z M341.4,238.3c-27.6,0-51.6,1.1-75.5-0.4c-17.6-1.1-27.6,9.4-41.9,20.7
			c28.2,0,53-1,77.7,0.3C318.4,259.8,328.6,251.5,341.4,238.3z M261.9,231c25.9,0,50.4,0,74.8,0c15.1,0,20.1-4.4,23.6-21.2
			c-18.6,0-37.1,1.4-55.4-0.4C286.1,207.6,273.1,214.3,261.9,231z M226.7,181.2c-23.6,0-46.1,0-69.3,0c-0.4,7-0.8,13.2-1.2,20.3
			c23.5,0,46,0,69.4,0C226,195,226.3,189.1,226.7,181.2z M223.4,210.6c-23.2,0-45.4,0-68.5,0c0,6.9,0,13,0,19.2
			c23.1,0,45.6,0,68.5,0C223.4,223.1,223.4,217.6,223.4,210.6z M151.4,257.6c24,0,46.5,0,69.4,0c0-6.5,0-11.9,0-18.3
			c-22.8,0-45.2,0-68.5,0C152,245.4,151.7,250.8,151.4,257.6z"/>
		<path class="st1" d="M288,202.3c5.9-24,1-30.4-23.5-30.6c-34.4-0.3-68.7-0.1-103.1-0.1c-4.7,0-9.4,0-16.1,0
			c7-19.6,13.2-37.7,20.1-55.6c0.8-2,5.6-3.6,8.5-3.6c45.1-0.1,90.3-1.2,135.3,0.4c45.2,1.7,70.5,37,59.9,79.6
			c-1.7,6.9-4.1,10.1-11.9,9.9C334.6,202,311.8,202.3,288,202.3z"/>
		<path class="st1" d="M370.7,381.9c-17.9,11.7-38,24.7-58.8,38.3c-37.6-47.2-69.5-96.5-90.7-154.6c27.8,0,53.9-0.2,80,0.3
			c2.5,0,5.9,3.1,7.4,5.6C329.2,307.7,349.4,344,370.7,381.9z"/>
		<path class="st1" d="M210,379c-23.1,0-45.6,0-69.7,0c2.5-30,4.5-59,7.5-88c2.6-25.5,3.1-25.5,28.8-25.5c12.9,0,25.8,0.2,38.7,0.4
			c0.8,0,1.5,0.7,4.2,1.9C216.4,304.2,213.3,341.1,210,379z"/>
		<path class="st1" d="M341.4,238.3c-12.8,13.3-23.1,21.6-39.7,20.7c-24.7-1.3-49.5-0.3-77.7-0.3c14.4-11.3,24.3-21.8,41.9-20.7
			C289.8,239.4,313.8,238.3,341.4,238.3z"/>
		<path class="st1" d="M261.9,231c11.1-16.8,24.2-23.5,43-21.6c18.2,1.8,36.8,0.4,55.4,0.4c-3.4,16.8-8.5,21.1-23.6,21.2
			C312.3,231,287.9,231,261.9,231z"/>
		<path class="st1" d="M226.7,181.2c-0.4,7.9-0.8,13.8-1.1,20.3c-23.4,0-45.9,0-69.4,0c0.4-7.1,0.8-13.4,1.2-20.3
			C180.7,181.2,203.1,181.2,226.7,181.2z"/>
		<path class="st1" d="M223.4,210.6c0,7,0,12.5,0,19.2c-22.9,0-45.4,0-68.5,0c0-6.2,0-12.3,0-19.2
			C178,210.6,200.2,210.6,223.4,210.6z"/>
		<path class="st1" d="M151.4,257.6c0.3-6.8,0.6-12.2,0.9-18.3c23.3,0,45.7,0,68.5,0c0,6.4,0,11.9,0,18.3
			C197.8,257.6,175.4,257.6,151.4,257.6z"/>
	</g>
</g>
</svg>
