<?xml version="1.0" encoding="utf-8"?>
<!-- Generator: Adobe Illustrator 21.0.0, SVG Export Plug-In . SVG Version: 6.00 Build 0)  -->
<svg version="1.1" id="Layer_1" xmlns="http://www.w3.org/2000/svg" xmlns:xlink="http://www.w3.org/1999/xlink" x="0px" y="0px"
	 viewBox="0 0 512 512" style="enable-background:new 0 0 512 512;" xml:space="preserve">
<style type="text/css">
	.st0{fill:#FFFFFF;}
	.st1{fill:#EA1313;}
</style>
<path class="st0" d="M399.8,0H112.2C50.2,0,0,50.2,0,112.2v287.6C0,461.8,50.2,512,112.2,512h287.6c62,0,112.2-50.2,112.2-112.2
	V112.2C512,50.2,461.8,0,399.8,0z"/>
<g>
	<path class="st1" d="M77.4,328c-10.6-3.3-19.2-7.8-25.8-13.3L64.5,280c6.2,4.9,13.4,8.9,21.6,11.9s16.3,4.5,24.2,4.5
		c15.1,0,22.6-4.5,22.6-13.5c0-4.8-2.2-8.3-6.4-10.6c-4.3-2.3-11.2-4.7-20.7-7.2c-10.4-2.7-19.2-5.6-26.2-8.7s-13-8-18.1-14.9
		c-5-6.8-7.5-16-7.5-27.6c0-10.1,2.3-19.3,6.9-27.5s11.5-14.6,20.7-19.4c9.2-4.8,20.5-7.1,33.8-7.1c9.1,0,18.1,1.2,27,3.7
		s16.7,6.1,23.4,10.8l-12.1,34.9c-13.2-8.6-26.1-12.8-38.5-12.8c-7.8,0-13.5,1.4-17.1,4.2s-5.4,6.4-5.4,10.8c0,4.4,2.1,7.8,6.3,10
		c4.2,2.2,11,4.5,20.4,6.9c10.6,2.7,19.3,5.6,26.3,8.7c6.9,3.1,13,8,18.1,14.7s7.6,15.9,7.6,27.5c0,10-2.3,19-6.9,27.1
		c-4.6,8.1-11.6,14.5-20.8,19.4c-9.3,4.8-20.5,7.2-33.7,7.2C98.9,333,88,331.3,77.4,328z"/>
	<path class="st1" d="M299.6,332.5l-15.7-16.6c-6.5,5.5-13.7,9.8-21.6,12.7c-7.9,2.9-16.3,4.4-25,4.4c-10.4,0-19.9-2-28.4-6.1
		c-8.5-4-15.1-9.6-19.8-16.8c-4.8-7.1-7.1-15.1-7.1-24c0-10.5,2.3-19.6,6.9-27.5c4.6-7.8,12-15,22-21.5
		c-8.9-10.8-13.3-21.9-13.3-33.5c0-8.4,1.9-15.8,5.8-22.3c3.8-6.5,9.3-11.5,16.4-15.1c7.1-3.6,15.2-5.3,24.5-5.3
		c12.8,0,23.2,3.6,31,10.8c7.9,7.2,11.8,16.9,11.8,29.1c0,8.6-2.1,16.2-6.2,22.8c-4.2,6.7-10.7,12.9-19.5,18.8l20.2,21.6
		c2.6-7,4.7-14.9,6.1-23.8l30.3,10.9c-2.6,14.3-6.9,26.9-12.9,37.8l14.7,15.7L299.6,332.5z M261.3,291.6l-30-31.9
		c-4.4,3.2-7.5,6.5-9.5,9.9s-3,7.2-3,11.5c0,5.1,1.9,9.2,5.8,12.5c3.8,3.2,9,4.9,15.5,4.9C247.7,298.5,254.8,296.2,261.3,291.6z
		 M235.2,194.1c-2.2,2.3-3.3,5.3-3.3,8.9c0,2.7,0.6,5.3,1.9,7.7c1.3,2.5,3.6,5.7,7,9.6c5.3-3.3,9-6.5,11.2-9.4s3.3-6,3.3-9.2
		c0-3.5-1-6.2-2.9-8.2s-4.7-3-8.2-3C240.4,190.6,237.4,191.8,235.2,194.1z"/>
	<path class="st1" d="M435,170.8c9.3,5,16.4,12.1,21.4,21.4c5,9.3,7.5,20.2,7.5,32.7s-2.5,23.4-7.5,32.6s-12.2,16.3-21.4,21.3
		c-9.3,5-20.2,7.5-32.7,7.5h-24.2v43.5h-39.3V163.3h63.5C414.9,163.3,425.8,165.8,435,170.8z M418.2,242.8
		c4.1-4.2,6.1-10.2,6.1-17.9c0-7.8-2.1-13.8-6.1-18.1c-4.1-4.3-10.2-6.4-18.2-6.4h-21.8v48.7H400C408,249.1,414.1,247,418.2,242.8z"
		/>
</g>
</svg>
