<?xml version="1.0" encoding="utf-8"?>
<!-- Generator: Adobe Illustrator 21.0.0, SVG Export Plug-In . SVG Version: 6.00 Build 0)  -->
<svg version="1.1" id="Layer_1" xmlns="http://www.w3.org/2000/svg" xmlns:xlink="http://www.w3.org/1999/xlink" x="0px" y="0px"
	 viewBox="0 0 512 512" style="enable-background:new 0 0 512 512;" xml:space="preserve">
<style type="text/css">
	.st0{fill:url(#SVGID_1_);}
</style>
<linearGradient id="SVGID_1_" gradientUnits="userSpaceOnUse" x1="0" y1="766" x2="512" y2="766" gradientTransform="matrix(1 0 0 1 0 -510)">
	<stop  offset="0" style="stop-color:#C6C6C6"/>
	<stop  offset="0.5656" style="stop-color:#FFFFFF"/>
	<stop  offset="1" style="stop-color:#CCCCCC"/>
</linearGradient>
<path class="st0" d="M399.8,0H112.2C50.2,0,0,50.2,0,112.2v287.6C0,461.8,50.2,512,112.2,512h287.6c62,0,112.2-50.2,112.2-112.2
	V112.2C512,50.2,461.8,0,399.8,0z"/>
<path d="M62.5,352.5c5.7-12.7,11.5-25.4,17.2-38.1c6.5-14.6,13-29.2,19.4-43.8c1-2.2,2.1-2.9,4.4-2.9c40.5,0.1,81,0.1,121.5,0
	c2.8,0,3.9,1,4.9,3.4c7.4,16.9,14.9,33.8,22.5,50.6c0.6,1.2,1.2,2.5,2.1,4.5c0.8-1.6,1.4-2.7,1.9-3.9c7.6-17.1,15.3-34.2,22.8-51.3
	c1.1-2.4,2.3-3.3,4.9-3.3c40.4,0.1,80.7,0.1,121.1,0c2.7,0,3.9,0.9,4.9,3.3c11.5,26,23.1,52,34.6,78c4.5,10.2-0.4,17.7-11.6,17.7
	c-118.6,0-237.2,0-355.8,0.1c-6.9,0-11.8-2-14.7-8.3C62.5,356.5,62.5,354.5,62.5,352.5z"/>
<path d="M352.2,245.1c-65.3,0-130.2,0-195.5,0c0.6-1.4,1-2.5,1.5-3.6c12.8-28.9,25.7-57.7,38.4-86.6c2.6-6,6.7-8.7,13.3-8.7
	c30,0.1,60,0.1,90,0c5.6,0,9.5,2.3,11.8,7.5c13.2,29.8,26.4,59.5,39.7,89.3C351.7,243.5,351.9,244.1,352.2,245.1z"/>
</svg>
