<?xml version="1.0" encoding="utf-8"?>
<!-- Generator: Adobe Illustrator 21.0.0, SVG Export Plug-In . SVG Version: 6.00 Build 0)  -->
<svg version="1.1" id="Layer_1" xmlns="http://www.w3.org/2000/svg" xmlns:xlink="http://www.w3.org/1999/xlink" x="0px" y="0px"
	 viewBox="0 0 512 512" style="enable-background:new 0 0 512 512;" xml:space="preserve">
<style type="text/css">
	.st0{fill:#FFFFFF;}
	.st1{fill:#AED44D;}
	.st2{fill:#80BF3B;}
	.st3{fill:#D8EA66;}
</style>
<path class="st0" d="M399.8,0H112.2C50.2,0,0,50.2,0,112.2v287.6C0,461.8,50.2,512,112.2,512h287.6c62,0,112.2-50.2,112.2-112.2
	V112.2C512,50.2,461.8,0,399.8,0z"/>
<g id="XMLID_940_">
	<g id="XMLID_981_">
		<path id="XMLID_2390_" class="st1" d="M174.7,423.7c-11.6,0-23-2.3-33.8-6.9l-18-7.6c-2.2-0.9-4-2.7-4.9-4.9l-7.6-18.1
			c-6.8-16-8.6-33.5-5.3-50.5c3.3-17,11.6-32.5,23.9-44.8l5.7-5.7c12.5-12.4,28.5-20,45.7-21.8c1.8-17.3,9.3-33.3,21.8-45.7l9-9
			c12.5-12.4,28.5-20,45.7-21.8c1.8-17.3,9.3-33.3,21.8-45.7l5.7-5.7c12.3-12.3,27.8-20.5,44.8-23.9c17-3.3,34.5-1.5,50.5,5.3
			l18,7.6c2.2,0.9,4,2.7,4.9,4.9l7.6,18.1c6.8,16,8.6,33.5,5.3,50.5c-3.3,17-11.6,32.5-23.9,44.8l-5.7,5.7
			c-12.5,12.4-28.5,20-45.7,21.8c-1.8,17.3-9.3,33.3-21.8,45.7l-9,9c0,0,0,0,0,0c-12.4,12.4-28.5,20-45.7,21.8
			c-1.8,17.3-9.3,33.3-21.8,45.7l-5.7,5.7c-12.3,12.3-27.8,20.5-44.8,23.9C185.8,423.2,180.2,423.7,174.7,423.7L174.7,423.7z"/>
	</g>
	<path id="XMLID_164_" class="st2" d="M191.4,422.1c17-3.3,32.5-11.6,44.8-23.9l5.7-5.7c12.4-12.4,20-28.4,21.8-45.7
		c17.3-1.8,33.3-9.4,45.7-21.8c0,0,0,0,0,0l9-9c12.4-12.4,20-28.4,21.8-45.7c17.3-1.8,33.3-9.4,45.7-21.8l5.7-5.7
		c12.3-12.3,20.5-27.8,23.9-44.8c3.3-17,1.5-34.5-5.3-50.5l-7.6-18.1c-0.5-1.1-1.1-2.1-2-2.9L119.9,407.3c0.8,0.8,1.8,1.5,2.9,2
		l18,7.6c10.8,4.6,22.3,6.9,33.8,6.9C180.2,423.7,185.8,423.2,191.4,422.1L191.4,422.1z"/>
	<g id="XMLID_1324_">
		<path id="XMLID_2399_" class="st3" d="M179.2,385.8c-10.1,0-19.6-3.9-26.8-11.1c-7.1-7.1-11.1-16.6-11.1-26.8
			c0-10.1,3.9-19.6,11.1-26.8l9-9c7.1-7.1,16.6-11.1,26.8-11.1c10.1,0,19.6,3.9,26.8,11.1c7.1,7.1,11.1,16.6,11.1,26.8
			c0,10.1-3.9,19.6-11.1,26.8h0l-9,9C198.8,381.8,189.3,385.8,179.2,385.8z"/>
	</g>
	<g id="XMLID_941_">
		<path id="XMLID_2396_" class="st3" d="M255.8,309.2c-9.7,0-19.4-3.7-26.8-11.1c-14.8-14.8-14.8-38.8,0-53.5l9-9
			c14.8-14.8,38.8-14.8,53.5,0c14.8,14.8,14.8,38.8,0,53.5l-9,9C275.2,305.5,265.5,309.2,255.8,309.2L255.8,309.2z"/>
	</g>
	<g id="XMLID_942_">
		<path id="XMLID_2393_" class="st3" d="M332.3,232.7c-10.1,0-19.6-3.9-26.8-11.1c-7.1-7.1-11.1-16.6-11.1-26.8
			c0-10.1,3.9-19.6,11.1-26.8l9-9c7.1-7.1,16.6-11.1,26.8-11.1c10.1,0,19.6,3.9,26.8,11.1c7.1,7.1,11.1,16.6,11.1,26.8
			c0,10.1-3.9,19.6-11.1,26.8v0l-9,9C351.9,228.7,342.4,232.7,332.3,232.7L332.3,232.7z"/>
	</g>
	<g>
		<path id="XMLID_47_" class="st1" d="M179.2,385.8c10.1,0,19.6-3.9,26.8-11.1l9-9h0c7.1-7.1,11.1-16.6,11.1-26.8
			c0-10.1-3.9-19.6-11.1-26.8l-62.5,62.5C159.6,381.8,169.1,385.8,179.2,385.8z"/>
		<path id="XMLID_67_" class="st1" d="M255.8,309.2c9.7,0,19.4-3.7,26.8-11.1l9-9c14.8-14.8,14.8-38.8,0-53.5L229,298.1
			C236.4,305.5,246.1,309.2,255.8,309.2L255.8,309.2z"/>
		<path id="XMLID_141_" class="st1" d="M332.3,232.7c10.1,0,19.6-3.9,26.8-11.1l9-9c0,0,0,0,0,0c7.1-7.1,11.1-16.6,11.1-26.8
			c0-10.1-3.9-19.6-11.1-26.8l-62.5,62.5C312.7,228.7,322.2,232.7,332.3,232.7L332.3,232.7z"/>
	</g>
</g>
</svg>
