<?xml version="1.0" encoding="utf-8"?>
<!-- Generator: Adobe Illustrator 21.0.0, SVG Export Plug-In . SVG Version: 6.00 Build 0)  -->
<svg version="1.1" id="Layer_1" xmlns="http://www.w3.org/2000/svg" xmlns:xlink="http://www.w3.org/1999/xlink" x="0px" y="0px"
	 viewBox="0 0 512 512" style="enable-background:new 0 0 512 512;" xml:space="preserve">
<style type="text/css">
	.st0{fill:#FFFFFF;}
	.st1{fill:#1F99DD;}
</style>
<path class="st0" d="M399.8,0H112.2C50.2,0,0,50.2,0,112.2v287.6C0,461.8,50.2,512,112.2,512h287.6c62,0,112.2-50.2,112.2-112.2
	V112.2C512,50.2,461.8,0,399.8,0z"/>
<g>
	<path class="st1" d="M81.1,291.3c9.2,4.7,23.5,9.5,38.1,9.5c15.8,0,24.1-6.5,24.1-16.5c0-9.5-7.2-14.9-25.5-21.4
		c-25.3-8.8-41.7-22.8-41.7-44.9c0-25.9,21.7-45.8,57.5-45.8c17.1,0,29.8,3.6,38.8,7.7l-7.7,27.7c-6.1-2.9-16.9-7.2-31.8-7.2
		s-22.1,6.8-22.1,14.7c0,9.7,8.6,14,28.2,21.4c26.8,9.9,39.5,23.9,39.5,45.3c0,25.5-19.6,47.1-61.3,47.1c-17.4,0-34.5-4.5-43.1-9.2
		L81.1,291.3z"/>
	<path class="st1" d="M201.8,176.7c10.6-1.8,25.5-3.2,46.5-3.2c21.2,0,36.3,4.1,46.5,12.2c9.7,7.7,16.2,20.3,16.2,35.2
		c0,14.9-5,27.5-14,36.1c-11.7,11-29.1,16-49.4,16c-4.5,0-8.6-0.2-11.7-0.7v54.4h-34.1V176.7z M235.9,245.8
		c2.9,0.7,6.5,0.9,11.5,0.9c18.3,0,29.5-9.2,29.5-24.8c0-14-9.7-22.3-26.8-22.3c-7,0-11.7,0.7-14.2,1.4V245.8z"/>
	<path class="st1" d="M363.5,326.7v-62.2l-48-89.8h39.2l15.6,36.5c4.7,11.1,7.9,19.2,11.7,29.1h0.5c3.4-9.5,7-18.3,11.5-29.1
		l15.3-36.5h38.6l-50.1,88.6v63.4H363.5z"/>
</g>
</svg>
