<?xml version="1.0" encoding="utf-8"?>
<!-- Generator: Adobe Illustrator 21.0.0, SVG Export Plug-In . SVG Version: 6.00 Build 0)  -->
<svg version="1.1" id="Layer_1" xmlns="http://www.w3.org/2000/svg" xmlns:xlink="http://www.w3.org/1999/xlink" x="0px" y="0px"
	 viewBox="0 0 512 512" style="enable-background:new 0 0 512 512;" xml:space="preserve">
<style type="text/css">
	.st0{fill:#87C7FF;}
	.st1{fill:#FFFFFF;}
</style>
<path class="st0" d="M399.8,0H112.2C50.2,0,0,50.2,0,112.2v287.6C0,461.8,50.2,512,112.2,512h287.6c62,0,112.2-50.2,112.2-112.2
	V112.2C512,50.2,461.8,0,399.8,0z"/>
<g>
	<path class="st1" d="M197,255.9h-86.4c-7.1,0-12.8,5.7-12.8,12.8v86.4c0,7.1,5.7,12.8,12.8,12.8H197c7.1,0,12.8-5.7,12.8-12.8
		v-86.4C209.8,261.7,204.1,255.9,197,255.9z M131.7,336.6c-5,0-8.7-4.1-8.9-8.9c-0.2-4.8,4.3-8.9,8.9-8.9c5,0,8.7,4.1,8.9,8.9
		C140.8,332.4,136.4,336.6,131.7,336.6z M153.8,305.3c-5,0-8.7-4.1-8.9-8.9s4.3-8.9,8.9-8.9c5,0,8.7,4.1,8.9,8.9
		C162.9,301.2,158.5,305.3,153.8,305.3z M175.9,336.6c-5,0-8.7-4.1-8.9-8.9s4.3-8.9,8.9-8.9c5,0,8.7,4.1,8.9,8.9
		C185,332.4,180.6,336.6,175.9,336.6z"/>
	<path class="st1" d="M389.7,255.9h-86.4c-7.1,0-12.8,5.7-12.8,12.8v86.4c0,7.1,5.7,12.8,12.8,12.8h86.4c7.1,0,12.8-5.7,12.8-12.8
		v-86.4C402.6,261.7,396.8,255.9,389.7,255.9z M324.4,336.6c-5,0-8.7-4.1-8.9-8.9c-0.2-4.8,4.3-8.9,8.9-8.9c5,0,8.7,4.1,8.9,8.9
		C333.6,332.4,329.1,336.6,324.4,336.6z M346.5,305.3c-5,0-8.7-4.1-8.9-8.9c-0.2-4.8,4.3-8.9,8.9-8.9c5,0,8.7,4.1,8.9,8.9
		C355.7,301.2,351.2,305.3,346.5,305.3z M368.6,336.6c-5,0-8.7-4.1-8.9-8.9c-0.2-4.8,4.3-8.9,8.9-8.9c5,0,8.7,4.1,8.9,8.9
		C377.8,332.4,373.3,336.6,368.6,336.6z"/>
	<path class="st1" d="M293.4,126H207c-7.1,0-12.8,5.7-12.8,12.8v86.4c0,7.1,5.7,12.8,12.8,12.8h86.4c7.1,0,12.8-5.7,12.8-12.8v-86.4
		C306.2,131.7,300.4,126,293.4,126z M228,206.6c-5,0-8.7-4.1-8.9-8.9c-0.2-4.8,4.3-8.9,8.9-8.9c5,0,8.7,4.1,8.9,8.9
		C237.2,202.5,232.7,206.6,228,206.6z M250.2,175.3c-5,0-8.7-4.1-8.9-8.9c-0.2-4.8,4.3-8.9,8.9-8.9c5,0,8.7,4.1,8.9,8.9
		C259.3,171.2,254.8,175.3,250.2,175.3z M272.3,206.6c-5,0-8.7-4.1-8.9-8.9c-0.2-4.8,4.3-8.9,8.9-8.9c5,0,8.7,4.1,8.9,8.9
		C281.4,202.5,276.9,206.6,272.3,206.6z"/>
</g>
</svg>
