<?xml version="1.0" encoding="utf-8"?>
<!-- Generator: Adobe Illustrator 21.0.0, SVG Export Plug-In . SVG Version: 6.00 Build 0)  -->
<svg version="1.1" id="Layer_1" xmlns="http://www.w3.org/2000/svg" xmlns:xlink="http://www.w3.org/1999/xlink" x="0px" y="0px"
	 viewBox="0 0 512 512" style="enable-background:new 0 0 512 512;" xml:space="preserve">
<style type="text/css">
	.st0{fill:#FFFFFF;}
	.st1{fill:#5FCDFF;}
</style>
<path class="st0" d="M399.8,0H112.2C50.2,0,0,50.2,0,112.2v287.6C0,461.8,50.2,512,112.2,512h287.6c62,0,112.2-50.2,112.2-112.2
	V112.2C512,50.2,461.8,0,399.8,0z"/>
<g>
	<path class="st1" d="M252,167.7h-0.2H252C251.9,167.7,252,167.7,252,167.7z"/>
</g>
<path d="M392.7,132.9H284.6l-30.9,77.3l-30.9-77.3H114.6c-17.1,0-30.9,13.8-30.9,30.9v61.8c0-17.1,13.8-30.9,30.9-30.9h54.1
	l85,216.3l85-216.3h54.1c17.1,0,30.9,13.8,30.9,30.9v-61.8C423.6,146.7,409.8,132.9,392.7,132.9z"/>
</svg>
