<?xml version="1.0" encoding="utf-8"?>
<!-- Generator: Adobe Illustrator 21.0.0, SVG Export Plug-In . SVG Version: 6.00 Build 0)  -->
<svg version="1.1" id="Layer_1" xmlns="http://www.w3.org/2000/svg" xmlns:xlink="http://www.w3.org/1999/xlink" x="0px" y="0px"
	 viewBox="0 0 512 512" style="enable-background:new 0 0 512 512;" xml:space="preserve">
<style type="text/css">
	.st0{fill:url(#SVGID_1_);}
	.st1{fill:#EDDE51;}
</style>
<radialGradient id="SVGID_1_" cx="256" cy="256" r="256" gradientUnits="userSpaceOnUse">
	<stop  offset="0" style="stop-color:#64C0FF"/>
	<stop  offset="1" style="stop-color:#4D61EF"/>
</radialGradient>
<path class="st0" d="M399.8,0H112.2C50.2,0,0,50.2,0,112.2v287.6C0,461.8,50.2,512,112.2,512h287.6c62,0,112.2-50.2,112.2-112.2
	V112.2C512,50.2,461.8,0,399.8,0z"/>
<path class="st1" d="M362.9,279c-2.2,0.2-55,4.6-76.7,26.2c-21.7,21.7-26.1,74.4-26.2,76.7c-0.4,5.1,4,9.5,9.1,9
	c2.2-0.2,55-4.6,76.7-26.2c21.7-21.7,26.1-74.4,26.2-76.7C372.4,283,368,278.6,362.9,279z"/>
<path class="st1" d="M260,278.8c-0.4,5.1,4,9.5,9.1,9.1c2.2-0.2,55-4.6,76.7-26.2c21.7-21.7,26.1-74.4,26.2-76.7
	c0.4-5.1-4-9.4-9-9.1c-2.2,0.2-55,4.6-76.7,26.2C264.6,223.8,260.2,276.6,260,278.8z"/>
<path class="st1" d="M261.4,220.5c1.5-1.7,35.7-42.1,35.7-72.8S262.9,76.7,261.4,75c-3.3-3.9-9.5-3.9-12.8,0
	c-1.5,1.7-35.7,42.1-35.7,72.8s34.2,71.1,35.7,72.8C251.9,224.4,258.1,224.4,261.4,220.5z"/>
<path class="st1" d="M250,381.9c-0.2-2.2-4.6-55-26.2-76.7c-21.7-21.7-74.4-26.1-76.7-26.2c-5.1-0.4-9.4,4-9.1,9.1
	c0.2,2.2,4.6,55,26.2,76.7c21.7,21.7,74.4,26.1,76.7,26.2C246,391.3,250.4,387,250,381.9z"/>
<path class="st1" d="M240.9,287.9c5.1,0.4,9.5-4,9.1-9.1c-0.2-2.2-4.6-55-26.2-76.7c-21.7-21.7-74.4-26.1-76.7-26.2
	c-5.1-0.4-9.5,4-9.1,9.1c0.2,2.2,4.6,55,26.2,76.7C185.9,283.3,238.7,287.7,240.9,287.9z"/>
<path class="st1" d="M238.2,400.2h33.7v75.7h-33.7V400.2z"/>
</svg>
