<?xml version="1.0" encoding="utf-8"?>
<!-- Generator: Adobe Illustrator 21.0.0, SVG Export Plug-In . SVG Version: 6.00 Build 0)  -->
<svg version="1.1" id="Layer_1" xmlns="http://www.w3.org/2000/svg" xmlns:xlink="http://www.w3.org/1999/xlink" x="0px" y="0px"
	 viewBox="0 0 512 512" style="enable-background:new 0 0 512 512;" xml:space="preserve">
<style type="text/css">
	.st0{fill:url(#SVGID_1_);}
	.st1{fill:#FFFFFF;}
</style>
<linearGradient id="SVGID_1_" gradientUnits="userSpaceOnUse" x1="256" y1="0" x2="256" y2="512">
	<stop  offset="0" style="stop-color:#7191EA"/>
	<stop  offset="1" style="stop-color:#133699"/>
</linearGradient>
<path class="st0" d="M399.8,0H112.2C50.2,0,0,50.2,0,112.2v287.6C0,461.8,50.2,512,112.2,512h287.6c62,0,112.2-50.2,112.2-112.2
	V112.2C512,50.2,461.8,0,399.8,0z"/>
<g>
	<path class="st1" d="M137.6,217.8l26.7-49h33.7l-41.4,70.5L199,311h-34.1l-27.3-49.8L110.2,311H76.1l42.5-71.7l-41.4-70.5h33.7
		L137.6,217.8z"/>
	<path class="st1" d="M243,287.5h62.2V311h-91.5V168.8H243V287.5z"/>
	<path class="st1" d="M407.6,249.4h-56.2v38.1h66V311H322V168.8h95.1v23.7h-65.8v33.9h56.2V249.4z"/>
</g>
</svg>
