<?xml version="1.0" encoding="utf-8"?>
<!-- Generator: Adobe Illustrator 21.0.0, SVG Export Plug-In . SVG Version: 6.00 Build 0)  -->
<svg version="1.1" id="Layer_1" xmlns="http://www.w3.org/2000/svg" xmlns:xlink="http://www.w3.org/1999/xlink" x="0px" y="0px"
	 viewBox="0 0 512 512" style="enable-background:new 0 0 512 512;" xml:space="preserve">
<style type="text/css">
	.st0{fill:url(#SVGID_1_);}
	.st1{fill:#FFFFFF;}
</style>
<linearGradient id="SVGID_1_" gradientUnits="userSpaceOnUse" x1="256" y1="0" x2="256" y2="512">
	<stop  offset="0" style="stop-color:#79E898"/>
	<stop  offset="0.9997" style="stop-color:#137A13"/>
</linearGradient>
<path class="st0" d="M399.8,0H112.2C50.2,0,0,50.2,0,112.2v287.6C0,461.8,50.2,512,112.2,512h287.6c62,0,112.2-50.2,112.2-112.2
	V112.2C512,50.2,461.8,0,399.8,0z"/>
<g>
	<path class="st1" d="M153.9,219.8l31.5-58h39.8l-49,83.4l50.2,84.8h-40.3l-32.3-58.9L121.5,330H81.2l50.2-84.8l-49-83.4h39.8
		L153.9,219.8z"/>
	<path class="st1" d="M278.6,302.2h73.6V330H243.9V161.8h34.7V302.2z"/>
	<path class="st1" d="M408.9,330h-34.7V161.8h34.7V330z"/>
</g>
</svg>
