<?xml version="1.0" encoding="utf-8"?>
<!-- Generator: Adobe Illustrator 21.0.0, SVG Export Plug-In . SVG Version: 6.00 Build 0)  -->
<svg version="1.1" id="Layer_1" xmlns="http://www.w3.org/2000/svg" xmlns:xlink="http://www.w3.org/1999/xlink" x="0px" y="0px"
	 viewBox="0 0 512 512" style="enable-background:new 0 0 512 512;" xml:space="preserve">
<style type="text/css">
	.st0{display:none;fill:#FFFFFF;}
	.st1{fill:url(#SVGID_1_);}
	.st2{fill:#FFFFFF;}
</style>
<path class="st0" d="M399.8,0H112.2C50.2,0,0,50.2,0,112.2v287.6C0,461.8,50.2,512,112.2,512h287.6c62,0,112.2-50.2,112.2-112.2
	V112.2C512,50.2,461.8,0,399.8,0z"/>
<linearGradient id="SVGID_1_" gradientUnits="userSpaceOnUse" x1="256" y1="514" x2="256" y2="2" gradientTransform="matrix(1 0 0 -1 0 514)">
	<stop  offset="0" style="stop-color:#2199DB"/>
	<stop  offset="1" style="stop-color:#0070BC"/>
</linearGradient>
<path class="st1" d="M399.8,0H112.2C50.2,0,0,50.2,0,112.2v287.6C0,461.8,50.2,512,112.2,512h287.6c62,0,112.2-50.2,112.2-112.2
	V112.2C512,50.2,461.8,0,399.8,0z"/>
<g>
	<path class="st2" d="M170.2,307L158,282.6c-5-9.4-8.2-16.4-12-24.2h-0.4c-2.8,7.8-6.2,14.8-10.4,24.2L124,307H89.2l39-68.2
		l-37.6-66.6h35l11.8,24.6c4,8.2,7,14.8,10.2,22.4h0.4c3.2-8.6,5.8-14.6,9.2-22.4l11.4-24.6h34.8l-38,65.8l40,69H170.2z"/>
	<path class="st2" d="M221.8,172.2h30.6v109.2H306V307h-84.2V172.2z"/>
	<path class="st2" d="M324,172.2h30.2v59.6h0.6c3-5.2,6.2-10,9.2-14.8l30.6-44.8H432l-44.6,57.4l47,77.4h-35.6l-33-58.2L354.2,263
		v44H324V172.2z"/>
</g>
</svg>
