<?xml version="1.0" encoding="utf-8"?>
<!-- Generator: Adobe Illustrator 21.0.0, SVG Export Plug-In . SVG Version: 6.00 Build 0)  -->
<svg version="1.1" id="Layer_1" xmlns="http://www.w3.org/2000/svg" xmlns:xlink="http://www.w3.org/1999/xlink" x="0px" y="0px"
	 viewBox="0 0 512 512" style="enable-background:new 0 0 512 512;" xml:space="preserve">
<style type="text/css">
	.st0{fill:url(#SVGID_1_);}
</style>
<linearGradient id="SVGID_1_" gradientUnits="userSpaceOnUse" x1="256" y1="514" x2="256" y2="2" gradientTransform="matrix(1 0 0 -1 0 514)">
	<stop  offset="0" style="stop-color:#EAE478"/>
	<stop  offset="1" style="stop-color:#F4C634"/>
</linearGradient>
<path class="st0" d="M399.8,0H112.2C50.2,0,0,50.2,0,112.2v287.6C0,461.8,50.2,512,112.2,512h287.6c62,0,112.2-50.2,112.2-112.2
	V112.2C512,50.2,461.8,0,399.8,0z"/>
<g>
	<path d="M139.6,216.8l26.7-49h33.7l-41.4,70.5L201,310h-34.1l-27.3-49.8L112.2,310H78.1l42.5-71.7l-41.4-70.5h33.7L139.6,216.8z"/>
	<path d="M245,286.5h62.2V310h-91.5V167.8H245V286.5z"/>
	<path d="M353.3,259.9V310H324V167.8h55.5c10.7,0,20.1,2,28.2,5.9s14.3,9.5,18.7,16.7c4.4,7.2,6.5,15.4,6.5,24.6
		c0,13.9-4.8,24.9-14.3,33c-9.5,8-22.7,12.1-39.6,12.1H353.3z M353.3,236.2h26.2c7.7,0,13.7-1.8,17.7-5.5c4.1-3.6,6.1-8.9,6.1-15.6
		c0-7-2.1-12.6-6.2-16.9s-9.8-6.5-17-6.6h-26.9V236.2z"/>
</g>
</svg>
