<?xml version="1.0" encoding="utf-8"?>
<!-- Generator: Adobe Illustrator 21.0.0, SVG Export Plug-In . SVG Version: 6.00 Build 0)  -->
<svg version="1.1" id="Layer_1" xmlns="http://www.w3.org/2000/svg" xmlns:xlink="http://www.w3.org/1999/xlink" x="0px" y="0px"
	 viewBox="0 0 512 512" style="enable-background:new 0 0 512 512;" xml:space="preserve">
<style type="text/css">
	.st0{fill:url(#SVGID_1_);}
	.st1{fill:#FFFFFF;}
</style>
<linearGradient id="SVGID_1_" gradientUnits="userSpaceOnUse" x1="256" y1="0" x2="256" y2="512">
	<stop  offset="0" style="stop-color:#83C7FF"/>
	<stop  offset="1" style="stop-color:#3B88E2"/>
</linearGradient>
<path class="st0" d="M399.8,0H112.2C50.2,0,0,50.2,0,112.2v287.6C0,461.8,50.2,512,112.2,512h287.6c62,0,112.2-50.2,112.2-112.2
	V112.2C512,50.2,461.8,0,399.8,0z"/>
<g>
	<path class="st1" d="M153.8,217.1l23.2-47.3h39.2l-39.7,70.5l40.8,71.7h-39.6l-23.9-48.1L129.8,312H90.4l40.7-71.7l-39.6-70.5h39.1
		L153.8,217.1z"/>
	<path class="st1" d="M262.7,285.6h59.7V312h-93.9V169.8h34.3V285.6z"/>
	<path class="st1" d="M371.8,273.3l28.3-103.5h38.3L390.6,312h-37.5l-47.5-142.2h38L371.8,273.3z"/>
</g>
</svg>
