<?xml version="1.0" encoding="utf-8"?>
<!-- Generator: Adobe Illustrator 21.0.0, SVG Export Plug-In . SVG Version: 6.00 Build 0)  -->
<svg version="1.1" id="Layer_1" xmlns="http://www.w3.org/2000/svg" xmlns:xlink="http://www.w3.org/1999/xlink" x="0px" y="0px"
	 viewBox="0 0 512 512" style="enable-background:new 0 0 512 512;" xml:space="preserve">
<style type="text/css">
	.st0{fill:#FFFFFF;}
	.st1{fill:#13307F;}
</style>
<path class="st0" d="M399.8,0H112.2C50.2,0,0,50.2,0,112.2v287.6C0,461.8,50.2,512,112.2,512h287.6c62,0,112.2-50.2,112.2-112.2
	V112.2C512,50.2,461.8,0,399.8,0z"/>
<g>
	<path class="st1" d="M154.6,232.8l26.7-49h33.7l-41.4,70.5L216,326h-34.1l-27.3-49.8L127.2,326H93.1l42.5-71.7l-41.4-70.5h33.7
		L154.6,232.8z"/>
	<path class="st1" d="M260,302.5h62.2V326h-91.5V183.8H260V302.5z"/>
	<path class="st1" d="M360.8,247.9l29.6-64.1h32l-46.7,90.6V326H346v-51.6l-46.7-90.6h32.1L360.8,247.9z"/>
</g>
</svg>
