<?xml version="1.0" encoding="utf-8"?>
<!-- Generator: Adobe Illustrator 21.0.0, SVG Export Plug-In . SVG Version: 6.00 Build 0)  -->
<svg version="1.1" id="Layer_1" xmlns="http://www.w3.org/2000/svg" xmlns:xlink="http://www.w3.org/1999/xlink" x="0px" y="0px"
	 viewBox="0 0 512 512" style="enable-background:new 0 0 512 512;" xml:space="preserve">
<style type="text/css">
	.st0{fill:#FFFFFF;}
</style>
<path class="st0" d="M399.8,0H112.2C50.2,0,0,50.2,0,112.2v287.6C0,461.8,50.2,512,112.2,512h287.6c62,0,112.2-50.2,112.2-112.2
	V112.2C512,50.2,461.8,0,399.8,0z"/>
<g>
	<path d="M113.7,227.1l23.2-47.3h39.2l-39.7,70.5l40.8,71.7h-39.6l-23.9-48.1L89.7,322H50.3L91,250.3l-39.6-70.5h39.1L113.7,227.1z"
		/>
	<path d="M233.3,179.8l31.7,98.9l31.6-98.9h45.1V322h-34.4v-33.2l3.3-68L276.4,322h-22.7l-34.5-101.3l3.3,68.1V322h-34.3V179.8
		H233.3z"/>
	<path d="M451.8,261.6h-53.9v34h63.7V322h-97.9V179.8h98.1v26.5h-63.9v30h53.9V261.6z"/>
</g>
</svg>
