<?xml version="1.0" encoding="utf-8"?>
<!-- Generator: Adobe Illustrator 21.0.0, SVG Export Plug-In . SVG Version: 6.00 Build 0)  -->
<svg version="1.1" id="Layer_1" xmlns="http://www.w3.org/2000/svg" xmlns:xlink="http://www.w3.org/1999/xlink" x="0px" y="0px"
	 viewBox="0 0 512 512" style="enable-background:new 0 0 512 512;" xml:space="preserve">
<style type="text/css">
	.st0{fill:#FB4B4E;}
	.st1{fill:#5FCDFF;}
	.st2{fill:#FFFFFF;}
</style>
<path class="st0" d="M399.8,0H112.2C50.2,0,0,50.2,0,112.2v287.6C0,461.8,50.2,512,112.2,512h287.6c62,0,112.2-50.2,112.2-112.2
	V112.2C512,50.2,461.8,0,399.8,0z"/>
<g>
	<path class="st1" d="M252,167.7h-0.2H252C251.9,167.7,252,167.7,252,167.7z"/>
</g>
<g id="_x39_fAno3_1_">
	<g>
		<path class="st2" d="M294.6,266.5c39,40.7,77.4,80.7,118.4,123.4c-25.1,0-46.5,0.3-67.8-0.3c-3.1-0.1-6.4-4.1-9-6.8
			c-20.8-21.4-41.5-42.9-62.1-64.5c-2.9-3.1-5.2-6.8-8.7-11.3c-10.4,14.3-18.4,26.3-27.6,37.4c-3.2,3.9-9.3,7.1-14.3,7.4
			c-14.4,1-28.9,0.3-46.2,0.3c3.3-5.6,5.1-9.1,7.5-12.4c13.7-19.1,27.4-38.4,41.5-57.2c4.3-5.8,5-9.7-0.7-14.9
			c-5.2-4.7-9.3-10.5-15-17c-15.2,19-29.2,35.8-42.3,53.2c-5.1,6.8-10.6,9.1-18.9,8.8c-15.6-0.6-31.2-0.2-50.3-0.2
			c26.6-33.6,51.3-64.8,76.3-96.5c-18.6-19.4-36.8-38.5-55.1-57.5c0.5-1,1-2,1.5-3c21,0,42-0.6,63,0.5c4.3,0.2,8.8,5.9,12.5,9.8
			c2.9,3.1,4.8,7.2,8.2,12.5c15.6-19.6,28.8-35.6,41.2-52.1c5-6.6,10.3-9.5,18.7-9.1c15.6,0.7,31.3,0.2,50.7,0.2
			c-26,32.8-50.2,63.3-74.9,94.5c6.6,6.4,13.1,12.7,20.4,19.8c2.4-2.8,4.8-5.2,6.8-7.9c14.6-20,29.2-39.9,43.4-60.2
			c4.3-6.1,9.2-8.6,16.7-8.4c14,0.5,28.1,0.1,46,0.1C346.7,193.9,320.8,230,294.6,266.5z"/>
	</g>
</g>
</svg>
