<?xml version="1.0" encoding="utf-8"?>
<!-- Generator: Adobe Illustrator 21.0.0, SVG Export Plug-In . SVG Version: 6.00 Build 0)  -->
<svg version="1.1" id="Layer_1" xmlns="http://www.w3.org/2000/svg" xmlns:xlink="http://www.w3.org/1999/xlink" x="0px" y="0px"
	 viewBox="0 0 512 512" style="enable-background:new 0 0 512 512;" xml:space="preserve">
<style type="text/css">
	.st0{fill:#007DCF;}
	.st1{fill:#FF748F;}
	.st2{fill:#FFFFFF;}
</style>
<g>
	<g>
		<path class="st0" d="M8.9,68.3C3.2,81.8,0,96.6,0,112.2v24h76.9L8.9,68.3z"/>
		<polygon class="st0" points="0,177.4 0,254.3 76.9,177.4 		"/>
		<path class="st0" d="M399.8,0H112.2C80.9,0,52.7,12.8,32.3,33.4l73.7,73.7V30.2h20.6h20.6v76.9l76.9-76.9l29.1,0v29.1l-76.9,76.9
			h76.9v41.2h-76.9l76.9,76.9v58.3l-106-106v106h-20.6H106v-106L0,312.6v87.2C0,461.8,50.2,512,112.2,512h287.6
			c62,0,112.2-50.2,112.2-112.2V112.2C512,50.2,461.8,0,399.8,0z"/>
		<path class="st1" d="M106,312.6h20.6h20.6v-106l106,106v-58.3l-76.9-76.9h76.9v-41.2h-76.9l76.9-76.9V30.2l-29.1,0l-76.9,76.9
			V30.2h-20.6H106v76.9L32.3,33.4c-9.8,10-17.8,21.8-23.4,34.9l68,68H0v41.2h76.9L0,254.3v58.3l106-106V312.6z"/>
	</g>
	<path class="st1" d="M253.2,59.3l-76.9,76.9h76.9v41.2h-76.9l76.9,76.9v58.3l-106-106v106H106v-106L0,312.6v-58.3l30.9-30.9l46-46
		H0v-41.2h76.9l-46-46V64.1c0-8.9,3.4-17,9.1-23.1l66,66.1V30.2h41.2v76.9l76.9-76.9h29.1V59.3z"/>
	<g>
		<path class="st2" d="M196,376.9l-20.7-3l-9.3-18.8c-3.5-7.2-13.8-7.2-17.3,0l-9.3,18.8l-20.7,3c-7.9,1.1-11.1,10.9-5.3,16.4
			l15,14.6l-3.5,20.7c-1.4,7.9,6.9,13.9,14,10.2l18.6-9.8l18.6,9.8c7.1,3.7,15.3-2.3,14-10.2l-3.5-20.7l15-14.6
			C207,387.8,203.9,378.1,196,376.9L196,376.9z"/>
		<path class="st2" d="M442.1,99.3l-20.7-3L412,77.5c-3.5-7.2-13.8-7.2-17.3,0l-9.3,18.8l-20.7,3c-7.9,1.1-11.1,10.9-5.3,16.4
			l15,14.6l-3.5,20.7c-1.4,7.9,6.9,13.9,14,10.2l18.6-9.8l18.6,9.8c7.1,3.7,15.3-2.3,14-10.2l-3.5-20.7l15-14.6
			C453.1,110.2,450,100.5,442.1,99.3L442.1,99.3z"/>
		<path class="st2" d="M359.1,275.2l-15.7-2.3l-7-14.2c-2.7-5.4-10.4-5.4-13.1,0l-7,14.2l-15.7,2.3c-6,0.9-8.4,8.2-4,12.4l11.3,11
			l-2.7,15.6c-1,5.9,5.2,10.5,10.6,7.7l14-7.4l14,7.4c5.3,2.8,11.6-1.7,10.6-7.7l-2.7-15.6l11.3-11
			C367.4,283.5,365,276.1,359.1,275.2L359.1,275.2z"/>
		<path class="st2" d="M479.5,223.4l-15.7-2.3l-7-14.2c-2.7-5.4-10.4-5.4-13.1,0l-7,14.2l-15.7,2.3c-6,0.9-8.4,8.2-4,12.4l11.3,11
			l-2.7,15.6c-1,5.9,5.2,10.5,10.6,7.7l14-7.4l14,7.4c5.3,2.8,11.6-1.7,10.6-7.7l-2.7-15.6l11.3-11
			C487.9,231.6,485.5,224.3,479.5,223.4L479.5,223.4z"/>
		<path class="st2" d="M429.9,392.3l-15.7-2.3l-7-14.2c-2.7-5.4-10.4-5.4-13.1,0l-7,14.2l-15.7,2.3c-6,0.9-8.4,8.2-4,12.4l11.3,11
			l-2.7,15.6c-1,5.9,5.2,10.5,10.6,7.7l14-7.4l14,7.4c5.3,2.8,11.6-1.7,10.6-7.7l-2.7-15.6l11.3-11
			C438.3,400.6,435.9,393.2,429.9,392.3L429.9,392.3z"/>
	</g>
</g>
</svg>
