<?xml version="1.0" encoding="utf-8"?>
<!-- Generator: Adobe Illustrator 21.0.0, SVG Export Plug-In . SVG Version: 6.00 Build 0)  -->
<svg version="1.1" id="Layer_1" xmlns="http://www.w3.org/2000/svg" xmlns:xlink="http://www.w3.org/1999/xlink" x="0px" y="0px"
	 viewBox="0 0 512 512" style="enable-background:new 0 0 512 512;" xml:space="preserve">
<style type="text/css">
	.st0{fill:#F5F5F5;}
	.st1{fill:#FF4B55;}
</style>
<g>
	<path class="st0" d="M414.8,1c-4.9-0.7-9.9-1-15-1H112.2c-5.1,0-10.1,0.3-15,1h17.6v511h282.5V1H414.8z M309.6,295.8
		c-5.4,3.1-7.8,9.7-5.6,15.5l4.5,12l-44.9-3.8c-2.5-0.2-4.6,1.8-4.5,4.3l1.4,48h-8.8l1.4-48c0.1-2.5-2-4.5-4.5-4.3l-44.9,3.8l4.5-12
		c2.2-5.9-0.2-12.4-5.6-15.5l-52.4-29.9l12-6c3.4-1.7,5.3-5.3,4.8-9.1l-3.9-29.3l22.2,6.5c4.9,1.4,10-1.6,11.1-6.6l2.1-9.6
		l20.8,24.4c2.9,3.4,8.4,0.8,7.6-3.6l-8.9-51.7l13.6,3.7c4,1.1,8.2-0.7,10.1-4.4l14.3-26.9v0l0,0l0,0v0l14.3,26.9
		c1.9,3.6,6.1,5.4,10.1,4.4l13.6-3.7l-8.9,51.7c-0.8,4.4,4.7,7,7.6,3.6l20.8-24.4l2.1,9.6c1.1,5,6.2,8,11.1,6.6l22.2-6.5l-3.9,29.3
		c-0.5,3.7,1.4,7.4,4.8,9.1l12,6L309.6,295.8z"/>
	<path class="st1" d="M97.2,1C42.3,8.3,0,55.3,0,112.2v287.6C0,461.8,50.2,512,112.2,512h2.6V1H97.2z"/>
	<path class="st1" d="M414.8,1h-17.6v511h2.6c62,0,112.2-50.2,112.2-112.2V112.2C512,55.3,469.7,8.3,414.8,1z"/>
	<path class="st1" d="M345.1,250.8l3.9-29.3l-22.2,6.5c-4.9,1.4-10-1.6-11.1-6.6l-2.1-9.6l-20.8,24.4c-2.9,3.4-8.4,0.8-7.6-3.6
		l8.9-51.7l-13.6,3.7c-4,1.1-8.2-0.7-10.1-4.4L256,153.3v0l0,0l0,0v0l-14.3,26.9c-1.9,3.6-6.1,5.4-10.1,4.4l-13.6-3.7l8.9,51.7
		c0.8,4.4-4.7,7-7.6,3.6l-20.8-24.4l-2.1,9.6c-1.1,5-6.2,8-11.1,6.6l-22.2-6.5l3.9,29.3c0.5,3.7-1.4,7.4-4.8,9.1l-12,6l52.4,29.9
		c5.4,3.1,7.8,9.7,5.6,15.5l-4.5,12l44.9-3.8c2.5-0.2,4.6,1.8,4.5,4.3l-1.4,48h8.8l-1.4-48c-0.1-2.5,2-4.5,4.5-4.3l44.9,3.8l-4.5-12
		c-2.2-5.9,0.2-12.4,5.6-15.5l52.4-29.9l-12-6C346.6,258.1,344.6,254.5,345.1,250.8z"/>
</g>
</svg>
