<?xml version="1.0" encoding="utf-8"?>
<!-- Generator: Adobe Illustrator 21.0.0, SVG Export Plug-In . SVG Version: 6.00 Build 0)  -->
<svg version="1.1" id="Layer_1" xmlns="http://www.w3.org/2000/svg" xmlns:xlink="http://www.w3.org/1999/xlink" x="0px" y="0px"
	 viewBox="0 0 512 512" style="enable-background:new 0 0 512 512;" xml:space="preserve">
<style type="text/css">
	.st0{fill:#41479B;}
	.st1{fill:#FFE15A;}
</style>
<path class="st0" d="M399.8,0H112.2C50.2,0,0,50.2,0,112.2v287.6C0,461.8,50.2,512,112.2,512h287.6c62,0,112.2-50.2,112.2-112.2
	V112.2C512,50.2,461.8,0,399.8,0z"/>
<g>
	<path class="st1" d="M257.9,99.9l4.3,12.8l13.5,0.1c1.7,0,2.5,2.2,1.1,3.3l-10.9,8l4.1,12.9c0.5,1.7-1.4,3-2.8,2l-11-7.8l-11,7.8
		c-1.4,1-3.3-0.4-2.8-2l4.1-12.9l-10.9-8c-1.4-1-0.7-3.3,1.1-3.3l13.5-0.1l4.3-12.8C255,98.2,257.3,98.2,257.9,99.9z"/>
	<path class="st1" d="M257.9,374.8l4.3,12.8l13.5,0.1c1.7,0,2.5,2.2,1.1,3.3l-10.9,8l4.1,12.9c0.5,1.7-1.4,3-2.8,2l-11-7.8l-11,7.8
		c-1.4,1-3.3-0.4-2.8-2l4.1-12.9l-10.9-8c-1.4-1-0.7-3.3,1.1-3.3l13.5-0.1l4.3-12.8C255,373.1,257.3,373.1,257.9,374.8z"/>
	<path class="st1" d="M395.3,237.3l4.3,12.8l13.5,0.1c1.7,0,2.5,2.2,1.1,3.3l-10.9,8l4.1,12.9c0.5,1.7-1.4,3-2.8,2l-11-7.8l-11,7.8
		c-1.4,1-3.3-0.4-2.8-2l4.1-12.9l-10.9-8c-1.4-1-0.7-3.3,1.1-3.3l13.5-0.1l4.3-12.8C392.4,235.7,394.8,235.7,395.3,237.3z"/>
	<path class="st1" d="M120.4,237.3l4.3,12.8l13.5,0.1c1.7,0,2.5,2.2,1.1,3.3l-10.9,8l4.1,12.9c0.5,1.7-1.4,3-2.8,2l-11-7.8l-11,7.8
		c-1.4,1-3.3-0.4-2.8-2l4.1-12.9l-10.9-8c-1.4-1-0.7-3.3,1.1-3.3l13.5-0.1l4.3-12.8C117.5,235.7,119.9,235.7,120.4,237.3z"/>
	<path class="st1" d="M141.1,165.6l4.3,12.8l13.5,0.1c1.7,0,2.5,2.2,1.1,3.3l-10.9,8l4.1,12.9c0.5,1.7-1.4,3-2.8,2l-11-7.8l-11,7.8
		c-1.4,1-3.3-0.4-2.8-2l4.1-12.9l-10.9-8c-1.4-1-0.7-3.3,1.1-3.3l13.5-0.1l4.3-12.8C138.2,163.9,140.5,163.9,141.1,165.6z"/>
	<path class="st1" d="M379.1,303l4.3,12.8l13.5,0.1c1.7,0,2.5,2.2,1.1,3.3l-10.9,8l4.1,12.9c0.5,1.7-1.4,3-2.8,2l-11-7.8l-11,7.8
		c-1.4,1-3.3-0.4-2.8-2l4.1-12.9l-10.9-8c-1.4-1-0.7-3.3,1.1-3.3l13.5-0.1l4.3-12.8C376.2,301.4,378.6,301.4,379.1,303z"/>
	<path class="st1" d="M328.8,115.3l4.3,12.8l13.5,0.1c1.7,0,2.5,2.2,1.1,3.3l-10.9,8l4.1,12.9c0.5,1.7-1.4,3-2.8,2l-11-7.8l-11,7.8
		c-1.4,1-3.3-0.4-2.8-2l4.1-12.9l-10.9-8c-1.4-1-0.7-3.3,1.1-3.3l13.5-0.1l4.3-12.8C325.9,113.6,328.3,113.6,328.8,115.3z"/>
	<path class="st1" d="M191.4,353.3l4.3,12.8l13.5,0.1c1.7,0,2.5,2.2,1.1,3.3l-10.9,8l4.1,12.9c0.5,1.7-1.4,3-2.8,2l-11-7.8l-11,7.8
		c-1.4,1-3.3-0.4-2.8-2l4.1-12.9l-10.9-8c-1.4-1-0.7-3.3,1.1-3.3l13.5-0.1l4.3-12.8C188.5,351.7,190.8,351.7,191.4,353.3z"/>
	<path class="st1" d="M375.7,165.6l-4.3,12.8l-13.5,0.1c-1.7,0-2.5,2.2-1.1,3.3l10.9,8l-4.1,12.9c-0.5,1.7,1.4,3,2.8,2l11-7.8
		l11,7.8c1.4,1,3.3-0.4,2.8-2l-4.1-12.9l10.9-8c1.4-1,0.7-3.3-1.1-3.3l-13.5-0.1l-4.3-12.8C378.6,163.9,376.2,163.9,375.7,165.6z"/>
	<path class="st1" d="M137.6,303l-4.3,12.8l-13.5,0.1c-1.7,0-2.5,2.2-1.1,3.3l10.9,8l-4.1,12.9c-0.5,1.7,1.4,3,2.8,2l11-7.8l11,7.8
		c1.4,1,3.3-0.4,2.8-2l-4.1-12.9l10.9-8c1.4-1,0.7-3.3-1.1-3.3l-13.5-0.1l-4.3-12.8C140.5,301.4,138.2,301.4,137.6,303z"/>
	<path class="st1" d="M187.9,115.3l-4.3,12.8l-13.5,0.1c-1.7,0-2.5,2.2-1.1,3.3l10.9,8l-4.1,12.9c-0.5,1.7,1.4,3,2.8,2l11-7.8
		l11,7.8c1.4,1,3.3-0.4,2.8-2l-4.1-12.9l10.9-8c1.4-1,0.7-3.3-1.1-3.3l-13.5-0.1l-4.3-12.8C190.8,113.6,188.5,113.6,187.9,115.3z"/>
	<path class="st1" d="M325.4,353.3l-4.3,12.8l-13.5,0.1c-1.7,0-2.5,2.2-1.1,3.3l10.9,8l-4.1,12.9c-0.5,1.7,1.4,3,2.8,2l11-7.8
		l11,7.8c1.4,1,3.3-0.4,2.8-2l-4.1-12.9l10.9-8c1.4-1,0.7-3.3-1.1-3.3l-13.5-0.1l-4.3-12.8C328.3,351.7,325.9,351.7,325.4,353.3z"/>
</g>
</svg>
