<?xml version="1.0" encoding="utf-8"?>
<!-- Generator: Adobe Illustrator 21.0.0, SVG Export Plug-In . SVG Version: 6.00 Build 0)  -->
<svg version="1.1" id="Layer_1" xmlns="http://www.w3.org/2000/svg" xmlns:xlink="http://www.w3.org/1999/xlink" x="0px" y="0px"
	 viewBox="0 0 512 512" style="enable-background:new 0 0 512 512;" xml:space="preserve">
<style type="text/css">
	.st0{fill:#F0F9FF;}
	.st1{fill:#F40055;}
	.st2{fill:#406BD4;}
</style>
<g>
	<path class="st0" d="M0,295v26.5h100L0.1,404.7c0.6,13.4,3.5,26.2,8.4,38l145.6-121.1l37.3,0l0,11.5L25.5,471
		c7,8.4,15.1,15.9,24.2,22l141.6-117.3V512h26.5V295H0z"/>
	<path class="st0" d="M294.1,512h26.5V374.1L463,492.5c9-6.1,17-13.5,23.8-21.9L320.7,332.3v-10.8l38.2,0l144.9,120.5
		c5-12.2,7.8-25.4,8.2-39.3l-97.7-81.2H512V295H294.1V512z"/>
	<path class="st0" d="M50.2,18.7C40.5,25.1,31.9,33,24.6,42l166.7,138.7l0,11.5h-37.3L7.9,70.7c-4.6,11.4-7.3,23.8-7.8,36.7
		l102,84.9H0v26.5h217.9V0h-26.5v136.1L50.2,18.7z"/>
	<path class="st0" d="M512,218.8v-26.5h-99.8l99.8-83c-0.3-13.4-3-26.2-7.7-38l-145.4,121h-38.2v-10.8l167.1-139
		c-6.9-8.7-15.1-16.4-24.3-22.7L320.7,138.2V0h-26.5v218.8H512z"/>
	<path class="st1" d="M191.3,192.3l0-11.5L24.6,42c-6.9,8.6-12.6,18.2-16.7,28.6l146.1,121.6H191.3z"/>
	<path class="st1" d="M320.7,192.3h38.2l145.4-121c-4.1-10.4-9.7-20.1-16.6-28.8l-167.1,139V192.3z"/>
	<path class="st1" d="M191.3,321.6l-37.3,0L8.5,442.7c4.3,10.3,10,19.9,17,28.4l165.8-138L191.3,321.6z"/>
	<path class="st1" d="M320.7,321.6v10.8l166.2,138.3c7-8.5,12.7-18.1,16.9-28.5L358.9,321.6L320.7,321.6z"/>
	<path class="st2" d="M191.3,136.1V0h-79.2C89.3,0,68,6.9,50.2,18.7L191.3,136.1z"/>
	<path class="st2" d="M463.5,19.8C445.4,7.3,423.5,0,399.8,0h-79.2v138.2L463.5,19.8z"/>
	<path class="st2" d="M512,192.3v-80.1c0-1,0-2,0-2.9l-99.8,83H512z"/>
	<path class="st2" d="M0.1,107.4C0,109,0,110.6,0,112.2v80.1h102.1L0.1,107.4z"/>
	<path class="st2" d="M0,321.6v78.3c0,1.6,0,3.2,0.1,4.9l99.9-83.1H0z"/>
	<path class="st2" d="M49.7,493c17.9,12,39.3,19,62.5,19h79.2V375.7L49.7,493z"/>
	<path class="st2" d="M320.7,512h79.2c23.4,0,45.2-7.2,63.2-19.5L320.7,374.1V512z"/>
	<path class="st2" d="M512,402.8c0-1,0-2,0-3v-78.3h-97.7L512,402.8z"/>
	<polygon class="st1" points="0,218.8 0,295 217.9,295 217.9,512 256,512 256,0 217.9,0 217.9,218.8 	"/>
	<polygon class="st1" points="294.1,512 294.1,295 512,295 512,218.8 294.1,218.8 294.1,0 256,0 256,512 	"/>
</g>
</svg>
