<?xml version="1.0" encoding="utf-8"?>
<!-- Generator: Adobe Illustrator 21.0.0, SVG Export Plug-In . SVG Version: 6.00 Build 0)  -->
<svg version="1.1" id="Layer_1" xmlns="http://www.w3.org/2000/svg" xmlns:xlink="http://www.w3.org/1999/xlink" x="0px" y="0px"
	 viewBox="0 0 512 512" style="enable-background:new 0 0 512 512;" xml:space="preserve">
<style type="text/css">
	.st0{fill:#41479B;}
	.st1{fill:#F5F5F5;}
	.st2{fill:#FF4B55;}
</style>
<g>
	<path class="st0" d="M400,0H112C50.1,0,0,50.1,0,112v288c0,61.9,50.1,112,112,112h288c61.9,0,112-50.1,112-112V112
		C512,50.1,461.9,0,400,0z"/>
	<path class="st0" d="M94.3,1.4C67.9,5.6,44.6,19,27.8,38.2l66.5,43.6V1.4z"/>
	<path class="st0" d="M7,72.9c-2.6,6.8-4.5,14-5.6,21.4h38.3L7,72.9z"/>
	<polygon class="st0" points="0,161.7 0,187.7 39.7,161.7 	"/>
	<polygon class="st0" points="256,20 256,0 161.7,0 161.7,81.8 	"/>
	<polygon class="st0" points="256,187.7 256,161.7 216.3,161.7 	"/>
	<polygon class="st0" points="161.7,256 256,256 256,236 161.7,174.2 	"/>
	<polygon class="st0" points="256,94.3 256,68.3 216.3,94.3 	"/>
	<polygon class="st0" points="94.3,174.2 0,236 0,256 94.3,256 	"/>
</g>
<g>
	<polygon class="st1" points="148.2,256 161.7,256 161.7,174.2 256,236 256,216.1 172.2,161.7 197,161.7 256,200 256,187.7 
		216.3,161.7 256,161.7 256,148.2 148.2,148.2 	"/>
	<polygon class="st1" points="94.3,256 107.8,256 107.8,148.2 0,148.2 0,161.7 39.7,161.7 0,187.7 0,206.6 69.2,161.7 93.9,161.7 
		0,222.7 0,236 94.3,174.2 	"/>
	<path class="st1" d="M107.8,0.1c-4.6,0.2-9.1,0.6-13.5,1.3v80.4L27.8,38.2c-4,4.6-7.6,9.5-10.9,14.6l63.9,41.5H56.1L10.5,64.7
		c-1.3,2.7-2.4,5.4-3.4,8.2l32.7,21.4H1.4c-0.7,4.4-1.1,8.9-1.3,13.5h107.7L107.8,0.1L107.8,0.1z"/>
	<polygon class="st1" points="256,107.8 256,94.3 216.3,94.3 256,68.3 256,49.2 186.4,94.3 161.7,94.3 256,33.1 256,20 161.7,81.8 
		161.7,0 148.2,0 148.2,107.8 	"/>
</g>
<g>
	<path class="st2" d="M107.8,256h40.4V148.2H256v-40.4H148.2V0H112c-1.4,0-2.8,0-4.2,0.1v107.7H0.1C0,109.2,0,110.6,0,112v36.2
		h107.8V256z"/>
	<polygon class="st2" points="69.2,161.7 0,206.6 0,222.7 93.9,161.7 	"/>
	<polygon class="st2" points="172.2,161.7 256,216.1 256,200 197,161.7 	"/>
	<path class="st2" d="M80.8,94.3L16.9,52.8c-2.4,3.8-4.5,7.8-6.4,11.9l45.6,29.6H80.8z"/>
	<polygon class="st2" points="186.4,94.3 256,49.2 256,33.1 161.7,94.3 	"/>
	<path class="st2" d="M395.6,441.2c-0.4,0-0.7-0.1-1-0.3l-10.4-7.5l-10.4,7.5c-0.3,0.2-0.7,0.3-1,0.3c-0.4,0-0.7-0.1-1-0.3
		c-0.6-0.4-0.9-1.2-0.6-2l3.9-12.2l-10.3-7.6c-0.6-0.5-0.9-1.2-0.6-2c0.2-0.7,0.9-1.2,1.7-1.2l12.8-0.1l4.1-12.2
		c0.2-0.7,0.9-1.2,1.7-1.2s1.4,0.5,1.7,1.2l4.1,12.2l12.8,0.1c0.8,0,1.4,0.5,1.7,1.2c0.2,0.7,0,1.5-0.6,2l-10.3,7.6l3.9,12.2
		c0.2,0.7,0,1.5-0.6,2C396.3,441.1,395.9,441.2,395.6,441.2z"/>
</g>
<path class="st1" d="M384.1,404.2l4.5,13.4l14.1,0.1l-11.3,8.4l4.3,13.4l-11.5-8.2l-11.5,8.2l4.3-13.4l-11.3-8.4l14.1-0.1
	L384.1,404.2 M384.1,400.6c-1.5,0-2.9,1-3.4,2.4l-3.7,11l-11.6,0.1c-1.5,0-2.9,1-3.3,2.4c-0.5,1.4,0,3,1.3,3.9l9.3,6.9l-3.5,11
	c-0.5,1.4,0.1,3,1.3,3.9c0.6,0.4,1.3,0.7,2.1,0.7c0.7,0,1.4-0.2,2.1-0.7l9.4-6.7l9.4,6.7c0.6,0.4,1.3,0.7,2.1,0.7
	c0.7,0,1.5-0.2,2.1-0.7c1.2-0.9,1.7-2.5,1.3-3.9l-3.5-11l9.3-6.9c1.2-0.9,1.7-2.5,1.3-3.9c-0.5-1.4-1.8-2.4-3.3-2.4l-11.6-0.1
	l-3.7-11C387,401.6,385.6,400.6,384.1,400.6L384.1,400.6z"/>
<path class="st2" d="M395.6,267.6c-0.4,0-0.7-0.1-1-0.3l-10.4-7.5l-10.4,7.5c-0.3,0.2-0.7,0.3-1,0.3c-0.4,0-0.7-0.1-1-0.3
	c-0.6-0.4-0.9-1.2-0.6-2l3.9-12.2l-10.3-7.6c-0.6-0.5-0.9-1.2-0.6-2c0.2-0.7,0.9-1.2,1.7-1.2l12.8-0.1l4.1-12.2
	c0.2-0.7,0.9-1.2,1.7-1.2s1.4,0.5,1.7,1.2l4.1,12.2l12.8,0.1c0.8,0,1.4,0.5,1.7,1.2c0.2,0.7,0,1.5-0.6,2l-10.3,7.6l3.9,12.2
	c0.2,0.7,0,1.5-0.6,2C396.3,267.5,395.9,267.6,395.6,267.6z"/>
<path class="st1" d="M384.1,230.5l4.5,13.4l14.1,0.1l-11.3,8.4l4.3,13.4l-11.5-8.2l-11.5,8.2l4.3-13.4l-11.3-8.4l14.1-0.1
	L384.1,230.5 M384.1,227c-1.5,0-2.9,1-3.4,2.4l-3.7,11l-11.6,0.1c-1.5,0-2.9,1-3.3,2.4c-0.5,1.4,0,3,1.3,3.9l9.3,6.9l-3.5,11
	c-0.5,1.4,0.1,3,1.3,3.9c0.6,0.4,1.3,0.7,2.1,0.7c0.7,0,1.4-0.2,2.1-0.7l9.4-6.7l9.4,6.7c0.6,0.4,1.3,0.7,2.1,0.7
	c0.7,0,1.5-0.2,2.1-0.7c1.2-0.9,1.7-2.5,1.3-3.9l-3.5-11l9.3-6.9c1.2-0.9,1.7-2.5,1.3-3.9c-0.5-1.4-1.8-2.4-3.3-2.4l-11.6-0.1
	l-3.7-11C387,228,385.6,227,384.1,227L384.1,227z"/>
<path class="st2" d="M457.4,332.7c-0.4,0-0.7-0.1-1-0.3l-10.4-7.5l-10.4,7.5c-0.3,0.2-0.7,0.3-1,0.3c-0.4,0-0.7-0.1-1-0.3
	c-0.6-0.4-0.9-1.2-0.6-2l3.9-12.2l-10.3-7.6c-0.6-0.5-0.9-1.2-0.6-2c0.2-0.7,0.9-1.2,1.7-1.2l12.8-0.1l4.1-12.2
	c0.2-0.7,0.9-1.2,1.7-1.2s1.4,0.5,1.7,1.2l4.1,12.2l12.8,0.1c0.8,0,1.4,0.5,1.7,1.2c0.2,0.7,0,1.5-0.6,2l-10.3,7.6l3.9,12.2
	c0.2,0.7,0,1.5-0.6,2C458.1,332.6,457.7,332.7,457.4,332.7z"/>
<path class="st1" d="M445.9,295.7l4.5,13.4l14.1,0.1l-11.3,8.4l4.3,13.4l-11.5-8.2l-11.5,8.2l4.3-13.4l-11.3-8.4l14.1-0.1
	L445.9,295.7 M445.9,292.1c-1.5,0-2.9,1-3.4,2.4l-3.7,11l-11.6,0.1c-1.5,0-2.9,1-3.3,2.4c-0.5,1.4,0,3,1.3,3.9l9.3,6.9l-3.5,11
	c-0.5,1.4,0.1,3,1.3,3.9c0.6,0.4,1.3,0.7,2.1,0.7c0.7,0,1.4-0.2,2.1-0.7l9.4-6.7l9.4,6.7c0.6,0.4,1.3,0.7,2.1,0.7
	c0.7,0,1.5-0.2,2.1-0.7c1.2-0.9,1.7-2.5,1.3-3.9l-3.5-11l9.3-6.9c1.2-0.9,1.7-2.5,1.3-3.9c-0.5-1.4-1.8-2.4-3.3-2.4l-11.6-0.1
	l-3.7-11C448.8,293.1,447.4,292.1,445.9,292.1L445.9,292.1z"/>
<path class="st2" d="M333.8,350.4c-0.4,0-0.7-0.1-1-0.3l-10.4-7.5l-10.4,7.5c-0.3,0.2-0.7,0.3-1,0.3c-0.4,0-0.7-0.1-1-0.3
	c-0.6-0.4-0.9-1.2-0.6-2l3.9-12.2l-10.3-7.6c-0.6-0.5-0.9-1.2-0.6-2c0.2-0.7,0.9-1.2,1.7-1.2l12.8-0.1l4.1-12.2
	c0.2-0.7,0.9-1.2,1.7-1.2s1.4,0.5,1.7,1.2l4.1,12.2l12.8,0.1c0.8,0,1.4,0.5,1.7,1.2c0.2,0.7,0,1.5-0.6,2l-10.3,7.6l3.9,12.2
	c0.2,0.7,0,1.5-0.6,2C334.5,350.3,334.2,350.4,333.8,350.4z"/>
<path class="st1" d="M322.3,313.3l4.5,13.4l14.1,0.1l-11.3,8.4l4.3,13.4l-11.5-8.2l-11.5,8.2l4.3-13.4l-11.3-8.4l14.1-0.1
	L322.3,313.3 M322.3,309.8c-1.5,0-2.9,1-3.4,2.4l-3.7,11l-11.6,0.1c-1.5,0-2.9,1-3.3,2.4c-0.5,1.4,0,3,1.3,3.9l9.3,6.9l-3.5,11
	c-0.5,1.4,0.1,3,1.3,3.9c0.6,0.4,1.3,0.7,2.1,0.7c0.7,0,1.4-0.2,2.1-0.7l9.4-6.7l9.4,6.7c0.6,0.4,1.3,0.7,2.1,0.7
	c0.7,0,1.5-0.2,2.1-0.7c1.2-0.9,1.7-2.5,1.3-3.9l-3.5-11l9.3-6.9c1.2-0.9,1.7-2.5,1.3-3.9c-0.5-1.4-1.8-2.4-3.3-2.4l-11.6-0.1
	l-3.7-11C325.2,310.8,323.8,309.8,322.3,309.8L322.3,309.8z"/>
</svg>
