<?xml version="1.0" encoding="utf-8"?>
<!-- Generator: Adobe Illustrator 21.0.0, SVG Export Plug-In . SVG Version: 6.00 Build 0)  -->
<svg version="1.1" id="Layer_1" xmlns="http://www.w3.org/2000/svg" xmlns:xlink="http://www.w3.org/1999/xlink" x="0px" y="0px"
	 viewBox="0 0 512 512" style="enable-background:new 0 0 512 512;" xml:space="preserve">
<style type="text/css">
	.st0{fill:#FF4B55;}
	.st1{fill:#F5F5F5;}
</style>
<path class="st0" d="M512,112C512,50.1,461.9,0,400,0H112C50.1,0,0,50.1,0,112v144.5h512V112z"/>
<g>
	<path class="st1" d="M512,400V256.5H0V400c0,61.9,50.1,112,112,112h288C461.9,512,512,461.9,512,400z"/>
	<path class="st1" d="M86.2,121.4c0-43.5,31.9-79.5,73.5-86.2c2.3-0.4,2.4-3.5,0.1-4c-10.3-2.4-21.3-3-32.6-1.5
		c-44.9,6.1-79.6,45-80.3,90.3c-0.7,51.8,41,93.9,92.5,93.9c7,0,13.8-0.8,20.4-2.3c2.2-0.5,2.1-3.6-0.1-4
		C118.1,201,86.2,165.1,86.2,121.4z"/>
	<path class="st1" d="M160.5,144.7l-3.9,11.7l-12.4,0.1c-1.6,0-2.3,2.1-1,3l9.9,7.3l-3.7,11.8c-0.5,1.5,1.3,2.8,2.6,1.9l10.1-7.2
		l10.1,7.2c1.3,0.9,3-0.3,2.6-1.9l-3.7-11.8l9.9-7.3c1.3-1,0.6-3-1-3l-12.4-0.1l-3.9-11.7C163.1,143.2,161,143.2,160.5,144.7z"/>
	<path class="st1" d="M221.6,144.7l-3.9,11.7l-12.4,0.1c-1.6,0-2.3,2.1-1,3l9.9,7.3l-3.7,11.8c-0.5,1.5,1.3,2.8,2.6,1.9l10.1-7.2
		l10.1,7.2c1.3,0.9,3-0.3,2.6-1.9l-3.7-11.8l9.9-7.3c1.3-1,0.6-3-1-3l-12.4-0.1l-3.9-11.7C224.3,143.2,222.1,143.2,221.6,144.7z"/>
	<path class="st1" d="M191.3,50.3l-3.9,11.7L175,62.2c-1.6,0-2.3,2.1-1,3l9.9,7.3l-3.7,11.8c-0.5,1.5,1.3,2.8,2.6,1.9l10.1-7.2
		l10.1,7.2c1.3,0.9,3-0.3,2.6-1.9l-3.7-11.8l9.9-7.3c1.3-1,0.6-3-1-3l-12.4-0.1l-3.9-11.7C194,48.8,191.8,48.8,191.3,50.3z"/>
	<path class="st1" d="M142.6,86.5l-3.9,11.7l-12.4,0.1c-1.6,0-2.3,2.1-1,3l9.9,7.3l-3.7,11.8c-0.5,1.5,1.3,2.8,2.6,1.9l10.1-7.2
		l10.1,7.2c1.3,0.9,3-0.3,2.6-1.9l-3.7-11.8l9.9-7.3c1.3-1,0.6-3-1-3l-12.4-0.1l-3.9-11.7C145.2,85,143.1,85,142.6,86.5z"/>
	<path class="st1" d="M239.6,86.5l-3.9,11.7l-12.4,0.1c-1.6,0-2.3,2.1-1,3l9.9,7.3l-3.7,11.8c-0.5,1.5,1.3,2.8,2.6,1.9l10.1-7.2
		l10.1,7.2c1.3,0.9,3-0.3,2.6-1.9l-3.7-11.8l9.9-7.3c1.3-1,0.6-3-1-3l-12.4-0.1l-3.9-11.7C242.3,85,240.1,85,239.6,86.5z"/>
</g>
</svg>
