<?xml version="1.0" encoding="utf-8"?>
<!-- Generator: Adobe Illustrator 21.0.0, SVG Export Plug-In . SVG Version: 6.00 Build 0)  -->
<svg version="1.1" id="Layer_1" xmlns="http://www.w3.org/2000/svg" xmlns:xlink="http://www.w3.org/1999/xlink" x="0px" y="0px"
	 viewBox="0 0 512 512" style="enable-background:new 0 0 512 512;" xml:space="preserve">
<style type="text/css">
	.st0{fill:#FF4B55;}
	.st1{fill:#F5F5F5;}
</style>
<path class="st0" d="M399.8,0H112.2C80.9,0,52.7,12.8,32.3,33.4c-9.8,10-17.8,21.8-23.4,34.9C3.2,81.8,0,96.6,0,112.2v24v41.2v76.9
	v58.3v87.2C0,461.8,50.2,512,112.2,512h287.6c62,0,112.2-50.2,112.2-112.2V112.2C512,50.2,461.8,0,399.8,0z"/>
<path class="st1" d="M364.4,207.1h-69v-69c0-5.4-4.4-9.9-9.9-9.9h-59.1c-5.4,0-9.9,4.4-9.9,9.9v69h-69c-5.4,0-9.9,4.4-9.9,9.9V276
	c0,5.4,4.4,9.9,9.9,9.9h69v69c0,5.4,4.4,9.9,9.9,9.9h59.1c5.4,0,9.9-4.4,9.9-9.9v-69h69c5.4,0,9.9-4.4,9.9-9.9v-59.1
	C374.2,211.5,369.8,207.1,364.4,207.1z"/>
</svg>
