<?xml version="1.0" encoding="utf-8"?>
<!-- Generator: Adobe Illustrator 21.0.0, SVG Export Plug-In . SVG Version: 6.00 Build 0)  -->
<svg version="1.1" id="Layer_1" xmlns="http://www.w3.org/2000/svg" xmlns:xlink="http://www.w3.org/1999/xlink" x="0px" y="0px"
	 viewBox="0 0 512 512" style="enable-background:new 0 0 512 512;" xml:space="preserve">
<style type="text/css">
	.st0{fill:#F5F5F5;}
	.st1{fill:#FF4B55;}
	.st2{fill:#41479B;}
</style>
<g>
	<rect y="118.2" class="st0" width="512" height="39.4"/>
	<path class="st0" d="M485.3,39.4H26.7C17,50.8,9.6,64.1,5,78.8h502C502.4,64.1,495,50.8,485.3,39.4z"/>
	<rect y="196.9" class="st0" width="512" height="39.4"/>
	<rect y="275.7" class="st0" width="512" height="39.4"/>
	<rect y="354.5" class="st0" width="512" height="39.4"/>
	<path class="st0" d="M507,433.2H5c4.5,14.6,12,28,21.7,39.4h458.5C495,461.2,502.4,447.9,507,433.2z"/>
</g>
<g>
	<path class="st1" d="M400,0H112C77.9,0,47.3,15.3,26.7,39.4h458.5C464.7,15.3,434.1,0,400,0z"/>
	<rect y="157.5" class="st1" width="512" height="39.4"/>
	<path class="st1" d="M512,112c0-11.6-1.8-22.7-5-33.2H5C1.8,89.3,0,100.4,0,112v6.2h512V112z"/>
	<rect y="236.3" class="st1" width="512" height="39.4"/>
	<path class="st1" d="M512,400v-6.2H0v6.2c0,11.6,1.8,22.7,5,33.2h502C510.2,422.7,512,411.6,512,400z"/>
	<path class="st1" d="M485.3,472.6H26.7C47.3,496.7,77.9,512,112,512h288C434.1,512,464.7,496.7,485.3,472.6z"/>
	<rect y="315.1" class="st1" width="512" height="39.4"/>
</g>
<path class="st2" d="M275.7,0H112C50.1,0,0,50.1,0,112v163.7h275.7V0z"/>
<g>
	<path class="st0" d="M29.7,43.1c-0.3,0.8,0.7,1.5,1.4,1l5.5-3.9l5.5,3.9c0.7,0.5,1.7-0.2,1.4-1l-2-6.4l5.4-4
		c0.7-0.5,0.3-1.6-0.5-1.6L39.6,31l-1.1-3.4c-2.9,2.5-5.6,5.2-8.2,8l1.6,1.2L29.7,43.1z"/>
	<path class="st0" d="M37.5,77.8l2.1,6.4l6.7,0.1c0.9,0,1.2,1.1,0.5,1.6l-5.4,4l2,6.4c0.3,0.8-0.7,1.5-1.4,1l-5.5-3.9l-5.5,3.9
		c-0.7,0.5-1.7-0.2-1.4-1l2-6.4l-5.4-4c-0.7-0.5-0.3-1.6,0.5-1.6l6.7-0.1l2.1-6.4C36,76.9,37.2,76.9,37.5,77.8z"/>
	<path class="st0" d="M37.5,136.7l2.1,6.4l6.7,0.1c0.9,0,1.2,1.1,0.5,1.6l-5.4,4l2,6.4c0.3,0.8-0.7,1.5-1.4,1l-5.5-3.9l-5.5,3.9
		c-0.7,0.5-1.7-0.2-1.4-1l2-6.4l-5.4-4c-0.7-0.5-0.3-1.6,0.5-1.6l6.7-0.1l2.1-6.4C36,135.9,37.2,135.9,37.5,136.7z"/>
	<path class="st0" d="M37.5,190.8l2.1,6.4l6.7,0.1c0.9,0,1.2,1.1,0.5,1.6l-5.4,4l2,6.4c0.3,0.8-0.7,1.5-1.4,1l-5.5-3.9l-5.5,3.9
		c-0.7,0.5-1.7-0.2-1.4-1l2-6.4l-5.4-4c-0.7-0.5-0.3-1.6,0.5-1.6l6.7-0.1l2.1-6.4C36,190,37.2,190,37.5,190.8z"/>
	<path class="st0" d="M37.5,240.1l2.1,6.4l6.7,0.1c0.9,0,1.2,1.1,0.5,1.6l-5.4,4l2,6.4c0.3,0.8-0.7,1.5-1.4,1l-5.5-3.9l-5.5,3.9
		c-0.7,0.5-1.7-0.2-1.4-1l2-6.4l-5.4-4c-0.7-0.5-0.3-1.6,0.5-1.6l6.7-0.1l2.1-6.4C36,239.3,37.2,239.3,37.5,240.1z"/>
	<path class="st0" d="M63.3,49.8l2.1,6.4l6.7,0.1c0.9,0,1.2,1.1,0.5,1.6l-5.4,4l2,6.4c0.3,0.8-0.7,1.5-1.4,1l-5.5-3.9L57,69.2
		c-0.7,0.5-1.7-0.2-1.4-1l2-6.4l-5.4-4c-0.7-0.5-0.3-1.6,0.5-1.6l6.7-0.1l2.1-6.4C61.9,49,63,49,63.3,49.8z"/>
	<path class="st0" d="M63.3,108.7l2.1,6.4l6.7,0.1c0.9,0,1.2,1.1,0.5,1.6l-5.4,4l2,6.4c0.3,0.8-0.7,1.5-1.4,1l-5.5-3.9l-5.5,3.9
		c-0.7,0.5-1.7-0.2-1.4-1l2-6.4l-5.4-4c-0.7-0.5-0.3-1.6,0.5-1.6l6.7-0.1l2.1-6.4C61.9,107.9,63,107.9,63.3,108.7z"/>
	<path class="st0" d="M63.3,164.7l2.1,6.4l6.7,0.1c0.9,0,1.2,1.1,0.5,1.6l-5.4,4l2,6.4c0.3,0.8-0.7,1.5-1.4,1l-5.5-3.9l-5.5,3.9
		c-0.7,0.5-1.7-0.2-1.4-1l2-6.4l-5.4-4c-0.7-0.5-0.3-1.6,0.5-1.6l6.7-0.1l2.1-6.4C61.9,163.9,63,163.9,63.3,164.7z"/>
	<path class="st0" d="M63.3,215l2.1,6.4l6.7,0.1c0.9,0,1.2,1.1,0.5,1.6l-5.4,4l2,6.4c0.3,0.8-0.7,1.5-1.4,1l-5.5-3.9l-5.5,3.9
		c-0.7,0.5-1.7-0.2-1.4-1l2-6.4l-5.4-4c-0.7-0.5-0.3-1.6,0.5-1.6l6.7-0.1l2.1-6.4C61.9,214.2,63,214.2,63.3,215z"/>
	<path class="st0" d="M89.2,24.6l2.1,6.4L98,31c0.9,0,1.2,1.1,0.5,1.6l-5.4,4l2,6.4c0.3,0.8-0.7,1.5-1.4,1l-5.5-3.9l-5.5,3.9
		c-0.7,0.5-1.7-0.2-1.4-1l2-6.4l-5.4-4c-0.7-0.5-0.3-1.6,0.5-1.6l6.7-0.1l2.1-6.4C87.7,23.8,88.9,23.8,89.2,24.6z"/>
	<path class="st0" d="M89.2,77.8l2.1,6.4l6.7,0.1c0.9,0,1.2,1.1,0.5,1.6l-5.4,4l2,6.4c0.3,0.8-0.7,1.5-1.4,1l-5.5-3.9l-5.5,3.9
		c-0.7,0.5-1.7-0.2-1.4-1l2-6.4l-5.4-4c-0.7-0.5-0.3-1.6,0.5-1.6l6.7-0.1l2.1-6.4C87.7,76.9,88.9,76.9,89.2,77.8z"/>
	<path class="st0" d="M89.2,136.7l2.1,6.4l6.7,0.1c0.9,0,1.2,1.1,0.5,1.6l-5.4,4l2,6.4c0.3,0.8-0.7,1.5-1.4,1l-5.5-3.9l-5.5,3.9
		c-0.7,0.5-1.7-0.2-1.4-1l2-6.4l-5.4-4c-0.7-0.5-0.3-1.6,0.5-1.6l6.7-0.1l2.1-6.4C87.7,135.9,88.9,135.9,89.2,136.7z"/>
	<path class="st0" d="M89.2,190.8l2.1,6.4l6.7,0.1c0.9,0,1.2,1.1,0.5,1.6l-5.4,4l2,6.4c0.3,0.8-0.7,1.5-1.4,1l-5.5-3.9l-5.5,3.9
		c-0.7,0.5-1.7-0.2-1.4-1l2-6.4l-5.4-4c-0.7-0.5-0.3-1.6,0.5-1.6l6.7-0.1l2.1-6.4C87.7,190,88.9,190,89.2,190.8z"/>
	<path class="st0" d="M89.2,240.1l2.1,6.4l6.7,0.1c0.9,0,1.2,1.1,0.5,1.6l-5.4,4l2,6.4c0.3,0.8-0.7,1.5-1.4,1l-5.5-3.9l-5.5,3.9
		c-0.7,0.5-1.7-0.2-1.4-1l2-6.4l-5.4-4c-0.7-0.5-0.3-1.6,0.5-1.6l6.7-0.1l2.1-6.4C87.7,239.3,88.9,239.3,89.2,240.1z"/>
	<path class="st0" d="M115,49.8l2.1,6.4l6.7,0.1c0.9,0,1.2,1.1,0.5,1.6l-5.4,4l2,6.4c0.3,0.8-0.7,1.5-1.4,1l-5.5-3.9l-5.5,3.9
		c-0.7,0.5-1.7-0.2-1.4-1l2-6.4l-5.4-4c-0.7-0.5-0.3-1.6,0.5-1.6l6.7-0.1l2.1-6.4C113.6,49,114.8,49,115,49.8z"/>
	<path class="st0" d="M115,108.7l2.1,6.4l6.7,0.1c0.9,0,1.2,1.1,0.5,1.6l-5.4,4l2,6.4c0.3,0.8-0.7,1.5-1.4,1l-5.5-3.9l-5.5,3.9
		c-0.7,0.5-1.7-0.2-1.4-1l2-6.4l-5.4-4c-0.7-0.5-0.3-1.6,0.5-1.6l6.7-0.1l2.1-6.4C113.6,107.9,114.8,107.9,115,108.7z"/>
	<path class="st0" d="M115,164.7l2.1,6.4l6.7,0.1c0.9,0,1.2,1.1,0.5,1.6l-5.4,4l2,6.4c0.3,0.8-0.7,1.5-1.4,1l-5.5-3.9l-5.5,3.9
		c-0.7,0.5-1.7-0.2-1.4-1l2-6.4l-5.4-4c-0.7-0.5-0.3-1.6,0.5-1.6l6.7-0.1l2.1-6.4C113.6,163.9,114.8,163.9,115,164.7z"/>
	<path class="st0" d="M115,215l2.1,6.4l6.7,0.1c0.9,0,1.2,1.1,0.5,1.6l-5.4,4l2,6.4c0.3,0.8-0.7,1.5-1.4,1l-5.5-3.9l-5.5,3.9
		c-0.7,0.5-1.7-0.2-1.4-1l2-6.4l-5.4-4c-0.7-0.5-0.3-1.6,0.5-1.6l6.7-0.1l2.1-6.4C113.6,214.2,114.8,214.2,115,215z"/>
	<path class="st0" d="M140.9,24.6L143,31l6.7,0.1c0.9,0,1.2,1.1,0.5,1.6l-5.4,4l2,6.4c0.3,0.8-0.7,1.5-1.4,1l-5.5-3.9l-5.5,3.9
		c-0.7,0.5-1.7-0.2-1.4-1l2-6.4l-5.4-4c-0.7-0.5-0.3-1.6,0.5-1.6l6.7-0.1l2.1-6.4C139.5,23.8,140.6,23.8,140.9,24.6z"/>
	<path class="st0" d="M140.9,77.8l2.1,6.4l6.7,0.1c0.9,0,1.2,1.1,0.5,1.6l-5.4,4l2,6.4c0.3,0.8-0.7,1.5-1.4,1l-5.5-3.9l-5.5,3.9
		c-0.7,0.5-1.7-0.2-1.4-1l2-6.4l-5.4-4c-0.7-0.5-0.3-1.6,0.5-1.6l6.7-0.1l2.1-6.4C139.5,76.9,140.6,76.9,140.9,77.8z"/>
	<path class="st0" d="M140.9,136.7l2.1,6.4l6.7,0.1c0.9,0,1.2,1.1,0.5,1.6l-5.4,4l2,6.4c0.3,0.8-0.7,1.5-1.4,1l-5.5-3.9l-5.5,3.9
		c-0.7,0.5-1.7-0.2-1.4-1l2-6.4l-5.4-4c-0.7-0.5-0.3-1.6,0.5-1.6l6.7-0.1l2.1-6.4C139.5,135.9,140.6,135.9,140.9,136.7z"/>
	<path class="st0" d="M140.9,190.8l2.1,6.4l6.7,0.1c0.9,0,1.2,1.1,0.5,1.6l-5.4,4l2,6.4c0.3,0.8-0.7,1.5-1.4,1l-5.5-3.9l-5.5,3.9
		c-0.7,0.5-1.7-0.2-1.4-1l2-6.4l-5.4-4c-0.7-0.5-0.3-1.6,0.5-1.6l6.7-0.1l2.1-6.4C139.5,190,140.6,190,140.9,190.8z"/>
	<path class="st0" d="M140.9,240.1l2.1,6.4l6.7,0.1c0.9,0,1.2,1.1,0.5,1.6l-5.4,4l2,6.4c0.3,0.8-0.7,1.5-1.4,1l-5.5-3.9l-5.5,3.9
		c-0.7,0.5-1.7-0.2-1.4-1l2-6.4l-5.4-4c-0.7-0.5-0.3-1.6,0.5-1.6l6.7-0.1l2.1-6.4C139.5,239.3,140.6,239.3,140.9,240.1z"/>
	<path class="st0" d="M166.8,49.8l2.1,6.4l6.7,0.1c0.9,0,1.2,1.1,0.5,1.6l-5.4,4l2,6.4c0.3,0.8-0.7,1.5-1.4,1l-5.5-3.9l-5.5,3.9
		c-0.7,0.5-1.7-0.2-1.4-1l2-6.4l-5.4-4c-0.7-0.5-0.3-1.6,0.5-1.6l6.7-0.1l2.1-6.4C165.3,49,166.5,49,166.8,49.8z"/>
	<path class="st0" d="M166.8,108.7l2.1,6.4l6.7,0.1c0.9,0,1.2,1.1,0.5,1.6l-5.4,4l2,6.4c0.3,0.8-0.7,1.5-1.4,1l-5.5-3.9l-5.5,3.9
		c-0.7,0.5-1.7-0.2-1.4-1l2-6.4l-5.4-4c-0.7-0.5-0.3-1.6,0.5-1.6l6.7-0.1l2.1-6.4C165.3,107.9,166.5,107.9,166.8,108.7z"/>
	<path class="st0" d="M166.8,164.7l2.1,6.4l6.7,0.1c0.9,0,1.2,1.1,0.5,1.6l-5.4,4l2,6.4c0.3,0.8-0.7,1.5-1.4,1l-5.5-3.9l-5.5,3.9
		c-0.7,0.5-1.7-0.2-1.4-1l2-6.4l-5.4-4c-0.7-0.5-0.3-1.6,0.5-1.6l6.7-0.1l2.1-6.4C165.3,163.9,166.5,163.9,166.8,164.7z"/>
	<path class="st0" d="M166.8,215l2.1,6.4l6.7,0.1c0.9,0,1.2,1.1,0.5,1.6l-5.4,4l2,6.4c0.3,0.8-0.7,1.5-1.4,1l-5.5-3.9l-5.5,3.9
		c-0.7,0.5-1.7-0.2-1.4-1l2-6.4l-5.4-4c-0.7-0.5-0.3-1.6,0.5-1.6l6.7-0.1l2.1-6.4C165.3,214.2,166.5,214.2,166.8,215z"/>
	<path class="st0" d="M192.6,24.6l2.1,6.4l6.7,0.1c0.9,0,1.2,1.1,0.5,1.6l-5.4,4l2,6.4c0.3,0.8-0.7,1.5-1.4,1l-5.5-3.9l-5.5,3.9
		c-0.7,0.5-1.7-0.2-1.4-1l2-6.4l-5.4-4c-0.7-0.5-0.3-1.6,0.5-1.6l6.7-0.1l2.1-6.4C191.2,23.8,192.4,23.8,192.6,24.6z"/>
	<path class="st0" d="M192.6,77.8l2.1,6.4l6.7,0.1c0.9,0,1.2,1.1,0.5,1.6l-5.4,4l2,6.4c0.3,0.8-0.7,1.5-1.4,1l-5.5-3.9l-5.5,3.9
		c-0.7,0.5-1.7-0.2-1.4-1l2-6.4l-5.4-4c-0.7-0.5-0.3-1.6,0.5-1.6l6.7-0.1l2.1-6.4C191.2,76.9,192.4,76.9,192.6,77.8z"/>
	<path class="st0" d="M192.6,136.7l2.1,6.4l6.7,0.1c0.9,0,1.2,1.1,0.5,1.6l-5.4,4l2,6.4c0.3,0.8-0.7,1.5-1.4,1l-5.5-3.9l-5.5,3.9
		c-0.7,0.5-1.7-0.2-1.4-1l2-6.4l-5.4-4c-0.7-0.5-0.3-1.6,0.5-1.6l6.7-0.1l2.1-6.4C191.2,135.9,192.4,135.9,192.6,136.7z"/>
	<path class="st0" d="M192.6,190.8l2.1,6.4l6.7,0.1c0.9,0,1.2,1.1,0.5,1.6l-5.4,4l2,6.4c0.3,0.8-0.7,1.5-1.4,1l-5.5-3.9l-5.5,3.9
		c-0.7,0.5-1.7-0.2-1.4-1l2-6.4l-5.4-4c-0.7-0.5-0.3-1.6,0.5-1.6l6.7-0.1l2.1-6.4C191.2,190,192.4,190,192.6,190.8z"/>
	<path class="st0" d="M192.6,240.1l2.1,6.4l6.7,0.1c0.9,0,1.2,1.1,0.5,1.6l-5.4,4l2,6.4c0.3,0.8-0.7,1.5-1.4,1l-5.5-3.9l-5.5,3.9
		c-0.7,0.5-1.7-0.2-1.4-1l2-6.4l-5.4-4c-0.7-0.5-0.3-1.6,0.5-1.6l6.7-0.1l2.1-6.4C191.2,239.3,192.4,239.3,192.6,240.1z"/>
	<path class="st0" d="M218.5,49.8l2.1,6.4l6.7,0.1c0.9,0,1.2,1.1,0.5,1.6l-5.4,4l2,6.4c0.3,0.8-0.7,1.5-1.4,1l-5.5-3.9l-5.5,3.9
		c-0.7,0.5-1.7-0.2-1.4-1l2-6.4l-5.4-4c-0.7-0.5-0.3-1.6,0.5-1.6l6.7-0.1l2.1-6.4C217.1,49,218.2,49,218.5,49.8z"/>
	<path class="st0" d="M218.5,108.7l2.1,6.4l6.7,0.1c0.9,0,1.2,1.1,0.5,1.6l-5.4,4l2,6.4c0.3,0.8-0.7,1.5-1.4,1l-5.5-3.9l-5.5,3.9
		c-0.7,0.5-1.7-0.2-1.4-1l2-6.4l-5.4-4c-0.7-0.5-0.3-1.6,0.5-1.6l6.7-0.1l2.1-6.4C217.1,107.9,218.2,107.9,218.5,108.7z"/>
	<path class="st0" d="M218.5,164.7l2.1,6.4l6.7,0.1c0.9,0,1.2,1.1,0.5,1.6l-5.4,4l2,6.4c0.3,0.8-0.7,1.5-1.4,1l-5.5-3.9l-5.5,3.9
		c-0.7,0.5-1.7-0.2-1.4-1l2-6.4l-5.4-4c-0.7-0.5-0.3-1.6,0.5-1.6l6.7-0.1l2.1-6.4C217.1,163.9,218.2,163.9,218.5,164.7z"/>
	<path class="st0" d="M218.5,215l2.1,6.4l6.7,0.1c0.9,0,1.2,1.1,0.5,1.6l-5.4,4l2,6.4c0.3,0.8-0.7,1.5-1.4,1l-5.5-3.9l-5.5,3.9
		c-0.7,0.5-1.7-0.2-1.4-1l2-6.4l-5.4-4c-0.7-0.5-0.3-1.6,0.5-1.6l6.7-0.1l2.1-6.4C217.1,214.2,218.2,214.2,218.5,215z"/>
	<path class="st0" d="M244.4,24.6l2.1,6.4l6.7,0.1c0.9,0,1.2,1.1,0.5,1.6l-5.4,4l2,6.4c0.3,0.8-0.7,1.5-1.4,1l-5.5-3.9l-5.5,3.9
		c-0.7,0.5-1.7-0.2-1.4-1l2-6.4l-5.4-4c-0.7-0.5-0.3-1.6,0.5-1.6l6.7-0.1l2.1-6.4C242.9,23.8,244.1,23.8,244.4,24.6z"/>
	<path class="st0" d="M244.4,77.8l2.1,6.4l6.7,0.1c0.9,0,1.2,1.1,0.5,1.6l-5.4,4l2,6.4c0.3,0.8-0.7,1.5-1.4,1l-5.5-3.9l-5.5,3.9
		c-0.7,0.5-1.7-0.2-1.4-1l2-6.4l-5.4-4c-0.7-0.5-0.3-1.6,0.5-1.6l6.7-0.1l2.1-6.4C242.9,76.9,244.1,76.9,244.4,77.8z"/>
	<path class="st0" d="M244.4,136.7l2.1,6.4l6.7,0.1c0.9,0,1.2,1.1,0.5,1.6l-5.4,4l2,6.4c0.3,0.8-0.7,1.5-1.4,1l-5.5-3.9l-5.5,3.9
		c-0.7,0.5-1.7-0.2-1.4-1l2-6.4l-5.4-4c-0.7-0.5-0.3-1.6,0.5-1.6l6.7-0.1l2.1-6.4C242.9,135.9,244.1,135.9,244.4,136.7z"/>
	<path class="st0" d="M244.4,190.8l2.1,6.4l6.7,0.1c0.9,0,1.2,1.1,0.5,1.6l-5.4,4l2,6.4c0.3,0.8-0.7,1.5-1.4,1l-5.5-3.9l-5.5,3.9
		c-0.7,0.5-1.7-0.2-1.4-1l2-6.4l-5.4-4c-0.7-0.5-0.3-1.6,0.5-1.6l6.7-0.1l2.1-6.4C242.9,190,244.1,190,244.4,190.8z"/>
	<path class="st0" d="M244.4,240.1l2.1,6.4l6.7,0.1c0.9,0,1.2,1.1,0.5,1.6l-5.4,4l2,6.4c0.3,0.8-0.7,1.5-1.4,1l-5.5-3.9l-5.5,3.9
		c-0.7,0.5-1.7-0.2-1.4-1l2-6.4l-5.4-4c-0.7-0.5-0.3-1.6,0.5-1.6l6.7-0.1l2.1-6.4C242.9,239.3,244.1,239.3,244.4,240.1z"/>
</g>
</svg>
