<?xml version="1.0" encoding="utf-8"?>
<!-- Generator: Adobe Illustrator 21.0.0, SVG Export Plug-In . SVG Version: 6.00 Build 0)  -->
<svg version="1.1" id="Layer_1" xmlns="http://www.w3.org/2000/svg" xmlns:xlink="http://www.w3.org/1999/xlink" x="0px" y="0px"
	 viewBox="0 0 512 512" style="enable-background:new 0 0 512 512;" xml:space="preserve">
<style type="text/css">
	.st0{fill:#1D71B9;}
	.st1{fill:#FFFFFF;}
	.st2{display:none;}
	.st3{display:inline;fill:#FFFFFF;}
</style>
<path class="st0" d="M400,0H112C50.1,0,0,50.1,0,112v288c0,61.9,50.1,112,112,112h288c61.9,0,112-50.1,112-112V112
	C512,50.1,461.9,0,400,0z"/>
<g>
	<path class="st1" d="M112.6,332.6l89.7-123.4v-1.1H121v-33.7h136.6V198l-87.7,121.8v1.1H259v33.7H112.6V332.6z"/>
	<path class="st1" d="M284.4,265.6c0-16.3-0.6-30.2-1.1-41.7h36.9l2,17.9h0.8c5.6-8.3,19.6-20.8,42.2-20.8
		c27.9,0,48.9,17.6,48.9,56.1v77.5h-42.5v-72.4c0-16.8-6.1-28.3-21.5-28.3c-11.7,0-18.7,7.7-21.5,15.2c-1.1,2.4-1.7,6.4-1.7,10.1
		v75.3h-42.5L284.4,265.6L284.4,265.6z"/>
</g>
<g class="st2">
	<path class="st3" d="M193.7,78.9L214.4,49v-0.3h-18.8v-8.2h31.7v5.7L207,75.7V76h20.6v8.2h-33.9L193.7,78.9L193.7,78.9z"/>
	<path class="st3" d="M243.7,40.5v43.6h-9.9V40.5H243.7z"/>
	<path class="st3" d="M252.2,84.2V40.5h11.5l9.1,16c2.6,4.6,5.2,10,7.1,15h0.2c-0.6-5.8-0.8-11.7-0.8-18.2V40.5h9.1v43.6H278
		l-9.3-16.8c-2.6-4.7-5.4-10.3-7.6-15.4l-0.2,0.1c0.3,5.8,0.4,11.9,0.4,19v13.1L252.2,84.2L252.2,84.2z"/>
	<path class="st3" d="M328.9,82.9c-1.8,0.9-5.9,1.9-11.2,1.9c-15.1,0-22.8-9.4-22.8-21.8c0-14.9,10.6-23.2,23.8-23.2
		c5.1,0,9,1,10.7,1.9l-2,7.8c-2-0.8-4.8-1.6-8.3-1.6c-7.8,0-13.9,4.7-13.9,14.4c0,8.7,5.2,14.2,14,14.2c3,0,6.3-0.6,8.2-1.4
		L328.9,82.9z"/>
</g>
</svg>
