<?xml version="1.0" encoding="utf-8"?>
<!-- Generator: Adobe Illustrator 21.0.0, SVG Export Plug-In . SVG Version: 6.00 Build 0)  -->
<svg version="1.1" id="Capa_1" xmlns="http://www.w3.org/2000/svg" xmlns:xlink="http://www.w3.org/1999/xlink" x="0px" y="0px"
	 viewBox="0 0 512 512" style="enable-background:new 0 0 512 512;" xml:space="preserve">
<style type="text/css">
	.st0{fill:#80F46C;}
	.st1{fill:#5F85E1;}
</style>
<g transform="translate(-1 -1)">
	<g transform="translate(2 1)">
		<path class="st0" d="M502.5,59.7v76.8c0,9.4-7.7,17-17.1,17.1h-85.3l-36.2,48.2c-2.3,2.7-6.1,3.7-9.4,2.4s-5.6-4.4-5.6-8v-42.7
			h-17.1c-3.4,0-6.7-1-9.6-2.9c-4.7-3.2-7.5-8.5-7.5-14.2V59.8c0-9.4,7.7-17,17.1-17.1h153.6C494.8,42.7,502.5,50.3,502.5,59.7z"/>
	</g>
	<g>
		<path class="st1" d="M239.1,513c102.2-0.2,193-65.4,225.8-162.3c11.8,5.2,25.5,3.5,35.6-4.5c7-5.7,11.5-14,12.4-23s-1.8-18-7.5-25
			L469.5,254c-0.4-0.4-0.8-0.9-1.2-1.2c-0.7-0.8-1.5-1.6-2.3-2.3c-0.8-0.7-1.7-1.4-2.5-2.1c-0.8-0.6-1.7-1.2-2.6-1.8
			c-0.9-0.6-1.9-1.1-2.9-1.6c-0.9-0.5-1.9-0.9-2.9-1.3c-1.1-0.4-2.1-0.7-3.2-1c-1-0.3-2-0.5-3-0.7c-1.2-0.2-2.4-0.3-3.7-0.4
			c-0.9-0.1-1.9-0.2-2.8-0.1c-1.5,0.1-3,0.2-4.4,0.4c-0.7,0.1-1.5,0.2-2.2,0.4c-1,0.2-2.1,0.6-3.1,0.9l2.8,8.1l-3.7-7.8
			c-0.8,0.2-1.6,0.5-2.3,0.8c-0.8,0.4-1.5,0.7-2.2,1.2l4.3,7.4l-5.3-6.8c-0.7,0.4-1.3,0.7-2,1.2c-0.3,0.1-0.5,0.3-0.8,0.5
			l-45.9,32.5c-11.8,8.4-17.1,23.3-13.1,37.2c4,13.9,16.3,23.8,30.8,24.7c-29.7,70.2-102.5,112-178.1,102.2s-135.3-69-146-144.5
			s30.4-148.8,100.3-179.2c1.5,13.9,11.3,25.5,24.7,29.2c13.5,3.7,27.8-1.1,36.3-12.2l34-44.7c0.2-0.2,0.4-0.5,0.5-0.8
			c0.7-1,1.3-2,1.9-3.1c0.5-0.9,1-1.7,1.4-2.6c0.4-1,0.8-1.9,1.1-2.9c0.4-1.1,0.7-2.2,1-3.3c0.2-0.9,0.3-1.8,0.5-2.9
			c0.2-1.1,0.3-2.2,0.3-3.3c0.1-0.6,0.1-1.2,0.1-1.7c0-0.5,0-1.1-0.1-1.6c-0.1-1.2-0.2-2.5-0.4-3.7c-0.2-1-0.4-2-0.6-2.9
			c-0.3-1.1-0.6-2.2-1-3.3c-0.4-1-0.7-1.9-1.1-2.8c-0.5-1-1-2.1-1.6-3c-0.5-0.9-1.1-1.7-1.7-2.6c-0.6-0.9-1.4-1.7-2.1-2.6
			c-0.6-0.7-1.3-1.4-2-2.1c-0.3-0.3-0.9-0.9-1.2-1.2L218.2,9.3C205.9-1.3,188-1.8,175.2,8s-17,27.3-10,41.9
			C54,85.9-14.4,197.6,4,313.1S122.2,513.4,239.1,513z M181.5,62.8c3.1-0.8,5.4-3.3,6.1-6.4c0.7-3.1-0.4-6.3-2.8-8.4
			c-7.1-6.1-8-16.9-1.8-24.1s16.9-8,24.1-1.8l42.7,36.7c0.2,0.2,0.7,0.7,0.9,0.9c0.4,0.4,0.8,0.8,1.1,1.2c0.4,0.4,0.7,0.8,1.1,1.3
			c0.3,0.4,0.6,0.9,0.8,1.3c0.3,0.5,0.6,1,0.8,1.5c0.2,0.5,0.4,0.9,0.5,1.4c0.2,0.5,0.4,1.1,0.5,1.7c0.1,0.5,0.2,1,0.3,1.4
			c0.1,0.6,0.2,1.2,0.2,1.9c0,0.3,0,0.5,0.1,0.8c0,0.2,0,0.5,0,0.6c0,0.7-0.1,1.4-0.2,2.1c-0.1,0.4-0.1,0.8-0.2,1.2
			c-0.2,0.7-0.4,1.3-0.6,1.9c-0.1,0.4-0.3,0.8-0.4,1.2c-0.2,0.4-0.4,0.8-0.9,1.5c-0.3,0.4-0.5,0.9-1,1.7l-34,44.7
			c-5.8,7.3-16.4,8.7-23.9,3.3c-6-4.7-8.3-12.7-5.4-19.8c1.2-3.1,0.5-6.6-1.8-9c-2.3-2.4-5.8-3.3-8.9-2.2
			C96,128.1,44.4,210.3,54.5,297.2s79.3,155,166.3,163.7s168.4-44.2,195.6-127.2c1.1-3.3,0.1-6.9-2.5-9.1s-6.3-2.7-9.4-1.2
			c-8,3.9-17.6,1.1-22.2-6.6c-4.5-7.6-2.5-17.5,4.8-22.6l45.5-32.3c0.2-0.1,0.3-0.2,0.5-0.3c0.3-0.2,0.5-0.3,1.5-0.8
			c0.1,0,0.8-0.4,0.8-0.5l2.4-0.9c0.5-0.2,1.1-0.4,1.6-0.4c0.1,0,0.8-0.1,0.9-0.1c0.6-0.1,1.3-0.2,1.9-0.2l0.4,0
			c0.4,0,0.9,0.1,1,0.1c0.6,0,1.2,0.1,1.8,0.2c0.5,0.1,1,0.2,1.5,0.4c0.5,0.1,1.1,0.3,1.6,0.5c0.5,0.2,1,0.4,1.5,0.7
			c0.5,0.2,1,0.5,1.4,0.8c0.5,0.3,0.9,0.6,1.3,0.9c0.4,0.3,0.9,0.7,1.2,1c0.4,0.4,0.8,0.8,1.2,1.2c0.2,0.2,0.4,0.4,0.6,0.6
			l35.9,44.1c5.9,7.3,4.8,18.1-2.5,24c-7,5.5-17.1,4.7-23.2-1.8c-2.1-2.3-5.3-3.2-8.3-2.5c-3,0.7-5.4,3-6.2,6
			C423.6,437.8,325.4,505.8,218.9,496c-106.5-9.7-190.8-94.4-199.9-201S78.2,90.7,181.5,62.8z"/>
		<path class="st1" d="M487.4,35.2H333.8c-14.1,0-25.6,11.5-25.6,25.6v76.8c0,14.1,11.5,25.6,25.6,25.6h8.5v34.1
			c0,7.1,4.4,13.5,11.1,16c1.9,0.7,3.9,1.1,5.9,1.1c5.2-0.1,10-2.4,13.3-6.4l33.6-44.8h81.1c14.1,0,25.6-11.5,25.6-25.6V60.8
			C513,46.6,501.6,35.2,487.4,35.2z M496,137.6c0,4.7-3.8,8.5-8.5,8.5h-85.3c-2.7,0-5.2,1.3-6.8,3.4l-35.8,47.8v-42.7
			c0-4.7-3.8-8.5-8.5-8.5h-17.1c-4.7,0-8.5-3.8-8.5-8.5V60.8c0-4.7,3.8-8.5,8.5-8.5h153.6c4.7,0,8.5,3.8,8.5,8.5V137.6z"/>
		<path class="st1" d="M307,218.7c1.6-2.6,1.6-5.9,0.1-8.5c-1.5-2.7-4.3-4.3-7.3-4.4c-3-0.1-5.9,1.5-7.5,4.1l-51.2,85.3
			c-1.6,2.6-1.6,5.9-0.1,8.6c1.5,2.7,4.4,4.3,7.4,4.3h51.2v25.6c0,4.7,3.8,8.5,8.5,8.5s8.5-3.8,8.5-8.5v-25.6h17.1
			c4.7,0,8.5-3.8,8.5-8.5c0-4.7-3.8-8.5-8.5-8.5h-17.1v-21.3c0-4.7-3.8-8.5-8.5-8.5s-8.5,3.8-8.5,8.5v21.3h-36.2L307,218.7z"/>
		<path class="st1" d="M133.7,326.2c-3.5,1.8-5.4,5.7-4.5,9.6c0.9,3.8,4.3,6.6,8.3,6.6h76.8c4.7,0,8.5-3.8,8.5-8.5
			c0-4.7-3.8-8.5-8.5-8.5h-47.5c21.1-15.8,47.5-42.5,47.5-76.8c0-17.7-11-33.6-27.6-39.9c-16.6-6.3-35.3-1.6-47.1,11.7
			c-3.1,3.5-2.8,8.9,0.8,12c3.5,3.1,8.9,2.8,12-0.8c7-8,18.3-10.8,28.3-7c10,3.8,16.6,13.3,16.5,23.9
			C197.3,293.7,134.4,325.9,133.7,326.2z"/>
	</g>
</g>
</svg>
