<?xml version="1.0" encoding="utf-8"?>
<!-- Generator: Adobe Illustrator 21.0.0, SVG Export Plug-In . SVG Version: 6.00 Build 0)  -->
<svg version="1.1" id="Capa_1" xmlns="http://www.w3.org/2000/svg" xmlns:xlink="http://www.w3.org/1999/xlink" x="0px" y="0px"
	 viewBox="0 0 512 512" style="enable-background:new 0 0 512 512;" xml:space="preserve">
<style type="text/css">
	.st0{opacity:0.5;fill:#51AB45;}
	.st1{fill:#5F85E1;}
</style>
<circle class="st0" cx="408.7" cy="358.4" r="42.7"/>
<g>
	<g>
		<path class="st1" d="M0,426.7v51.2h512v-51.2H0z M494.9,460.8H17.1v-17.1h477.9L494.9,460.8L494.9,460.8z"/>
	</g>
</g>
<g>
	<g>
		<rect x="93.9" y="34.1" class="st1" width="17.1" height="59.7"/>
	</g>
</g>
<g>
	<g>
		<rect x="93.9" y="179.2" class="st1" width="17.1" height="25.6"/>
	</g>
</g>
<g>
	<g>
		<rect x="93.9" y="290.1" class="st1" width="17.1" height="25.6"/>
	</g>
</g>
<g>
	<g>
		<rect x="93.9" y="401.1" class="st1" width="17.1" height="25.6"/>
	</g>
</g>
<g>
	<g>
		<path class="st1" d="M102.4,307.2c-28.2,0-51.2,23-51.2,51.2s23,51.2,51.2,51.2s51.2-23,51.2-51.2S130.6,307.2,102.4,307.2z
			 M102.4,392.5c-18.8,0-34.1-15.3-34.1-34.1s15.3-34.1,34.1-34.1s34.1,15.3,34.1,34.1C136.5,377.2,121.2,392.5,102.4,392.5z"/>
	</g>
</g>
<g>
	<g>
		<path class="st1" d="M102.4,196.3c-28.2,0-51.2,23-51.2,51.2s23,51.2,51.2,51.2s51.2-23,51.2-51.2S130.6,196.3,102.4,196.3z
			 M102.4,281.6c-18.8,0-34.1-15.3-34.1-34.1s15.3-34.1,34.1-34.1s34.1,15.3,34.1,34.1S121.2,281.6,102.4,281.6z"/>
	</g>
</g>
<g>
	<g>
		<rect x="247.5" y="34.1" class="st1" width="17.1" height="170.7"/>
	</g>
</g>
<g>
	<g>
		<path class="st1" d="M256,307.2c-28.2,0-51.2,23-51.2,51.2s23,51.2,51.2,51.2s51.2-23,51.2-51.2S284.2,307.2,256,307.2z
			 M256,392.5c-18.8,0-34.1-15.3-34.1-34.1s15.3-34.1,34.1-34.1s34.1,15.3,34.1,34.1S274.8,392.5,256,392.5z"/>
	</g>
</g>
<g>
	<g>
		<rect x="401.1" y="34.1" class="st1" width="17.1" height="281.6"/>
	</g>
</g>
<g>
	<g>
		<path class="st1" d="M409.6,307.2c-28.2,0-51.2,23-51.2,51.2s23,51.2,51.2,51.2c28.2,0,51.2-23,51.2-51.2S437.8,307.2,409.6,307.2
			z M409.6,392.5c-18.8,0-34.1-15.3-34.1-34.1s15.3-34.1,34.1-34.1s34.1,15.3,34.1,34.1S428.4,392.5,409.6,392.5z"/>
	</g>
</g>
<g>
	<g>
		<path class="st1" d="M256,196.3c-28.2,0-51.2,23-51.2,51.2s23,51.2,51.2,51.2s51.2-23,51.2-51.2S284.2,196.3,256,196.3z
			 M256,281.6c-18.8,0-34.1-15.3-34.1-34.1s15.3-34.1,34.1-34.1s34.1,15.3,34.1,34.1S274.8,281.6,256,281.6z"/>
	</g>
</g>
<g>
	<g>
		<path class="st1" d="M102.4,85.3c-28.2,0-51.2,23-51.2,51.2s23,51.2,51.2,51.2s51.2-23,51.2-51.2S130.6,85.3,102.4,85.3z
			 M102.4,170.7c-18.8,0-34.1-15.3-34.1-34.1s15.3-34.1,34.1-34.1s34.1,15.3,34.1,34.1S121.2,170.7,102.4,170.7z"/>
	</g>
</g>
<g>
	<g>
		<rect x="247.5" y="290.1" class="st1" width="17.1" height="25.6"/>
	</g>
</g>
<g>
	<g>
		<rect x="247.5" y="401.1" class="st1" width="17.1" height="25.6"/>
	</g>
</g>
<g>
	<g>
		<rect x="401.1" y="401.1" class="st1" width="17.1" height="25.6"/>
	</g>
</g>
</svg>
