<?xml version="1.0" encoding="utf-8"?>
<!-- Generator: Adobe Illustrator 21.0.0, SVG Export Plug-In . SVG Version: 6.00 Build 0)  -->
<svg version="1.1" id="Слой_1" xmlns="http://www.w3.org/2000/svg" xmlns:xlink="http://www.w3.org/1999/xlink" x="0px" y="0px"
	 viewBox="0 0 311 283" style="enable-background:new 0 0 311 283;" xml:space="preserve">
<style type="text/css">
	.st0{fill:#FFFFFF;}
</style>
<g>
	<path class="st0" d="M151.9,79.9c-9.3,1.5-17.5-0.3-25.8-2.1C104.4,73,82.8,67.6,63.3,56.3c-4-2.3-7.6-5.4-10.9-8.6
		c-3.7-3.6-5.2-8-3.3-13.2c2-5.4,6.4-8,11.7-7.6c5.6,0.4,11.3,1.3,16.5,3.2c24.5,8.7,45.1,24,64.7,40.6
		C145.2,73.5,148.3,76.5,151.9,79.9z"/>
</g>
<path d="M201,80.5c5.6-1.9,11.3-3,16.9-4.5c14.9-4,29.3-9,40.4-20.5c11-11.5,12.9-27.2,5-39.9C255.1,2.6,239.9-3,225,1.5
	c-11.2,3.4-20,10.4-28.1,18.4c-16.3,16.4-28.1,35.8-38.3,56.3c-0.8,1.5-1.8,3-3.1,5.1c-1.1-2.1-1.7-3.4-2.5-4.6
	c-7.3-12.3-14-25-21.9-36.8C121.3,25.3,109.4,12.5,93.7,4c-1.2-0.6-2.5-1.2-3.7-1.7c-7.3-2.7-15.3-3-22.8-0.9
	c-3.2,0.9-6.2,1.9-7.9,2.9C41.4,15,37.9,38,51.4,53.8c8.3,9.7,19.1,15.4,31.1,18.9c9.3,2.8,18.9,5,28.4,7.5c-12.2,0-24.3,0-36.4,0
	C49.6,80.2,24.8,80.1,0,80v58h14v4c0,0.8,0,1.8,0,3c0,30.3,0,60.6,0,90.9c0,14,0.1,47,0.1,47s6.5,0.1,8.9,0.1
	c-0.1-0.3-0.2-98-0.1-146.5c0-2.1,0-4.3,0-7.2c-3.7,0-13.7-0.2-13.7-0.2S9,102,9,89.5h293.1v40.4h-13v50h8.2v-41.6h13.5V80.5H201z
	 M126.2,77.8C104.4,73,82.8,67.6,63.3,56.3c-4-2.3-7.6-5.4-10.9-8.6c-3.7-3.6-5.2-8-3.3-13.2c2-5.4,6.4-8,11.7-7.6
	c5.6,0.4,11.3,1.3,16.5,3.2c24.5,8.7,45.1,24,64.7,40.6c3.3,2.8,6.3,5.8,10,9.1C142.6,81.4,134.4,79.6,126.2,77.8z M158.4,80.2
	c8.6-7.1,16.8-14.5,25.6-21.3c15.5-11.9,31.6-22.7,50.2-29.1c5.8-2,12.4-3.2,18.4-2.8c9.4,0.6,14,10.7,8.4,18.4
	c-3.1,4.3-7.5,8.5-12.2,10.7c-12.5,5.7-25.2,11.2-38.3,15.2c-15,4.6-30.2,9.1-46.2,9C162.3,80.4,160.3,80.1,158.4,80.2z"/>
</svg>
