<?xml version="1.0" encoding="utf-8"?>
<!-- Generator: Adobe Illustrator 21.0.0, SVG Export Plug-In . SVG Version: 6.00 Build 0)  -->
<svg version="1.1" id="Capa_1" xmlns="http://www.w3.org/2000/svg" xmlns:xlink="http://www.w3.org/1999/xlink" x="0px" y="0px"
	 viewBox="0 0 512 512" style="enable-background:new 0 0 512 512;" xml:space="preserve">
<style type="text/css">
	.st0{fill:#80F46C;}
	.st1{fill:#5F85E1;}
</style>
<g>
	<g>
		<circle class="st0" cx="256" cy="311.7" r="88"/>
	</g>
	<g>
		<path class="st1" d="M256,249.1c-5.2,0-9.5,4.3-9.5,9.5v55.7c0,3.2,1.6,6.1,4.3,7.9l32.5,21.5c1.5,1,3.3,1.5,5.2,1.5
			c0.8,0,1.7-0.1,2.5-0.3c2.7-0.7,4.9-2.5,6.1-5c2.1-4.3,0.7-9.5-3.3-12.1l-28.3-18.7v-50.6C265.5,253.4,261.2,249.1,256,249.1z"/>
		<path class="st1" d="M448.8,32.3h-30.1v-9.5C418.8,9.1,407.6-2,394-2h-3.4c-13.7,0-24.8,11.1-24.8,24.8v9.5H146.3v-9.5
			C146.3,9.1,135.2-2,121.5-2H118C104.4-2,93.2,9.1,93.2,22.8v9.5H63.2c-21.8,0-39.5,17.7-39.5,39.6v143c0,5.2,4.3,9.5,9.5,9.5
			s9.5-4.3,9.5-9.5v-56.4h426.7v192.1c0,8.3-6.8,15.1-15.1,15.1h-50.1c-18.8,0-34.1,15.3-34.1,34.1v50.1c0,8.3-6.8,15.1-15.1,15.1
			H63.2c-11.3,0-20.5-9.2-20.5-20.5l0-197.2c0-5.2-4.3-9.5-9.5-9.5s-9.5,4.3-9.5,9.5l0,227.2c0,21.8,17.7,39.5,39.5,39.5h385.7
			c21.8,0,39.5-17.7,39.5-39.5V71.8C488.4,50,470.6,32.3,448.8,32.3z M469.4,398.3v76.2c0,11.3-9.2,20.5-20.5,20.5H63.1
			c-9.9,0-18.2-7.1-20.1-16.5c6.1,3.6,13,5.5,20.2,5.5h304.1c10.6,0,20.5-4.1,28-11.6L469.4,398.3z M389,451.8
			c0-0.6,0.1-1.3,0.1-1.9v-50.1c0-8.3,6.8-15.1,15.1-15.1h50.1c0.6,0,1.3,0,1.9-0.1L389,451.8z M42.6,71.8
			c0-11.3,9.2-20.6,20.5-20.6h30.1v20.1c0,13.7,11.1,24.8,24.8,24.8c5.2,0,9.5-4.3,9.5-9.5s-4.3-9.5-9.5-9.5c-3.2,0-5.8-2.6-5.8-5.8
			V51.3h253.5v20.1c0,13.7,11.1,24.8,24.8,24.8c5.2,0,9.5-4.3,9.5-9.5s-4.3-9.5-9.5-9.5c-3.2,0-5.8-2.6-5.8-5.8V51.3h64.1
			c11.3,0,20.6,9.2,20.6,20.6l0,67.6H42.6V71.8z M399.8,32.3h-15.1v-9.5c0-3.2,2.6-5.8,5.8-5.8h3.4c3.2,0,5.8,2.6,5.8,5.8V32.3z
			 M112.2,22.8c0-3.2,2.6-5.8,5.8-5.8h3.4c3.2,0,5.8,2.6,5.8,5.8v9.5h-15.1L112.2,22.8z"/>
		<path class="st1" d="M308.7,373.9c0,2.5,1,4.9,2.8,6.7c1.8,1.8,4.2,2.8,6.7,2.8c2.5,0,4.9-1,6.7-2.8
			c18.4-18.4,28.6-42.9,28.6-68.9c0-53.8-43.7-97.5-97.5-97.5c-53.8,0-97.5,43.7-97.5,97.5c0,53.8,43.7,97.5,97.5,97.5
			c13.1,0,25.9-2.6,37.9-7.7c4.8-2,7.1-7.6,5-12.5c-1-2.3-2.8-4.1-5.2-5.1c-2.4-1-4.9-0.9-7.3,0.1c-9.7,4.1-19.9,6.2-30.5,6.2
			c-43.3,0-78.5-35.2-78.5-78.5c0-43.3,35.2-78.5,78.5-78.5c43.3,0,78.5,35.2,78.5,78.5c0,20.9-8.2,40.6-23,55.5
			C309.7,369,308.7,371.4,308.7,373.9z"/>
	</g>
</g>
</svg>
