<?xml version="1.0" encoding="utf-8"?>
<!-- Generator: Adobe Illustrator 21.0.0, SVG Export Plug-In . SVG Version: 6.00 Build 0)  -->
<svg version="1.1" id="Capa_1" xmlns="http://www.w3.org/2000/svg" xmlns:xlink="http://www.w3.org/1999/xlink" x="0px" y="0px"
	 viewBox="0 0 512 512" style="enable-background:new 0 0 512 512;" xml:space="preserve">
<style type="text/css">
	.st0{fill:#80F46C;}
	.st1{fill:#5F85E1;}
</style>
<g>
	<path class="st0" d="M344.8,182.4h-22c0,0,0,0,0,0h-16.7c-2.8,0-5,2.2-5,5v159c0,2.8,2.2,5,5,5h18.7c0,0,0,0,0,0h20
		c2.8,0,5-2.2,5-5v-159C349.8,184.7,347.5,182.4,344.8,182.4z"/>
	<g>
		<path class="st1" d="M504.5,497H15v-84.2h25.6c4.1,0,7.5-3.4,7.5-7.5s-3.4-7.5-7.5-7.5H15v-84.5h25.6c4.1,0,7.5-3.4,7.5-7.5
			s-3.4-7.5-7.5-7.5H15v-86.9h25.6c4.1,0,7.5-3.4,7.5-7.5s-3.4-7.5-7.5-7.5H15v-82.1h25.6c4.1,0,7.5-3.4,7.5-7.5s-3.4-7.5-7.5-7.5
			H15V7.5C15,3.4,11.6,0,7.5,0S0,3.4,0,7.5v492c0,6.9,5.6,12.5,12.5,12.5h492c4.1,0,7.5-3.4,7.5-7.5S508.6,497,504.5,497z"/>
		<path class="st1" d="M110.1,369.8h11.9v35.4c0,4.1,3.4,7.5,7.5,7.5s7.5-3.4,7.5-7.5v-35.4h11.9c6.9,0,12.5-5.6,12.5-12.5V261
			c0-6.9-5.6-12.5-12.5-12.5h-11.9v-42.2c0-4.1-3.4-7.5-7.5-7.5s-7.5,3.4-7.5,7.5v42.2h-11.9c-6.9,0-12.5,5.6-12.5,12.5v96.3
			C97.6,364.2,103.2,369.8,110.1,369.8z M112.6,263.5h33.7v91.3h-33.7L112.6,263.5z"/>
		<path class="st1" d="M208.1,441.1h11.9v25.8c0,4.1,3.4,7.5,7.5,7.5s7.5-3.4,7.5-7.5v-25.8h11.9c6.9,0,12.5-5.6,12.5-12.5v-20.8
			c0-4.1-3.4-7.5-7.5-7.5s-7.5,3.4-7.5,7.5v18.3h-33.7V323.8h33.7v51.3c0,4.1,3.4,7.5,7.5,7.5s7.5-3.4,7.5-7.5v-53.8
			c0-6.9-5.6-12.5-12.5-12.5h-11.9V283c0-4.1-3.4-7.5-7.5-7.5s-7.5,3.4-7.5,7.5v25.8h-11.9c-6.9,0-12.5,5.6-12.5,12.5v107.3
			C195.6,435.5,201.2,441.1,208.1,441.1L208.1,441.1z"/>
		<path class="st1" d="M306.1,358.9h11.9v26.6c0,4.1,3.4,7.5,7.5,7.5s7.5-3.4,7.5-7.5v-26.6h11.9c6.9,0,12.5-5.6,12.5-12.5v-159
			c0-6.9-5.6-12.5-12.5-12.5h-11.9v-29.2c0-4.1-3.4-7.5-7.5-7.5s-7.5,3.4-7.5,7.5v29.2h-11.9c-6.9,0-12.5,5.6-12.5,12.5v14.3
			c0,4.1,3.4,7.5,7.5,7.5s7.5-3.4,7.5-7.5v-11.8h33.7v154h-33.7V234.4c0-4.1-3.4-7.5-7.5-7.5s-7.5,3.4-7.5,7.5v112.1
			C293.6,353.3,299.2,358.9,306.1,358.9L306.1,358.9z"/>
		<path class="st1" d="M404.1,243.7h11.9v42.1c0,4.1,3.4,7.5,7.5,7.5s7.5-3.4,7.5-7.5v-42.1h11.9c6.9,0,12.5-5.6,12.5-12.5v-18
			c0-4.1-3.4-7.5-7.5-7.5s-7.5,3.4-7.5,7.5v15.5h-33.7v-98h33.7v49.8c0,4.1,3.4,7.5,7.5,7.5s7.5-3.4,7.5-7.5v-52.3
			c0-6.9-5.6-12.5-12.5-12.5h-11.9V79.5c0-4.1-3.4-7.5-7.5-7.5s-7.5,3.4-7.5,7.5v36.3h-11.9c-6.9,0-12.5,5.6-12.5,12.5v103
			C391.6,238.1,397.2,243.7,404.1,243.7L404.1,243.7z"/>
		<path class="st1" d="M105.1,75.7h81.2c4.1,0,7.5-3.4,7.5-7.5s-3.4-7.5-7.5-7.5h-81.2c-4.1,0-7.5,3.4-7.5,7.5
			S100.9,75.7,105.1,75.7z"/>
		<path class="st1" d="M105.1,114.4h81.2c4.1,0,7.5-3.4,7.5-7.5s-3.4-7.5-7.5-7.5h-81.2c-4.1,0-7.5,3.4-7.5,7.5
			S100.9,114.4,105.1,114.4z"/>
		<path class="st1" d="M105.1,153.1h40.6c4.1,0,7.5-3.4,7.5-7.5s-3.4-7.5-7.5-7.5h-40.6c-4.1,0-7.5,3.4-7.5,7.5
			S100.9,153.1,105.1,153.1z"/>
	</g>
</g>
</svg>
