<?xml version="1.0" encoding="utf-8"?>
<!-- Generator: Adobe Illustrator 21.0.0, SVG Export Plug-In . SVG Version: 6.00 Build 0)  -->
<svg version="1.1" id="Capa_1" xmlns="http://www.w3.org/2000/svg" xmlns:xlink="http://www.w3.org/1999/xlink" x="0px" y="0px"
	 viewBox="0 0 512 512" style="enable-background:new 0 0 512 512;" xml:space="preserve">
<style type="text/css">
	.st0{display:none;fill:#80F46C;}
	.st1{fill:#5F85E1;}
	.st2{fill:#80F46C;}
</style>
<circle class="st0" cx="-164.3" cy="175" r="138.7"/>
<g>
	<path class="st1" d="M332.5,179.5C331.2,97.6,264.2,31.4,182,31.4c-83,0-150.6,67.5-150.6,150.6c0,82.2,66.2,149.2,148.1,150.5
		c1.3,81.9,68.3,148.1,150.5,148.1c83,0,150.6-67.5,150.6-150.6C480.6,247.8,414.4,180.8,332.5,179.5L332.5,179.5z M182,61.4
		c66.5,0,120.6,54.1,120.6,120.6S248.4,302.5,182,302.5S61.4,248.4,61.4,182S115.5,61.4,182,61.4L182,61.4z M330,450.6
		c-66.5,0-120.6-54.1-120.6-120.6c0,0,0,0,0,0c13.6-2.5,26.6-6.9,38.7-12.8c-0.7,4.2-1,8.5-1,12.9c0,45.7,37.2,82.9,82.9,82.9
		c24.2,0,47.1-10.5,62.8-28.9c5.4-6.3,4.7-15.8-1.6-21.2c-6.3-5.4-15.8-4.7-21.2,1.6c-10.1,11.7-24.7,18.4-40.1,18.4
		c-23.9,0-44.2-16-50.7-37.9h58.3c8.3,0,15-6.7,15-15s-6.7-15-15-15h-58.3c6.5-21.9,26.7-37.9,50.7-37.9c15.4,0,30,6.7,40.1,18.4
		c5.4,6.3,14.9,7,21.2,1.6c6.3-5.4,7-14.9,1.6-21.2c-15.8-18.4-38.7-28.9-62.8-28.9c-4.4,0-8.7,0.3-12.9,1
		c5.9-12.1,10.3-25.1,12.8-38.7h0c66.5,0,120.6,54.1,120.6,120.6S396.5,450.6,330,450.6L330,450.6z"/>
	<path class="st1" d="M182,227.2h-30.1c-8.3,0-15,6.7-15,15c0,8.3,6.7,15,15,15H167v3c0,8.3,6.7,15,15,15c8.3,0,15-6.7,15-15v-5.6
		c17.5-6.2,30.1-22.9,30.1-42.6c0-24.9-20.2-45.1-45.1-45.1c-8.3,0-15.1-6.8-15.1-15.1c0-8.3,6.8-15.1,15.1-15.1h30.1
		c8.3,0,15-6.7,15-15s-6.7-15-15-15H197v-3c0-8.3-6.7-15-15-15c-8.3,0-15,6.7-15,15v5.6c-17.5,6.2-30.1,22.9-30.1,42.6
		c0,24.9,20.2,45.1,45.1,45.1c8.3,0,15.1,6.8,15.1,15.1C197.1,220.4,190.3,227.2,182,227.2L182,227.2z"/>
	<path class="st2" d="M191.1,470.4C137,454,88,413.2,58.3,361.2l9.8,3.3c7.9,2.6,16.4-1.6,19-9.4c2.6-7.9-1.6-16.4-9.4-19
		l-43.3-14.6c-7.9-2.6-16.4,1.6-19,9.4L0.8,374.2c-2.6,7.9,1.6,16.4,9.4,19c1.6,0.5,3.2,0.8,4.8,0.8c6.3,0,12.1-4,14.2-10.2l2.8-8.2
		c13.9,24.5,31.9,47.2,52.8,66.6c28.8,26.6,62.5,46.3,97.6,56.9c1.4,0.4,2.9,0.6,4.3,0.6c6.4,0,12.4-4.2,14.4-10.7
		C203.5,481.2,199,472.8,191.1,470.4L191.1,470.4z"/>
	<path class="st2" d="M501.8,118.8c-7.8-2.6-16.4,1.6-19,9.4l-2.8,8.2c-14-24.7-32.1-47.5-53.2-66.9c-28.7-26.5-62.3-46-97.2-56.6
		c-7.9-2.4-16.3,2.1-18.7,10c-2.4,7.9,2.1,16.3,10,18.7c54,16.3,103.1,57.2,132.8,109.2l-9.8-3.3c-7.9-2.6-16.4,1.6-19,9.4
		c-2.6,7.9,1.6,16.4,9.4,19l43.3,14.6c1.6,0.5,3.2,0.8,4.8,0.8c6.3,0,12.1-4,14.2-10.2l14.6-43.3
		C513.9,129.9,509.6,121.4,501.8,118.8L501.8,118.8z"/>
</g>
</svg>
