<?xml version="1.0" encoding="utf-8"?>
<!-- Generator: Adobe Illustrator 21.0.0, SVG Export Plug-In . SVG Version: 6.00 Build 0)  -->
<svg version="1.1" id="Слой_1" xmlns="http://www.w3.org/2000/svg" xmlns:xlink="http://www.w3.org/1999/xlink" x="0px" y="0px"
	 viewBox="0 0 480 499" style="enable-background:new 0 0 480 499;" xml:space="preserve">
<style type="text/css">
	.st0{fill:#80F46C;}
	.st1{fill:#5F85E1;}
</style>
<rect x="38" y="65" class="st0" width="65" height="213"/>
<g>
	<path class="st1" d="M216,162h-22v-38c0-5.5-4.5-10-10-10c-5.5,0-10,4.5-10,10v38h-22c-5.5,0-10,4.5-10,10v208c0,5.5,4.5,10,10,10
		h22v30c0,5.5,4.5,10,10,10c5.5,0,10-4.5,10-10v-30h22c5.5,0,10-4.5,10-10V172C226,166.5,221.5,162,216,162z M206,182v188h-44V182
		H206z"/>
	<path class="st1" d="M328,130h-22V92c0-5.5-4.5-10-10-10c-5.5,0-10,4.5-10,10v38h-22c-5.5,0-10,4.5-10,10v208c0,5.5,4.5,10,10,10
		h22v30c0,5.5,4.5,10,10,10c5.5,0,10-4.5,10-10v-30h22c5.5,0,10-4.5,10-10V140C338,134.5,333.5,130,328,130z M318,150v188h-44V150
		H318z"/>
	<path class="st1" d="M440,226h-22v-38c0-5.5-4.5-10-10-10c-5.5,0-10,4.5-10,10v38h-22c-5.5,0-10,4.5-10,10v208c0,5.5,4.5,10,10,10
		h22v30c0,5.5,4.5,10,10,10c5.5,0,10-4.5,10-10v-30h22c5.5,0,10-4.5,10-10V236C450,230.5,445.5,226,440,226z M430,246v188h-44V246
		H430z"/>
	<path class="st0" d="M104,58H82V20c0-5.5-4.5-10-10-10s-10,4.5-10,10v38H40c-5.5,0-10,4.5-10,10v208c0,5.5,4.5,10,10,10h22v30
		c0,5.5,4.5,10,10,10s10-4.5,10-10v-30h22c5.5,0,10-4.5,10-10V68C114,62.5,109.5,58,104,58z M94,78v188H50V78H94z"/>
</g>
</svg>
