<?xml version="1.0" encoding="utf-8"?>
<!-- Generator: Adobe Illustrator 21.0.0, SVG Export Plug-In . SVG Version: 6.00 Build 0)  -->
<svg version="1.1" id="Layer_5" xmlns="http://www.w3.org/2000/svg" xmlns:xlink="http://www.w3.org/1999/xlink" x="0px" y="0px"
	 viewBox="0 0 512 512" style="enable-background:new 0 0 512 512;" xml:space="preserve">
<style type="text/css">
	.st0{fill:#80F46C;}
	.st1{fill:#5F85E1;}
</style>
<g>
	<g>
		<g>
			<path class="st0" d="M368,248c-66.2,0-120-53.8-120-120S301.8,8,368,8s120,53.8,120,120S434.2,248,368,248z M368,48
				c-44.1,0-80,35.9-80,80s35.9,80,80,80s80-35.9,80-80S412.1,48,368,48z"/>
		</g>
	</g>
	<g>
		<g>
			<path class="st1" d="M144,505C68.5,505,7,443.5,7,368v-2c0-26.6,7.7-52.5,22.3-74.8l94.8-145.4c4.4-6.8,11.8-10.8,19.9-10.8
				s15.5,4,19.9,10.8L231,248.7V240c0-16.4,14-30.7,40.6-41.3l0.7-0.3l0.5,0.6c3.8,5,7.4,9.3,11,12.9l1.1,1.1l-1.5,0.5
				c-21.2,7.5-34.4,17.6-34.4,26.4c0,8.9,12.6,18.6,33.6,26.1c23.2,8.3,53.6,12.9,85.4,12.9s62.2-4.6,85.4-12.9
				c21-7.5,33.6-17.3,33.6-26.1c0-8.8-13.2-18.9-34.4-26.4l-1.5-0.5l1.1-1.1c3.6-3.6,7.2-7.8,11-12.9l0.5-0.6l0.7,0.3
				C491,209.3,505,223.6,505,240v192c0,37-70.6,57-137,57c-51.8,0-99.4-11.7-121.9-29.9C219.7,488.7,183.5,505,144,505z M144,153.2
				c-2,0-3.8,0.9-4.8,2.4L44.3,301C31.7,320.4,25,342.9,25,366v2c0,65.6,53.4,119,119,119c34.7,0,67.6-15.2,90.3-41.8
				c-2.2-4.3-3.3-8.7-3.3-13.2V281.6l-82.2-126C147.8,154.1,146,153.2,144,153.2z M249,432c0,8.9,12.6,18.6,33.6,26.1
				c23.2,8.3,53.6,12.9,85.4,12.9s62.2-4.6,85.4-12.9c21-7.5,33.6-17.3,33.6-26.1v-34.7c-23.4,16.9-69.8,27.7-119,27.7
				s-95.6-10.8-119-27.7V432z M249,368c0,8.9,12.6,18.6,33.6,26.1c23.2,8.3,53.6,12.9,85.4,12.9s62.2-4.6,85.4-12.9
				c21-7.5,33.6-17.3,33.6-26.1v-34.7c-23.4,16.9-69.8,27.7-119,27.7s-95.6-10.8-119-27.7V368z M249,304c0,8.9,12.6,18.6,33.6,26.1
				c23.2,8.3,53.6,12.9,85.4,12.9s62.2-4.6,85.4-12.9c21-7.5,33.6-17.3,33.6-26.1v-34.7c-23.4,16.9-69.8,27.7-119,27.7
				s-95.6-10.8-119-27.7V304z"/>
			<path class="st1" d="M144,136c7.7,0,14.8,3.9,19.1,10.3L232,252v-12c0-16,14.1-30.1,40-40.3c3.4,4.6,7,9,11.1,13
				c-21.7,7.7-35,17.9-35,27.3c0,18.9,51.3,40,120,40s120-21.1,120-40c0-9.4-13.4-19.7-35-27.3c4-4,7.6-8.4,11.1-13
				c25.9,10.3,40,24.4,40,40.3v192c0,36.4-70.1,56-136,56c-48.1,0-98.4-10.5-122-30.3c-25.8,29.4-62.4,46.3-102,46.3
				C69,504,8,443,8,368v-2c0-26.4,7.6-52.1,22.1-74.3l94.8-145.4C129.2,139.9,136.3,136,144,136 M144,488
				c35.7,0,68.6-15.6,91.5-42.6c-2.2-4.2-3.5-8.6-3.5-13.4V281.3l-82.3-126.2c-1.3-1.9-3.5-2.9-5.7-2.9s-4.4,1-5.7,2.9L43.5,300.5
				C30.7,320,24,342.7,24,366v2C24,434.2,77.8,488,144,488 M368,296c-46.8,0-95.6-9.9-120-28.7V304c0,18.9,51.3,40,120,40
				s120-21.1,120-40v-36.7C463.6,286.1,414.8,296,368,296 M368,360c-46.8,0-95.6-9.9-120-28.7V368c0,18.9,51.3,40,120,40
				s120-21.1,120-40v-36.7C463.6,350.1,414.8,360,368,360 M368,424c-46.8,0-95.6-9.9-120-28.7V432c0,18.9,51.3,40,120,40
				s120-21.1,120-40v-36.7C463.6,414.1,414.8,424,368,424 M144,134c-8.4,0-16.2,4.2-20.7,11.2L28.4,290.7C13.8,313.1,6,339.2,6,366
				v2c0,76.1,61.9,138,138,138c19.9,0,39.1-4.1,56.9-12.3c17.2-7.8,32.4-19,45.2-33.3c11.5,9.1,29.2,16.6,51.2,21.8
				c21.5,5.1,45.9,7.8,70.7,7.8c34.3,0,68.3-5.3,93.4-14.5c29.2-10.7,44.6-25.8,44.6-43.5V240c0-8.5-3.7-16.5-10.9-23.7
				c-7-7-17.2-13.3-30.4-18.5l-1.4-0.6l-0.9,1.2c-3.7,5-7.3,9.2-10.9,12.8l-2.2,2.2l3,1.1c20.8,7.4,33.7,17.1,33.7,25.5
				c0,8.4-12.3,17.8-32.9,25.2c-23.1,8.3-53.4,12.8-85.1,12.8s-61.9-4.5-85.1-12.8c-20.6-7.4-32.9-16.8-32.9-25.2
				c0-8.3,12.9-18.1,33.7-25.5l3-1.1l-2.2-2.2c-3.6-3.6-7.1-7.8-10.9-12.8l-0.9-1.2l-1.4,0.6c-13.2,5.2-23.4,11.4-30.4,18.5
				c-7.2,7.3-10.9,15.2-10.9,23.7v5.3l-65.3-100.1C160.2,138.2,152.4,134,144,134L144,134z M144,486c-65.1,0-118-52.9-118-118v-2
				c0-22.9,6.6-45.2,19.2-64.5L140,156.2c0.8-1.2,2.3-2,4-2c1.7,0,3.2,0.7,4,2l82,125.7V432c0,4.4,1,8.8,3.1,13.1
				C222,457.9,208.8,468,193.7,475C178.1,482.3,161.4,486,144,486L144,486z M368,298c24,0,47.8-2.5,68.8-7.4
				c20.5-4.7,37.4-11.4,49.2-19.4V304c0,8.4-12.3,17.8-32.9,25.2c-23.1,8.3-53.4,12.8-85.1,12.8s-61.9-4.5-85.1-12.8
				c-20.6-7.4-32.9-16.8-32.9-25.2v-32.8c11.8,8,28.7,14.7,49.2,19.4C320.2,295.5,344,298,368,298L368,298z M368,362
				c24,0,47.8-2.5,68.8-7.4c20.5-4.7,37.4-11.4,49.2-19.4V368c0,8.4-12.3,17.8-32.9,25.2c-23.1,8.3-53.4,12.8-85.1,12.8
				s-61.9-4.5-85.1-12.8c-20.6-7.4-32.9-16.8-32.9-25.2v-32.8c11.8,8,28.7,14.7,49.2,19.4C320.2,359.5,344,362,368,362L368,362z
				 M368,426c24,0,47.8-2.5,68.8-7.4c20.5-4.7,37.4-11.4,49.2-19.4V432c0,8.4-12.3,17.8-32.9,25.2c-23.1,8.3-53.4,12.8-85.1,12.8
				s-61.9-4.5-85.1-12.8c-20.6-7.4-32.9-16.8-32.9-25.2v-32.8c11.8,8,28.7,14.7,49.2,19.4C320.2,423.5,344,426,368,426L368,426z"/>
		</g>
		<g>
			<path class="st1" d="M368,217c-49.1,0-89-39.9-89-89s39.9-89,89-89s89,39.9,89,89S417.1,217,368,217z M368,57
				c-39.1,0-71,31.9-71,71s31.9,71,71,71s71-31.9,71-71S407.1,57,368,57z"/>
			<path class="st1" d="M368,40c48.5,0,88,39.5,88,88s-39.5,88-88,88s-88-39.5-88-88S319.5,40,368,40 M368,200c39.7,0,72-32.3,72-72
				s-32.3-72-72-72s-72,32.3-72,72S328.3,200,368,200 M368,38c-49.6,0-90,40.4-90,90s40.4,90,90,90s90-40.4,90-90S417.6,38,368,38
				L368,38z M368,198c-38.6,0-70-31.4-70-70s31.4-70,70-70s70,31.4,70,70S406.6,198,368,198L368,198z"/>
		</g>
		<g>
			<path class="st1" d="M359,185v-17.8c-9.6-3.7-16-13-16-23.2v-1h18v1c0,3.9,3.1,7,7,7s7-3.1,7-7s-3.1-7-7-7c-13.8,0-25-11.2-25-25
				c0-10.2,6.4-19.5,16-23.2V71h18v17.8c9.6,3.7,16,13,16,23.2v1h-18v-1c0-3.9-3.1-7-7-7s-7,3.1-7,7s3.1,7,7,7c13.8,0,25,11.2,25,25
				c0,10.2-6.4,19.5-16,23.2V185H359z"/>
			<path class="st1" d="M376,72v17.5c9.3,3.3,16,12.1,16,22.5h-16c0-4.4-3.6-8-8-8s-8,3.6-8,8s3.6,8,8,8c13.2,0,24,10.8,24,24
				c0,10.4-6.7,19.2-16,22.5V184h-16v-17.5c-9.3-3.3-16-12.1-16-22.5h16c0,4.4,3.6,8,8,8s8-3.6,8-8s-3.6-8-8-8
				c-13.2,0-24-10.8-24-24c0-10.4,6.7-19.2,16-22.5V72H376 M378,70h-2h-16h-2v2v16.1c-9.6,4-16,13.5-16,23.9c0,14.3,11.7,26,26,26
				c3.3,0,6,2.7,6,6s-2.7,6-6,6s-6-2.7-6-6v-2h-2h-16h-2v2c0,10.4,6.4,19.9,16,23.9V184v2h2h16h2v-2v-16.1c9.6-4,16-13.5,16-23.9
				c0-14.3-11.7-26-26-26c-3.3,0-6-2.7-6-6s2.7-6,6-6s6,2.7,6,6v2h2h16h2v-2c0-10.4-6.4-19.9-16-23.9V72V70L378,70z"/>
		</g>
		<g>
			<path class="st1" d="M40,351.7l0.1-1c0.9-5.9,2.3-11.8,4.1-17.5l0.3-1l17.1,5.6l-0.3,0.9c-1.6,4.7-2.7,9.6-3.4,14.5l-0.1,1
				L40,351.7z"/>
			<path class="st1" d="M45.2,333.5l15.2,5c-1.6,4.8-2.7,9.7-3.5,14.7l-15.8-2.3C42,344.9,43.4,339.1,45.2,333.5 M43.9,331l-0.6,1.9
				c-1.9,5.7-3.3,11.7-4.2,17.7l-0.3,2l2,0.3l15.8,2.3l2,0.3l0.3-2c0.7-4.8,1.8-9.7,3.4-14.3l0.6-1.9l-1.9-0.6l-15.2-5L43.9,331
				L43.9,331z"/>
		</g>
		<g>
			<path class="st1" d="M144,473c-57.9,0-105-47.1-105-105v-1h18v1c0,48,39,87,87,87h1v18H144z"/>
			<path class="st1" d="M56,368c0,48.5,39.5,88,88,88v16c-57.3,0-104-46.7-104-104H56 M58,366h-2H40h-2v2c0,58.4,47.6,106,106,106h2
				v-2v-16v-2h-2c-47.4,0-86-38.6-86-86V366L58,366z"/>
		</g>
	</g>
</g>
</svg>
