<?xml version="1.0" encoding="utf-8"?>
<!-- Generator: Adobe Illustrator 21.0.0, SVG Export Plug-In . SVG Version: 6.00 Build 0)  -->
<svg version="1.1" id="Layer_3" xmlns="http://www.w3.org/2000/svg" xmlns:xlink="http://www.w3.org/1999/xlink" x="0px" y="0px"
	 viewBox="0 0 512 512" style="enable-background:new 0 0 512 512;" xml:space="preserve">
<style type="text/css">
	.st0{fill:#80F46C;}
	.st1{fill:#5F85E1;stroke:#5F85E1;stroke-width:2;stroke-miterlimit:10;}
</style>
<g>
	<circle class="st0" cx="136" cy="256" r="88"/>
	<g>
		<path class="st1" d="M136,328h16v-17.1c13.8-3.6,24-16,24-30.9c0-9.6-4.3-18.1-11.1-24c6.7-5.9,11.1-14.4,11.1-24
			c0-14.9-10.2-27.3-24-30.9V184h-16v16h-8v-16h-16v16H96v16h8v80h-8v16h16v16h16v-16h8V328z M144,216c8.8,0,16,7.2,16,16
			s-7.2,16-16,16h-24v-32H144z M120,264h24c8.8,0,16,7.2,16,16s-7.2,16-16,16h-24V264z"/>
		<path class="st1" d="M136,336v16c52.9,0,96-43.1,96-96h-16C216,300.1,180.1,336,136,336z"/>
		<path class="st1" d="M136,160c-52.9,0-96,43.1-96,96h16c0-44.1,35.9-80,80-80V160z"/>
		<path class="st1" d="M376,128c-55.1,0-102,35-120,83.9C238,163,191.1,128,136,128C65.4,128,8,185.4,8,256s57.4,128,128,128
			c55.1,0,102-35,120-83.9C274,349,320.9,384,376,384c70.6,0,128-57.4,128-128S446.6,128,376,128z M483.5,224.8
			c-13.4-9.1-32.7-16.1-55.9-20.4c-4.2-23.2-11.3-42.5-20.4-55.9C443.9,159.2,472.8,188.1,483.5,224.8L483.5,224.8z M376,368
			c-13.2,0-27.3-22.3-34.8-58c11,1.3,22.6,2,34.8,2s23.8-0.7,34.8-2C403.3,345.7,389.2,368,376,368z M376,296
			c-13.4,0-26-0.9-37.5-2.5c-1.5-11.6-2.5-24.1-2.5-37.5s0.9-26,2.5-37.5c11.6-1.6,24.1-2.5,37.5-2.5s26,0.9,37.5,2.5
			c1.5,11.6,2.5,24.1,2.5,37.5c0,13.4-0.9,26-2.5,37.5C402,295.1,389.4,296,376,296z M322,290.8c-35.7-7.4-58-21.6-58-34.8
			s22.3-27.3,58-34.8c-1.3,11-2,22.6-2,34.8S320.7,279.8,322,290.8z M376,144c13.2,0,27.3,22.3,34.8,58c-11-1.3-22.6-2-34.8-2
			s-23.8,0.7-34.8,2C348.7,166.3,362.8,144,376,144L376,144z M430,221.2c35.7,7.4,58,21.6,58,34.8s-22.3,27.3-58,34.8
			c1.3-11,2-22.6,2-34.8S431.3,232.2,430,221.2L430,221.2z M344.8,148.5c-9.1,13.4-16.1,32.7-20.4,55.9
			c-23.2,4.2-42.5,11.3-55.9,20.4C279.2,188.1,308.1,159.2,344.8,148.5z M136,368c-61.8,0-112-50.2-112-112s50.2-112,112-112
			s112,50.2,112,112S197.8,368,136,368z M268.5,287.2c13.4,9.1,32.7,16.1,55.9,20.4c4.2,23.2,11.3,42.5,20.4,55.9
			C308.1,352.8,279.2,323.9,268.5,287.2z M407.2,363.5c9.1-13.4,16.2-32.7,20.4-55.9c23.2-4.2,42.5-11.3,55.9-20.4
			C472.8,323.9,443.9,352.8,407.2,363.5z"/>
		<path class="st1" d="M307,86.2l40,32c1.5,1.2,3.2,1.8,5,1.8c2.4,0,4.7-1,6.3-3l32-40l-12.5-10L358,91.7C348.5,44,306.4,8,256,8
			c-57.3,0-104,46.7-104,104h16c0-48.5,39.5-88,88-88c42.3,0,77.7,30,86.1,69.8L317,73.8L307,86.2z"/>
		<path class="st1" d="M205,425.8l-40-32c-3.5-2.8-8.5-2.2-11.2,1.2l-32,40l12.5,10l19.8-24.7c9.5,47.7,51.6,83.7,102,83.7
			c57.3,0,104-46.7,104-104h-16c0,48.5-39.5,88-88,88c-42.3,0-77.7-30-86.1-69.8l25.1,20.1L205,425.8z"/>
	</g>
</g>
</svg>
