<?xml version="1.0" encoding="utf-8"?>
<!-- Generator: Adobe Illustrator 21.0.0, SVG Export Plug-In . SVG Version: 6.00 Build 0)  -->
<svg version="1.1" id="Capa_1" xmlns="http://www.w3.org/2000/svg" xmlns:xlink="http://www.w3.org/1999/xlink" x="0px" y="0px"
	 viewBox="0 0 512 512" style="enable-background:new 0 0 512 512;" xml:space="preserve">
<style type="text/css">
	.st0{fill:#5F85E1;}
	.st1{fill:#80F46C;}
</style>
<g>
	<g id="Page-1_9_">
		<g id="_x30_10---Identifying-Breakouts">
			<path id="Shape_65_" class="st0" d="M34.1,405.3H128v25.6h-8.5c-18.9,0-34.1,15.3-34.1,34.1v8.5c0,9.4,7.6,17.1,17.1,17.1h170.7
				c9.4,0,17.1-7.6,17.1-17.1v-8.5c0-18.9-15.3-34.1-34.1-34.1h-8.5v-25.6h93.9c18.9,0,34.1-15.3,34.1-34.1v-86.9
				c6.2-2.6,12.2-5.6,18-9l60.2,60.2c6.4,6.4,15.1,10.1,24.1,10.1c9.1,0,17.8-3.6,24.2-10c13.3-13.3,13.3-34.9,0-48.2l-60.3-60.2
				c26.6-45,25.1-101.2-3.8-144.8C409,38.8,357.8,15.6,306,22.6s-95,43-111.3,92.6H34.1C15.3,115.2,0,130.5,0,149.3v221.9
				C0,390.1,15.3,405.3,34.1,405.3L34.1,405.3z M273.1,465.1v8.5H102.4v-8.5c0-9.4,7.6-17.1,17.1-17.1H256
				C265.4,448,273.1,455.6,273.1,465.1L273.1,465.1z M230.4,430.9h-85.3v-25.6h85.3V430.9z M341.3,388.3H34.1
				c-9.4,0-17.1-7.6-17.1-17.1v-8.5h341.4v8.5C358.4,380.6,350.8,388.3,341.3,388.3L341.3,388.3z M489.9,299.4c3.2,3.2,5,7.6,5,12.1
				s-1.8,8.9-5,12.1c-6.7,6.4-17.3,6.4-24.1-0.1l-57.9-58c9-7,17.1-15.1,24.1-24.1L489.9,299.4z M324.3,277.3
				c-46-0.1-87.8-26.5-107.7-68l65-65l75,75c3.3,3.3,8.7,3.3,12.1,0L443,145c0.5,4.3,0.7,8.5,0.7,12.8
				C443.7,223.8,390.2,277.3,324.3,277.3z M324.3,38.4c53.2,0.1,100,35.4,114.8,86.5l-76.4,76.3l-75-75c-3.3-3.3-8.7-3.3-12.1,0
				l-65.7,65.7c-10.8-36.1-3.9-75.3,18.6-105.5S286.6,38.4,324.3,38.4L324.3,38.4z M34.1,132.3h156.1c-7.7,39.4,2.5,80.1,27.8,111.2
				l-34.6,34.6l-19.6-19.6c-3.3-3.3-8.7-3.3-12.1,0l-40.9,40.9l-23.8-23.8c-3.3-3.3-8.7-3.3-12.1,0L36.6,314
				c-2.2,2.1-3.1,5.3-2.3,8.3c0.8,3,3.1,5.3,6.1,6.1c3,0.8,6.2-0.1,8.3-2.3l32.4-32.4l23.8,23.8c3.3,3.3,8.7,3.3,12.1,0l40.9-40.9
				l19.6,19.6c3.3,3.3,8.7,3.3,12.1,0l40.1-40.1c34,33.2,82.9,46,128.8,33.8v55.7H17.1V149.3C17.1,139.9,24.7,132.3,34.1,132.3
				L34.1,132.3z"/>
			<path id="Shape_64_" class="st0" d="M42.7,192c2.3,0,4.4-0.9,6-2.5l25.6-25.6c3.2-3.3,3.2-8.7-0.1-12c-3.3-3.3-8.6-3.3-12-0.1
				l-25.6,25.6c-2.4,2.4-3.2,6.1-1.8,9.3S39.2,192,42.7,192L42.7,192z"/>
			<path id="Shape_63_" class="st0" d="M42.7,234.7c2.3,0,4.4-0.9,6-2.5l68.3-68.3c3.2-3.3,3.2-8.7-0.1-12c-3.3-3.3-8.6-3.3-12-0.1
				l-68.3,68.3c-2.4,2.4-3.2,6.1-1.8,9.3S39.2,234.7,42.7,234.7z"/>
		</g>
	</g>
</g>
<path class="st1" d="M439,124.8l-76.4,76.3l-75-75c-3.3-3.3-8.7-3.3-12.1,0l-65.7,65.7c1.8,6,4,11.8,6.7,17.4l0,0l65-65l75,75
	c3.3,3.3,8.7,3.3,12.1,0L443,145l0.2-0.1c-0.8-6.9-2.1-13.6-4-20.1C439.1,124.8,439,124.8,439,124.8z"/>
</svg>
