<?xml version="1.0" encoding="utf-8"?>
<!-- Generator: Adobe Illustrator 21.0.0, SVG Export Plug-In . SVG Version: 6.00 Build 0)  -->
<svg version="1.1" id="Слой_1" xmlns="http://www.w3.org/2000/svg" xmlns:xlink="http://www.w3.org/1999/xlink" x="0px" y="0px"
	 viewBox="0 0 674 156.7" style="background: url(/img/error-bg.jpg) no-repeat;" xml:space="preserve">
<g>
	<path d="M43.3,140c-11.8-6.1-21-14.7-27.7-25.6c-6.7-10.9-10-23.2-10-37s3.3-26,10-37C22.4,29.5,31.6,21,43.3,14.8
		c11.8-6.1,25-9.2,39.8-9.2c14.8,0,28,3.1,39.8,9.2c11.8,6.1,21,14.7,27.7,25.6c6.7,10.9,10,23.2,10,37s-3.3,26.1-10,37
		c-6.7,10.9-15.9,19.5-27.7,25.6c-11.8,6.1-25,9.2-39.8,9.2C68.4,149.2,55.1,146.1,43.3,140z M98.7,107.5c4.6-2.8,8.3-6.8,11.1-12
		c2.7-5.2,4.1-11.2,4.1-18.1c0-6.9-1.4-13-4.1-18.1c-2.7-5.2-6.4-9.2-11.1-12c-4.6-2.8-9.8-4.2-15.6-4.2c-5.8,0-11,1.4-15.6,4.2
		c-4.6,2.8-8.3,6.8-11.1,12c-2.7,5.2-4.1,11.2-4.1,18.1c0,6.9,1.4,13,4.1,18.1c2.7,5.2,6.4,9.2,11.1,12c4.6,2.8,9.8,4.2,15.6,4.2
		C88.9,111.7,94.1,110.3,98.7,107.5z"/>
	<path d="M209.7,140c-11.8-6.1-21-14.7-27.7-25.6c-6.7-10.9-10-23.2-10-37s3.3-26,10-37c6.7-10.9,15.9-19.4,27.7-25.6
		c11.8-6.1,25-9.2,39.8-9.2c14.8,0,28,3.1,39.8,9.2c11.8,6.1,21,14.7,27.7,25.6c6.7,10.9,10,23.2,10,37s-3.3,26.1-10,37
		c-6.7,10.9-15.9,19.5-27.7,25.6c-11.8,6.1-25,9.2-39.8,9.2C234.7,149.2,221.4,146.1,209.7,140z M265.1,107.5
		c4.6-2.8,8.3-6.8,11.1-12c2.7-5.2,4.1-11.2,4.1-18.1c0-6.9-1.4-13-4.1-18.1c-2.7-5.2-6.4-9.2-11.1-12c-4.6-2.8-9.8-4.2-15.6-4.2
		c-5.8,0-11,1.4-15.6,4.2c-4.6,2.8-8.3,6.8-11.1,12c-2.7,5.2-4.1,11.2-4.1,18.1c0,6.9,1.4,13,4.1,18.1c2.7,5.2,6.4,9.2,11.1,12
		c4.6,2.8,9.8,4.2,15.6,4.2C255.2,111.7,260.4,110.3,265.1,107.5z"/>
	<path d="M443,15c9.4,4.2,16.7,10.2,21.8,18c5.1,7.8,7.6,17,7.6,27.5c0,10.5-2.5,19.6-7.6,27.5c-5.1,7.8-12.4,13.9-21.8,18
		c-9.4,4.2-20.5,6.3-33.1,6.3h-19.8V146h-46.3V8.8h66.1C422.6,8.8,433.6,10.8,443,15z M421.1,72.4c3.1-2.8,4.7-6.8,4.7-11.9
		c0-5.1-1.6-9.1-4.7-11.9c-3.1-2.8-7.8-4.2-14.1-4.2h-16.9v32.2h16.9C413.2,76.6,417.9,75.2,421.1,72.4z"/>
	<path d="M507.5,145.3c-10.8-2.5-19.6-6-26.6-10.3l14.9-33.7c6.5,3.8,13.9,6.8,22,9.1c8.1,2.3,15.9,3.4,23.3,3.4
		c6.4,0,11-0.6,13.7-1.9c2.7-1.2,4.1-3.1,4.1-5.6c0-2.9-1.8-5-5.4-6.5c-3.6-1.4-9.5-3-17.7-4.7c-10.6-2.2-19.4-4.6-26.5-7.2
		s-13.2-6.7-18.4-12.6c-5.2-5.8-7.8-13.7-7.8-23.6c0-8.6,2.4-16.5,7.3-23.5c4.8-7.1,12.1-12.6,21.7-16.7c9.6-4.1,21.3-6.1,35-6.1
		c9.4,0,18.7,1,27.8,3c9.1,2,17.1,5,24,8.9l-13.9,33.5c-13.5-6.8-26.2-10.2-38.2-10.2c-11.9,0-17.8,2.9-17.8,8.6
		c0,2.7,1.8,4.8,5.3,6.2s9.3,2.8,17.5,4.4c10.5,2,19.3,4.2,26.5,6.8c7.2,2.5,13.4,6.7,18.7,12.5c5.3,5.8,7.9,13.6,7.9,23.5
		c0,8.6-2.4,16.4-7.3,23.4c-4.8,7-12.1,12.6-21.7,16.7c-9.6,4.1-21.3,6.2-35,6.2C529.3,149.2,518.2,147.9,507.5,145.3z"/>
	<path d="M611.5,8.8h53l-8.8,84.7h-35.3L611.5,8.8z M619.3,141.1c-4.8-4.6-7.3-10.1-7.3-16.7c0-6.7,2.4-12.2,7.3-16.6
		c4.8-4.4,11-6.6,18.6-6.6c7.6,0,13.8,2.2,18.6,6.6c4.8,4.4,7.3,9.9,7.3,16.6c0,6.5-2.4,12.1-7.3,16.7c-4.8,4.6-11.1,6.9-18.6,6.9
		C630.4,148,624.2,145.7,619.3,141.1z"/>
</g>
</svg>
