<?xml version="1.0" encoding="utf-8"?>
<!-- Generator: Adobe Illustrator 21.0.0, SVG Export Plug-In . SVG Version: 6.00 Build 0)  -->
<svg version="1.1" id="_x31__x2C_5" xmlns="http://www.w3.org/2000/svg" xmlns:xlink="http://www.w3.org/1999/xlink" x="0px"
	 y="0px" viewBox="0 0 512 512" style="enable-background:new 0 0 512 512;" xml:space="preserve">
<style type="text/css">
	.st0{display:none;fill:#80F46C;}
	.st1{fill:#5F85E1;}
	.st2{fill:#80F46C;}
</style>
<path class="st0" d="M479.9,349.8H32.1C14.4,349.8,0,335.4,0,317.7V192.1C0,174.4,14.4,160,32.1,160h447.8
	c17.6,0,32.1,14.4,32.1,32.1v125.7C512,335.4,497.6,349.8,479.9,349.8z"/>
<path class="st1" d="M410.7,512H101.3c-32.4,0-58.7-26.3-58.7-58.7v-74.7c0-8.8,7.2-16,16-16s16,7.2,16,16v74.7
	c0,14.7,12,26.7,26.7,26.7h309.3c14.7,0,26.7-12,26.7-26.7v-74.7c0-8.8,7.2-16,16-16s16,7.2,16,16v74.7
	C469.3,485.7,443,512,410.7,512z"/>
<path class="st1" d="M453.3,149.3c-8.8,0-16-7.2-16-16V58.7c0-14.7-12-26.7-26.7-26.7H101.3c-14.7,0-26.7,12-26.7,26.7v74.7
	c0,8.8-7.2,16-16,16s-16-7.2-16-16V58.7C42.7,26.3,69,0,101.3,0h309.3c32.4,0,58.7,26.3,58.7,58.7v74.7
	C469.3,142.2,462.2,149.3,453.3,149.3z"/>
<path class="st2" d="M37.3,320c-8.8,0-16-7.2-16-16v-96c0-8.8,7.2-16,16-16s16,7.2,16,16v96C53.3,312.8,46.2,320,37.3,320z"/>
<path class="st2" d="M144,320c-5.7,0-11.1-3.1-14-8.2l-23.4-42V304c0,8.8-7.2,16-16,16s-16-7.2-16-16v-96c0-7.3,4.9-13.7,12-15.5
	s14.5,1.3,18,7.7l23.4,42V208c0-8.8,7.2-16,16-16s16,7.2,16,16v96c0,7.3-4.9,13.7-12,15.5C146.7,319.8,145.3,320,144,320z"/>
<path class="st2" d="M229.3,320h-32c-8.8,0-16-7.2-16-16v-96c0-8.8,7.2-16,16-16h32c20.6,0,37.3,16.7,37.3,37.3v53.3
	C266.7,303.3,249.9,320,229.3,320z M213.3,288h16c2.9,0,5.3-2.4,5.3-5.3v-53.3c0-2.9-2.4-5.3-5.3-5.3h-16V288z"/>
<path class="st2" d="M357.3,272h-48c-8.8,0-16-7.2-16-16c0-8.8,7.2-16,16-16h48c8.8,0,16,7.2,16,16C373.3,264.8,366.2,272,357.3,272
	z"/>
<path class="st2" d="M357.3,320h-32c-20.6,0-37.3-16.7-37.3-37.3v-53.3c0-20.6,16.7-37.3,37.3-37.3h32c8.8,0,16,7.2,16,16
	s-7.2,16-16,16h-32c-2.9,0-5.3,2.4-5.3,5.3v53.3c0,2.9,2.4,5.3,5.3,5.3h32c8.8,0,16,7.2,16,16S366.2,320,357.3,320z"/>
<path class="st2" d="M464,320c-5.6,0-11.1-3-14-8.2l-53.3-96c-4.3-7.7-1.5-17.5,6.2-21.8s17.5-1.5,21.8,6.2l53.3,96
	c4.3,7.7,1.5,17.5-6.2,21.8C469.3,319.4,466.6,320,464,320z"/>
<path class="st2" d="M410.6,320c-2.6,0-5.3-0.6-7.7-2c-7.7-4.3-10.5-14-6.2-21.8l53.3-96c4.3-7.7,14-10.5,21.8-6.2
	c7.7,4.3,10.5,14,6.2,21.8l-53.3,96C421.7,317,416.3,320,410.6,320z"/>
</svg>
