<?xml version="1.0" encoding="utf-8"?>
<!-- Generator: Adobe Illustrator 21.0.0, SVG Export Plug-In . SVG Version: 6.00 Build 0)  -->
<svg version="1.1" id="Слой_1" xmlns="http://www.w3.org/2000/svg" xmlns:xlink="http://www.w3.org/1999/xlink" x="0px" y="0px"
	 viewBox="0 0 480 480" style="enable-background:new 0 0 480 480;" xml:space="preserve">
<style type="text/css">
	.st0{fill:#80F46C;}
	.st1{fill:#5F85E1;}
</style>
<g>
	<path class="st0" d="M176,324c-17.7,0-32-14.3-32-32s14.3-32,32-32s32,14.3,32,32S193.6,324,176,324z"/>
	<path class="st0" d="M327.9,340c-17.7,0-32-14.3-32-32c0-17.7,14.3-32,32-32c17.7,0,32,14.3,32,32C359.9,325.7,345.6,340,327.9,340
		z"/>
	<path class="st0" d="M439.9,228c-17.7,0-32-14.3-32-32s14.3-32,32-32c17.7,0,32,14.3,32,32S457.6,228,439.9,228z"/>
	<path class="st0" d="M40,452c-17.7,0-32-14.3-32-32c0-17.7,14.3-32,32-32s32,14.3,32,32C72,437.7,57.7,452,40,452z"/>
</g>
<path class="st1" d="M478.8,205.9c4.5-17.8-3.6-36.3-19.8-45c-16.1-8.7-36.1-5.3-48.5,8.2c-12.4,13.5-14,33.7-3.9,49L350,274.7
	c-10.4-7-23.5-8.6-35.3-4.4c-11.8,4.2-20.9,13.7-24.7,25.7l-74.4-7.8c-2-21.2-20.4-37-41.6-36c-21.3,1-38,18.6-38,39.9
	c0,7.4,2.1,14.7,6.1,21L63,387.4c-6.7-4.8-14.7-7.4-23-7.4c-22.1,0-40,17.9-40,40c0,22.1,17.9,40,40,40s40-17.9,40-40
	c0-7.4-2.1-14.7-6.1-21l79.1-74.4c10.4,7.4,23.7,9.4,35.7,5.3c12.1-4.1,21.4-13.7,25.2-25.9l74.4,7.8c1.6,16.5,13.2,30.4,29.3,34.7
	c16,4.4,33.1-1.7,42.8-15.2c9.7-13.5,10-31.6,0.8-45.4l56.6-56.6c6.5,4.3,14.2,6.7,22,6.7C458.2,236.1,474.3,223.7,478.8,205.9z
	 M64,420c0,13.3-10.7,24-24,24s-24-10.7-24-24c0-13.3,10.7-24,24-24S64,406.8,64,420z M200,292c0,13.3-10.7,24-24,24s-24-10.7-24-24
	c0-13.3,10.7-24,24-24S200,278.8,200,292z M351.9,308c0,13.3-10.7,24-24,24c-13.3,0-24-10.7-24-24c0-13.3,10.7-24,24-24
	C341.2,284,351.9,294.8,351.9,308z M463.9,196.1c0,13.3-10.7,24-24,24c-13.3,0-24-10.7-24-24s10.7-24,24-24
	C453.2,172.1,463.9,182.8,463.9,196.1z"/>
<path class="st1" d="M455.9,60.1v-32c0-0.9-0.2-1.9-0.6-2.8c-0.1-0.3-0.2-0.5-0.4-0.8c-0.4-0.8-1-1.6-1.7-2.3
	c-0.6-0.6-1.3-1.1-2.1-1.4c-0.1,0-0.1-0.1-0.2-0.1c-1-0.4-2-0.6-3.1-0.6h-32c-4.4,0-8,3.6-8,8s3.6,8,8,8h12.7L295.9,168.7
	l-70.3-70.3c-3.1-3.1-8.2-3.1-11.3,0L132,180.7l-38.3-38.3c-3.1-3.1-8.2-3.1-11.3,0l-72,72c-3,3.1-3,8.1,0.1,11.2
	c3.1,3.1,8.1,3.1,11.2,0.1L88,159.4l38.3,38.3c3.1,3.1,8.2,3.1,11.3,0l82.3-82.3l70.3,70.3c3.1,3.1,8.2,3.1,11.3,0L439.9,47.4v12.7
	c0,4.4,3.6,8,8,8S455.9,64.5,455.9,60.1z"/>
</svg>
