<?xml version="1.0" encoding="utf-8"?>
<!-- Generator: Adobe Illustrator 21.0.0, SVG Export Plug-In . SVG Version: 6.00 Build 0)  -->
<svg version="1.1" id="_x31__px" xmlns="http://www.w3.org/2000/svg" xmlns:xlink="http://www.w3.org/1999/xlink" x="0px" y="0px"
	 viewBox="0 0 512 512" style="enable-background:new 0 0 512 512;" xml:space="preserve">
<style type="text/css">
	.st0{fill:#80F46C;stroke:#000000;stroke-miterlimit:10;}
	.st1{fill:#5F85E1;}
</style>
<path class="st0" d="M492,93H13c-2.2,0-4-1.8-4-4V34c0-2.2,1.8-4,4-4h479c2.2,0,4,1.8,4,4v55C496,91.2,494.2,93,492,93z"/>
<path class="st1" d="M256,512c-5.9,0-10.7-4.8-10.7-10.7v-128c0-5.9,4.8-10.7,10.7-10.7s10.7,4.8,10.7,10.7v128
	C266.7,507.2,261.9,512,256,512z"/>
<path class="st1" d="M352,512c-2,0-4.1-0.6-5.9-1.8l-96-64c-4.9-3.3-6.2-9.9-3-14.8c3.3-4.9,9.9-6.2,14.8-3l96,64
	c4.9,3.3,6.2,9.9,3,14.8C358.8,510.3,355.4,512,352,512z"/>
<path class="st1" d="M160,512c-3.5,0-6.8-1.7-8.9-4.8c-3.3-4.9-1.9-11.5,3-14.8l96-64c4.9-3.3,11.5-1.9,14.8,3s1.9,11.5-3,14.8
	l-96,64C164.1,511.4,162,512,160,512z"/>
<path class="st1" d="M469.3,106.7H42.7C19.1,106.7,0,87.5,0,64s19.1-42.7,42.7-42.7h426.7c23.5,0,42.7,19.1,42.7,42.7
	S492.9,106.7,469.3,106.7z M42.7,42.7c-11.8,0-21.3,9.6-21.3,21.3S31,85.3,42.7,85.3h426.7c11.8,0,21.3-9.6,21.3-21.3
	s-9.6-21.3-21.3-21.3H42.7z"/>
<path class="st1" d="M437.3,384H74.7c-17.6,0-32-14.4-32-32V96c0-5.9,4.8-10.7,10.7-10.7h405.3c5.9,0,10.7,4.8,10.7,10.7v256
	C469.3,369.6,455,384,437.3,384z M64,106.7V352c0,5.9,4.8,10.7,10.7,10.7h362.7c5.9,0,10.7-4.8,10.7-10.7V106.7H64z"/>
<path class="st1" d="M138.7,320c-2.7,0-5.5-1-7.6-3.1c-4.2-4.2-4.2-10.9,0-15.1l85.3-85.3c3.6-3.6,9.2-4.2,13.5-1.3l55.9,37.2
	l79.2-99c3.7-4.6,10.4-5.4,15-1.7s5.3,10.4,1.7,15l-85.3,106.7c-3.5,4.3-9.6,5.3-14.3,2.2l-56.7-37.8l-79.1,79.1
	C144.1,319,141.4,320,138.7,320L138.7,320z"/>
</svg>
