<?xml version="1.0" encoding="utf-8"?>
<!-- Generator: Adobe Illustrator 21.0.0, SVG Export Plug-In . SVG Version: 6.00 Build 0)  -->
<svg version="1.1" id="Capa_1" xmlns="http://www.w3.org/2000/svg" xmlns:xlink="http://www.w3.org/1999/xlink" x="0px" y="0px"
	 viewBox="0 0 484.7 484.7" style="enable-background:new 0 0 484.7 484.7;" xml:space="preserve">
<style type="text/css">
	.st0{fill:#5F85E1;}
	.st1{fill:#80F46C;}
</style>
<g>
	<g>
		<path class="st0" d="M482.4,304V8c0-4.4-3.6-8-8-8h-464c-4.4,0-8,3.6-8,8v296c0,4.4,3.6,8,8,8h112.3L3.9,475.3l12.9,9.4L142.4,312
			h91.9v168h16V312h91.9l125.6,172.7l12.9-9.4L362.1,312h112.3C478.8,312,482.4,308.4,482.4,304z M466.4,296h-448V16h448V296z"/>
	</g>
</g>
<g>
	<g>
		<path class="st1" d="M158.4,128c-15.5,0-28,12.5-28,28s12.5,28,28,28s28-12.5,28-28S173.8,128,158.4,128z M158.4,168
			c-6.6,0-12-5.4-12-12s5.4-12,12-12s12,5.4,12,12S165,168,158.4,168z"/>
	</g>
</g>
<g>
	<g>
		<path class="st1" d="M78.4,208c-15.5,0-28,12.5-28,28s12.5,28,28,28s28-12.5,28-28S93.8,208,78.4,208z M78.4,248
			c-6.6,0-12-5.4-12-12s5.4-12,12-12s12,5.4,12,12S85,248,78.4,248z"/>
	</g>
</g>
<g>
	<g>
		<path class="st1" d="M246.4,184c-15.5,0-28,12.5-28,28s12.5,28,28,28s28-12.5,28-28S261.8,184,246.4,184z M246.4,224
			c-6.6,0-12-5.4-12-12s5.4-12,12-12s12,5.4,12,12S253,224,246.4,224z"/>
	</g>
</g>
<g>
	<g>
		<path class="st1" d="M326.4,88c-15.5,0-28,12.5-28,28s12.5,28,28,28s28-12.5,28-28S341.8,88,326.4,88z M326.4,128
			c-6.6,0-12-5.4-12-12s5.4-12,12-12s12,5.4,12,12S333,128,326.4,128z"/>
	</g>
</g>
<g>
	<g>
		<path class="st1" d="M406.4,48c-15.5,0-28,12.5-28,28s12.5,28,28,28s28-12.5,28-28S421.8,48,406.4,48z M406.4,88
			c-6.6,0-12-5.4-12-12s5.4-12,12-12s12,5.4,12,12S413,88,406.4,88z"/>
	</g>
</g>
<g>
	<g>
		
			<rect x="101.4" y="188" transform="matrix(0.7071 -0.7071 0.7071 0.7071 -103.9269 141.0929)" class="st0" width="33.9" height="16"/>
	</g>
</g>
<g>
	<g>
		
			<rect x="267.2" y="154.4" transform="matrix(0.6402 -0.7682 0.7682 0.6402 -21.2192 279.4318)" class="st0" width="41" height="16"/>
	</g>
</g>
<g>
	<g>
		
			<rect x="360.1" y="87.7" transform="matrix(0.8944 -0.4472 0.4472 0.8944 -4.0769 174.1818)" class="st0" width="13.5" height="16"/>
	</g>
</g>
<g>
	<g>
		
			<rect x="196.8" y="172.9" transform="matrix(0.5506 -0.8347 0.8347 0.5506 -62.0575 253.8979)" class="st0" width="16" height="23.4"/>
	</g>
</g>
</svg>
