<?xml version="1.0" encoding="utf-8"?>
<!-- Generator: Adobe Illustrator 21.0.0, SVG Export Plug-In . SVG Version: 6.00 Build 0)  -->
<svg version="1.1" id="Capa_1" xmlns="http://www.w3.org/2000/svg" xmlns:xlink="http://www.w3.org/1999/xlink" x="0px" y="0px"
	 viewBox="0 0 512 512" style="enable-background:new 0 0 512 512;" xml:space="preserve">
<style type="text/css">
	.st0{fill:#80F46C;}
	.st1{fill:#5F85E1;}
</style>
<g>
	<g>
		<circle class="st0" cx="210.4" cy="257" r="15.5"/>
		<circle class="st0" cx="319.1" cy="148.3" r="15.5"/>
		<circle class="st0" cx="369.6" cy="198.8" r="15.5"/>
		<circle class="st0" cx="443.4" cy="125" r="15.5"/>
		<path class="st0" d="M210.4,156.1c-55.8,0-101,45.2-101,101s45.2,101,101,101s101-45.2,101-101S266.2,156.1,210.4,156.1
			L210.4,156.1z M210.4,326.9c-38.6,0-69.9-31.3-69.9-69.9s31.3-69.9,69.9-69.9s69.9,31.3,69.9,69.9
			C280.3,295.6,249,326.9,210.4,326.9L210.4,326.9z"/>
	</g>
	<path class="st1" d="M497.7,249.5h-0.3V78.4c0-8.4-6.8-15.3-15.3-15.3H357.7v-8c0-4.1-3.4-7.5-7.5-7.5c-4.1,0-7.5,3.4-7.5,7.5v8
		H218.2c-8.4,0-15.3,6.8-15.3,15.3V125c0,4.1,3.4,7.5,7.5,7.5c4.1,0,7.5-3.4,7.5-7.5V78.4c0-0.1,0.1-0.3,0.3-0.3h264
		c0.1,0,0.3,0.1,0.3,0.3v171.1H342.4c-4.1,0-7.5,3.4-7.5,7.5s3.4,7.5,7.5,7.5h155.3c0.1,0,0.3,0.1,0.3,0.3v15.5
		c0,0.1-0.1,0.3-0.3,0.3H316.3c1.7-7.6,2.6-15.5,2.6-23.6c0-27.2-10.1-52.1-26.7-71.2L309,169c3,1.5,6.5,2.3,10.1,2.3
		c3.6,0,7-0.8,10.1-2.3l19.7,19.7c-1.5,3-2.3,6.5-2.3,10.1c0,12.7,10.3,23,23,23s23-10.3,23-23c0-3.6-0.8-7-2.3-10.1l43-43
		c3,1.5,6.5,2.3,10.1,2.3c12.7,0,23-10.3,23-23s-10.3-23-23-23s-23,10.3-23,23c0,3.6,0.8,7,2.3,10.1l-43,43c-3-1.5-6.5-2.3-10.1-2.3
		c-3.6,0-7,0.8-10.1,2.3l-19.7-19.7c1.5-3,2.3-6.5,2.3-10.1c0-12.7-10.3-23-23-23s-23,10.3-23,23c0,3.6,0.8,7,2.3,10.1l-16.9,16.9
		c-19.1-16.6-44-26.7-71.2-26.7c-59.8,0-108.5,48.7-108.5,108.5c0,27.2,10.1,52.1,26.7,71.2l-20.1,20.1c-8.6-4.2-19.2-2.7-26.4,4.4
		L7.7,427.1c-9,9-9,23.6,0,32.6c4.5,4.5,10.4,6.7,16.3,6.7s11.8-2.2,16.3-6.7l74.4-74.4c7.1-7.1,8.6-17.8,4.4-26.4l20.1-20.1
		c19.1,16.6,44,26.7,71.2,26.7c13.6,0,26.6-2.5,38.6-7.1l-6.8,20.5c-1.3,3.9,0.8,8.2,4.7,9.5c0.8,0.3,1.6,0.4,2.4,0.4
		c3.1,0,6.1-2,7.1-5.1l11.6-34.7c19.8-12.5,35.4-31.2,43.8-53.3h30.9v85.7c0,4.1,3.4,7.5,7.5,7.5c4.1,0,7.5-3.4,7.5-7.5v-85.7h57
		l29.4,88.1c1,3.1,4,5.1,7.1,5.1c0.8,0,1.6-0.1,2.4-0.4c3.9-1.3,6.1-5.6,4.7-9.5l-27.8-83.3h67.3c8.4,0,15.3-6.8,15.3-15.3v-15.5
		C513,256.4,506.2,249.5,497.7,249.5L497.7,249.5z M443.4,117c4.4,0,8,3.6,8,8s-3.6,8-8,8s-8-3.6-8-8S438.9,117,443.4,117z
		 M377.6,198.8c0,4.4-3.6,8-8,8s-8-3.6-8-8s3.6-8,8-8S377.6,194.3,377.6,198.8z M319.1,140.3c4.4,0,8,3.6,8,8s-3.6,8-8,8s-8-3.6-8-8
		S314.7,140.3,319.1,140.3z M29.7,449.1c-3.1,3.1-8.2,3.1-11.4,0c-3.1-3.1-3.1-8.2,0-11.4l56.8-56.8l11.4,11.4L29.7,449.1z
		 M104.1,374.6l-7,7l-11.4-11.4l7-7c3.1-3.1,8.2-3.1,11.4,0C107.3,366.4,107.3,371.5,104.1,374.6z M210.4,350.5
		c-51.5,0-93.5-41.9-93.5-93.5s41.9-93.5,93.5-93.5c23.1,0,44.2,8.4,60.5,22.3l-50.4,50.4c-3-1.5-6.5-2.3-10.1-2.3
		c-12.7,0-23,10.3-23,23c0,12.7,10.3,23,23,23c12.7,0,23-10.3,23-23c0-3.6-0.8-7-2.3-10.1l28.4-28.4c8.6,11,13.3,24.4,13.3,38.5
		c0,34.4-28,62.4-62.4,62.4S148,291.4,148,257s28-62.4,62.4-62.4c6,0,11.9,0.8,17.6,2.5c4,1.2,8.1-1.1,9.3-5.1
		c1.2-4-1.1-8.1-5.1-9.3c-7.1-2.1-14.4-3.1-21.8-3.1c-42.7,0-77.4,34.7-77.4,77.4s34.7,77.4,77.4,77.4s77.4-34.7,77.4-77.4
		c0-18.1-6.2-35.3-17.6-49.2l11.4-11.4c13.9,16.3,22.3,37.5,22.3,60.5C303.9,308.5,261.9,350.5,210.4,350.5L210.4,350.5z M218.4,257
		c0,4.4-3.6,8-8,8c-4.4,0-8-3.6-8-8s3.6-8,8-8C214.8,249,218.4,252.6,218.4,257z"/>
</g>
</svg>
