<?xml version="1.0" encoding="utf-8"?>
<!-- Generator: Adobe Illustrator 21.0.0, SVG Export Plug-In . SVG Version: 6.00 Build 0)  -->
<svg version="1.1" id="Capa_1" xmlns="http://www.w3.org/2000/svg" xmlns:xlink="http://www.w3.org/1999/xlink" x="0px" y="0px"
	 viewBox="0 0 512 512" style="enable-background:new 0 0 512 512;" xml:space="preserve">
<style type="text/css">
	.st0{fill:#5F85E1;}
	.st1{fill:#80F46C;}
</style>
<g>
	<path class="st0" d="M482.3,155.1c-4.1,0-7.5,3.4-7.5,7.5V331H252.1c-4.1,0-7.5,3.4-7.5,7.5s3.4,7.5,7.5,7.5h34.5v18.4
		c-9.7,3.2-16.7,12.3-16.7,23c0,13.3,10.9,24.2,24.2,24.2c13.3,0,24.2-10.9,24.2-24.2c0-10.7-7-19.8-16.7-23V346h180.6
		c4.1,0,7.5-3.4,7.5-7.5V162.6C489.8,158.5,486.4,155.1,482.3,155.1z M294.1,396.6c-5.1,0-9.2-4.1-9.2-9.2s4.1-9.2,9.2-9.2
		s9.2,4.1,9.2,9.2S299.2,396.6,294.1,396.6z"/>
	<path class="st0" d="M213,357.4C213,357.4,213,357.4,213,357.4c0.5-0.7,0.9-1.3,1.2-1.9c0.1-0.1,0.2-0.3,0.2-0.4
		c0.3-0.5,0.6-1.1,0.9-1.6c0.1-0.2,0.2-0.4,0.3-0.6c0.3-0.6,0.6-1.3,0.9-2c0.1-0.2,0.1-0.4,0.2-0.6c0.2-0.6,0.4-1.1,0.6-1.7
		c0.1-0.2,0.1-0.4,0.2-0.6l88.2-101.5c2.7-3.1,2.4-7.9-0.7-10.6s-7.9-2.4-10.6,0.7l-79,90.9c-0.1-0.2-0.3-0.3-0.4-0.5
		c-2.7-2.8-6.4-4.3-10.3-4.3h-82.6c-24.4,0-44.2,19.8-44.2,44.2v5.9h-9v-2.8c0-4.1-3.4-7.5-7.5-7.5h-54c-4.1,0-7.5,3.4-7.5,7.5
		s3.4,7.5,7.5,7.5H54v103.7H21.7c-4.1,0-7.5,3.4-7.5,7.5s3.4,7.5,7.5,7.5h39.8c4.1,0,7.5-3.4,7.5-7.5v-2.8h79.1
		c3.6,5.5,9.8,9.2,16.9,9.2h28.7c11.1,0,20.2-9.1,20.2-20.2v-3.4c0-2.5-0.5-4.9-1.3-7.1c7.4-3.4,12.5-10.8,12.5-19.4v-3.7
		c0-4.5-1.4-8.6-3.8-12.1c4.2-3.9,6.8-9.4,6.8-15.6v-3.7c0-3.8-1-7.3-2.7-10.4c5.3-3.9,8.8-10.1,8.8-17.2v-3.7
		C234.1,367,224.7,357.5,213,357.4z M219.1,378.8v3.7c0,3.5-2.8,6.3-6.3,6.3h-6.1h-25.1c-3.5,0-6.3-2.8-6.3-6.3v-3.7
		c0-3.5,2.8-6.3,6.3-6.3h2.6c0,0,0.1,0,0.1,0h6.8c0,0,0.1,0,0.1,0h1.8c0,0,0.1,0,0.1,0c0,0,0.1,0,0.1,0h19.7
		C216.3,372.4,219.1,375.3,219.1,378.8z M213.1,410.1v3.7c0,3.5-2.8,6.3-6.3,6.3h-3h-28.2c-3.5,0-6.3-2.8-6.3-6.3v-3.7
		c0-3.5,2.8-6.3,6.3-6.3h6.1h25.1C210.2,403.8,213.1,406.6,213.1,410.1z M210,445.2c0,3.5-2.8,6.3-6.3,6.3h-1c0,0,0,0,0,0s0,0,0,0
		h-9h-21.2c-3.5,0-6.3-2.8-6.3-6.3v-3.7c0-3.5,2.8-6.3,6.3-6.3h3h28.2c3.5,0,6.3,2.8,6.3,6.3V445.2z M161.6,389.7l-8.5,9.7
		c4.3-7.1,6.3-15.1,7.2-21.6c0,0.3,0,0.6,0,0.9v3.7C160.3,385,160.8,387.4,161.6,389.7z M160.7,374.6c0.1-0.7,0.1-1.5,0.2-2.2h0.4
		C161,373.1,160.9,373.9,160.7,374.6z M69,388.1h16.5c4.1,0,7.5-3.4,7.5-7.5v-13.3c0,0,0-0.1,0-0.1c0-16.1,13.1-29.2,29.2-29.2h82.1
		c-0.3,10.8-9.1,19.5-20,19.5h-2.7h-28.2c-2.1,0-4.1,0.9-5.5,2.4c-1.4,1.5-2.1,3.6-2,5.7c0,0.2,1.3,19.4-8.6,30
		c-4.4,4.8-10.5,7.1-18.5,7.1c-4.1,0-7.5,3.4-7.5,7.5s3.4,7.5,7.5,7.5c10.2,0,18.8-2.8,25.6-8.3l-24.9,28.6
		c-2.7,3.1-2.4,7.9,0.7,10.6c1.4,1.2,3.2,1.8,4.9,1.8c2.1,0,4.2-0.9,5.7-2.6l24.1-27.7c0.6,2.1,1.6,4.1,2.8,5.9
		c-4.2,3.9-6.8,9.4-6.8,15.6v3.7c0,3.6,0.9,6.9,2.4,9.9c-5.1,3.5-8.5,9.4-8.7,16H69V388.1z M198.9,475.1c0,2.9-2.3,5.2-5.2,5.2H165
		c-2.9,0-5.2-2.3-5.2-5.2v-3.4c0-2.9,2.3-5.2,5.2-5.2h7.5h21.2c2.9,0,5.2,2.3,5.2,5.2L198.9,475.1L198.9,475.1z"/>
	<path class="st0" d="M47.3,468.1v-0.9c0-4.1-3.4-7.5-7.5-7.5s-7.5,3.4-7.5,7.5v0.9c0,4.1,3.4,7.5,7.5,7.5S47.3,472.3,47.3,468.1z"
		/>
	<path class="st0" d="M504.5,15.6H206c-4.1,0-7.5,3.4-7.5,7.5s3.4,7.5,7.5,7.5h291v32.7h-14.7H106H91.3V30.6H176
		c4.1,0,7.5-3.4,7.5-7.5s-3.4-7.5-7.5-7.5H83.8c-4.1,0-7.5,3.4-7.5,7.5v47.7c0,4.1,3.4,7.5,7.5,7.5h14.7V304c0,4.1,3.4,7.5,7.5,7.5
		s7.5-3.4,7.5-7.5V78.3h361.3v54.3c0,4.1,3.4,7.5,7.5,7.5s7.5-3.4,7.5-7.5V78.3h14.7c4.1,0,7.5-3.4,7.5-7.5V23.1
		C512,18.9,508.6,15.6,504.5,15.6z"/>
	<path class="st1" d="M156.7,224.5c-13,0-23.5,10.6-23.5,23.5s10.6,23.5,23.5,23.5s23.5-10.6,23.5-23.5c0-3.4-0.7-6.6-2-9.6
		l58.5-53.9c3.4,2,7.4,3.1,11.6,3.1c5.6,0,10.8-2,14.9-5.3l53.8,33c-0.4,1.7-0.6,3.5-0.6,5.3c0,13,10.6,23.5,23.5,23.5
		c13,0,23.5-10.6,23.5-23.5c0-3.1-0.6-6.1-1.7-8.8l57.7-49.3c3.5,2.1,7.7,3.3,12.1,3.3c13,0,23.5-10.6,23.5-23.5
		s-10.6-23.5-23.5-23.5c-13,0-23.5,10.6-23.5,23.5c0,3.1,0.6,6.1,1.7,8.8L352,200.5c-3.5-2.1-7.7-3.3-12.1-3.3
		c-5.7,0-11,2.1-15.1,5.5l-53.7-32.9c0.4-1.8,0.7-3.6,0.7-5.5c0-13-10.6-23.5-23.5-23.5c-13,0-23.5,10.6-23.5,23.5
		c0,3.3,0.7,6.4,1.9,9.3l-58.7,54C164.7,225.6,160.8,224.5,156.7,224.5z M156.7,256.6c-4.7,0-8.5-3.8-8.5-8.5s3.8-8.5,8.5-8.5
		s8.5,3.8,8.5,8.5S161.4,256.6,156.7,256.6z M431.6,133.9c4.7,0,8.5,3.8,8.5,8.5s-3.8,8.5-8.5,8.5s-8.5-3.8-8.5-8.5
		S426.9,133.9,431.6,133.9z M340,212.1c4.7,0,8.5,3.8,8.5,8.5s-3.8,8.5-8.5,8.5s-8.5-3.8-8.5-8.5S335.3,212.1,340,212.1z
		 M248.3,155.6c4.7,0,8.5,3.8,8.5,8.5s-3.8,8.5-8.5,8.5c-4.7,0-8.5-3.8-8.5-8.5S243.6,155.6,248.3,155.6z"/>
</g>
</svg>
