<?xml version="1.0" encoding="utf-8"?>
<!-- Generator: Adobe Illustrator 21.0.0, SVG Export Plug-In . SVG Version: 6.00 Build 0)  -->
<svg version="1.1" id="light" xmlns="http://www.w3.org/2000/svg" xmlns:xlink="http://www.w3.org/1999/xlink" x="0px" y="0px"
	 viewBox="0 0 512 512" style="enable-background:new 0 0 512 512;" xml:space="preserve">
<style type="text/css">
	.st0{fill:#5F85E1;}
	.st1{fill:#80F46C;}
</style>
<path class="st0" d="M480,384H32c-17.6,0-32-14.4-32-32V74.7c0-17.6,14.4-32,32-32h448c17.6,0,32,14.4,32,32V352
	C512,369.6,497.6,384,480,384z M32,64c-5.9,0-10.7,4.8-10.7,10.7V352c0,5.9,4.8,10.7,10.7,10.7h448c5.9,0,10.7-4.8,10.7-10.7V74.7
	c0-5.9-4.8-10.7-10.7-10.7H32z"/>
<path class="st0" d="M256,64c-5.9,0-10.7-4.8-10.7-10.7V10.7C245.3,4.8,250.1,0,256,0s10.7,4.8,10.7,10.7v42.7
	C266.7,59.2,261.9,64,256,64z"/>
<path class="st0" d="M256,512c-5.9,0-10.7-4.8-10.7-10.7v-128c0-5.9,4.8-10.7,10.7-10.7s10.7,4.8,10.7,10.7v128
	C266.7,507.2,261.9,512,256,512z"/>
<path class="st0" d="M352,512c-2,0-4.1-0.6-5.9-1.8l-96-64c-4.9-3.3-6.2-9.9-3-14.8c3.2-4.9,9.9-6.2,14.8-3l96,64
	c4.9,3.3,6.2,9.9,3,14.8C358.8,510.3,355.4,512,352,512z"/>
<path class="st0" d="M160,512c-3.5,0-6.8-1.7-8.9-4.8c-3.3-4.9-1.9-11.5,3-14.8l96-64c4.9-3.3,11.5-2,14.8,3
	c3.3,4.9,1.9,11.5-3,14.8l-96,64C164.1,511.4,162,512,160,512z"/>
<path class="st1" d="M160,298.7c-2.7,0-5.5-1-7.6-3.1c-4.2-4.2-4.2-10.9,0-15.1l74.7-74.7c3.2-3.3,8.2-4.1,12.3-2l35.8,17.9
	l69.2-69.2c4.2-4.2,10.9-4.2,15.1,0s4.2,10.9,0,15.1l-74.7,74.7c-3.3,3.2-8.2,4-12.3,2l-35.8-17.9l-69.2,69.2
	C165.5,297.6,162.7,298.7,160,298.7L160,298.7z"/>
<path class="st1" d="M352,234.7c-5.9,0-10.7-4.8-10.7-10.7v-53.3H288c-5.9,0-10.7-4.8-10.7-10.7s4.8-10.7,10.7-10.7h64
	c5.9,0,10.7,4.8,10.7,10.7v64C362.7,229.9,357.9,234.7,352,234.7z"/>
</svg>
