<?xml version="1.0" encoding="utf-8"?>
<!-- Generator: Adobe Illustrator 21.0.0, SVG Export Plug-In . SVG Version: 6.00 Build 0)  -->
<svg version="1.1" id="Layer_1" xmlns="http://www.w3.org/2000/svg" xmlns:xlink="http://www.w3.org/1999/xlink" x="0px" y="0px"
	 viewBox="0 0 512 512" style="enable-background:new 0 0 512 512;" xml:space="preserve">
<style type="text/css">
	.st0{fill:#5F85E1;stroke:#5F85E1;stroke-width:2;stroke-miterlimit:10;}
	.st1{fill:#80F46C;}
</style>
<g>
	<g>
		<circle class="st0" cx="456.6" cy="191.8" r="10"/>
	</g>
</g>
<g>
	<g>
		<circle class="st0" cx="192.2" cy="249.9" r="10"/>
	</g>
</g>
<g>
	<g>
		<path class="st0" d="M482.2,78.4h-77.8c-4.8-27.4-28.7-48.2-57.4-48.2s-52.6,20.9-57.4,48.2H212c-16.4,0-29.8,13.4-29.8,29.8v50.4
			h-55.7c5.5-7.7,8.8-17.2,8.8-27.4c0-26.1-21.3-47.4-47.4-47.4c-26.1,0-47.4,21.3-47.4,47.4c0,13.5,5.7,25.7,14.7,34.3
			C22.8,178.8,0,210.1,0,246.4v74.5c0,22.6,17.6,41.3,40.2,43.7v97.2h-25c-5.5,0-10,4.5-10,10s4.5,10,10,10h275.4c0,0,0,0,0.1,0
			c0,0,0,0,0.1,0h119.5c0,0,0,0,0.1,0c0,0,0,0,0.1,0h82.3c5.5,0,10-4.5,10-10s-4.5-10-10-10h-75.1l-28.7-85.4h93.4
			c16.4,0,29.8-13.4,29.8-29.8V108.2C512,91.8,498.6,78.4,482.2,78.4z M347.1,50.2c17.6,0,32.5,12,36.9,28.2h-73.8
			C314.6,62.2,329.5,50.2,347.1,50.2z M87.9,103.8c15.1,0,27.4,12.3,27.4,27.4c0,15.1-12.3,27.4-27.4,27.4
			c-15.1,0-27.4-12.3-27.4-27.4C60.5,116.1,72.8,103.8,87.9,103.8z M121.8,210.5v251.3H101V349.4c0-5.5-4.5-10-10-10s-10,4.5-10,10
			v112.4H60.2V249c0-5.5-4.5-10-10-10c-5.5,0-10,4.5-10,10v95.4C28.7,342.3,20,332.5,20,320.9v-74.5c0-37.4,31.5-67.9,70.3-67.9
			h183.8c-4.2,12.7-16.2,22-30.4,22h-112C126.2,200.5,121.8,205,121.8,210.5z M396.3,461.8h-91.8l28.7-85.4h34.5L396.3,461.8z
			 M492,346.6c0,5.4-4.4,9.8-9.8,9.8c0,0-156,0-156.1,0H212c-5.4,0-9.8-4.4-9.8-9.8v-58.5c0-5.5-4.5-10-10-10s-10,4.5-10,10v58.5
			c0,16.4,13.4,29.8,29.8,29.8h100.1l-28.7,85.4H141.8V220.5h102c28.7,0,52-23.3,52-52c0-5.5-4.5-10-10-10h-83.5v-50.4
			c0-5.4,4.4-9.8,9.8-9.8h270.2c5.4,0,9.8,4.4,9.8,9.8V346.6z"/>
	</g>
</g>
<g>
	<g>
		<path class="st1" d="M433.1,215.3c-3.9-3.9-10.2-3.9-14.1,0l-42.8,42.8l-15.6-15.6c-3.9-3.9-10.2-3.9-14.1,0l-55.2,55.2
			l-15.4-15.4c-1.9-1.9-4.4-2.9-7.1-2.9s-5.2,1.1-7.1,2.9L232.9,311c-3.9,3.9-3.9,10.2,0,14.1c2,2,4.5,2.9,7.1,2.9s5.1-1,7.1-2.9
			l21.6-21.6l15.4,15.4c3.9,3.9,10.2,3.9,14.1,0l55.2-55.2l15.6,15.6c3.9,3.9,10.2,3.9,14.1,0l49.9-49.9
			C437,225.5,437,219.2,433.1,215.3z"/>
	</g>
</g>
<path class="st1" d="M370.6,210.8L370.6,210.8c-5.7,0-10.4-4.7-10.4-10.4v-64.7c0-5.7,4.7-10.4,10.4-10.4h0
	c5.7,0,10.4,4.7,10.4,10.4v64.7C381,206.1,376.3,210.8,370.6,210.8z"/>
<path class="st1" d="M325.8,165.5L325.8,165.5c0-5.7,4.7-10.4,10.4-10.4h64.7c5.7,0,10.4,4.7,10.4,10.4v0c0,5.7-4.7,10.4-10.4,10.4
	h-64.7C330.5,176,325.8,171.3,325.8,165.5z"/>
</svg>
