<?xml version="1.0" encoding="utf-8"?>
<!-- Generator: Adobe Illustrator 21.0.0, SVG Export Plug-In . SVG Version: 6.00 Build 0)  -->
<svg version="1.1" id="Слой_1" xmlns="http://www.w3.org/2000/svg" xmlns:xlink="http://www.w3.org/1999/xlink" x="0px" y="0px"
	 viewBox="0 0 512 512" style="enable-background:new 0 0 512 512;" xml:space="preserve">
<style type="text/css">
	.st0{fill:#5F85E1;}
	.st1{fill:#80F46C;}
</style>
<g id="Page-1">
	<g id="_x30_60---Search">
		<path id="Shape" class="st0" d="M0,307.2c0,9.4,7.6,17.1,17.1,17.1h187.7c4.7,0,8.5-3.8,8.5-8.5c0-4.7-3.8-8.5-8.5-8.5H17.1V110.9
			c0-4.7-3.8-8.5-8.5-8.5S0,106.2,0,110.9V307.2z"/>
		<path id="Shape_1_" class="st0" d="M0,68.3c0,4.7,3.8,8.5,8.5,8.5s8.5-3.8,8.5-8.5V17.1h426.7V128c0,4.7,3.8,8.5,8.5,8.5
			s8.5-3.8,8.5-8.5V17.1c0-9.4-7.6-17.1-17.1-17.1H17.1C7.6,0,0,7.6,0,17.1V68.3z"/>
		<circle id="Oval" class="st0" cx="51.2" cy="51.2" r="8.5"/>
		<circle id="Oval_1_" class="st0" cx="85.3" cy="51.2" r="8.5"/>
		<circle id="Oval_2_" class="st0" cx="119.5" cy="51.2" r="8.5"/>
		<path id="Shape_2_" class="st1" d="M45.2,210.8c3.3,3.3,8.7,3.3,12.1,0l53.7-53.7l28.1,28.1c3.3,3.3,8.7,3.3,12.1,0l62.2-62.2
			l28.1,28.1c3.3,3.3,8.7,3.3,12.1,0l70.8-70.8l28.1,28.1c3.3,3.3,8.7,3.3,12.1,0l51.2-51.2c2.2-2.1,3.1-5.3,2.3-8.3
			s-3.1-5.3-6.1-6.1s-6.2,0.1-8.3,2.3l-45.2,45.2l-28.1-28.1c-3.3-3.3-8.7-3.3-12.1,0L247.5,133l-28.1-28.1c-3.3-3.3-8.7-3.3-12.1,0
			l-62.2,62.2L117,139c-3.3-3.3-8.7-3.3-12.1,0l-59.7,59.7C41.8,202.1,41.8,207.5,45.2,210.8z"/>
		<path id="Shape_3_" class="st0" d="M366.9,128c-50.9,0-98.1,26.6-124.3,70.2s-27.7,97.7-3.9,142.7l-31.9,31.9
			c-3.3,3.3-3.3,8.7,0,12.1c3.3,3.3,8.7,3.3,12.1,0l29-29c9.8,14.1,22.1,26.4,36.2,36.2l-95.4,95.4c-10,9.9-26.2,9.9-36.2,0
			c-10-10-10-26.2-0.1-36.3l36.3-36.2c3.2-3.3,3.2-8.7-0.1-12c-3.3-3.3-8.6-3.4-12-0.1l-36.3,36.2c-16.6,16.7-16.6,43.7,0.1,60.3
			c16.7,16.6,43.6,16.6,60.3,0l98.3-98.3c53.3,28.3,118.6,20.6,163.9-19.3c45.3-39.9,61.1-103.7,39.7-160.2
			C481.4,165.3,427.3,127.9,366.9,128L366.9,128z M366.9,401.1c-70.7,0-128-57.3-128-128s57.3-128,128-128s128,57.3,128,128
			C494.9,343.7,437.6,401,366.9,401.1z"/>
		<path id="Shape_4_" class="st0" d="M339,174.6c-44,12.6-74.4,52.7-74.5,98.5c0,4.7,3.8,8.5,8.5,8.5s8.5-3.8,8.5-8.5
			c0.1-38.1,25.4-71.6,62-82.1c2.9-0.8,5.2-3.2,6-6.1c0.8-3-0.1-6.1-2.3-8.2S342,173.7,339,174.6z"/>
	</g>
</g>
</svg>
