<svg aria-hidden="true" style="position: absolute; width: 0; height: 0; overflow: hidden;" version="1.1" xmlns="http://www.w3.org/2000/svg" xmlns:xlink="http://www.w3.org/1999/xlink">
<defs>
<symbol id="icon-chat-arrow-grow" viewBox="0 0 32 32">
<path d="M30 5.301h-4.115c-0.736 0-1.333 0.597-1.333 1.333 0 0.368 0.149 0.701 0.39 0.943l1.448 1.448-4.781 4.78c-0.245 0.234-0.577 0.378-0.943 0.378s-0.699-0.144-0.944-0.379l0 0-0.227-0.228c-0.734-0.702-1.731-1.134-2.829-1.134s-2.095 0.432-2.83 1.136l0.002-0.001-6.8 6.8c-0.241 0.242-0.391 0.576-0.391 0.945 0 0.739 0.599 1.338 1.338 1.338 0.37 0 0.705-0.15 0.947-0.393l6.8-6.8c0.245-0.234 0.577-0.379 0.943-0.379s0.699 0.144 0.944 0.379l-0-0 0.227 0.228c0.734 0.701 1.731 1.133 2.829 1.133s2.095-0.432 2.83-1.135l-0.002 0.001 4.781-4.781 1.448 1.448c0.24 0.236 0.57 0.381 0.933 0.381 0.734 0 1.329-0.593 1.333-1.326v-4.115c0-1.105-0.895-2-2-2v0z"></path>
<path d="M30.667 29.301h-24c-2.209 0-4-1.791-4-4v0-23.968c0-0.736-0.597-1.333-1.333-1.333s-1.333 0.597-1.333 1.333v0 23.968c0.005 3.68 2.987 6.662 6.666 6.667h24c0.736 0 1.333-0.597 1.333-1.333s-0.597-1.333-1.333-1.333v0z"></path>
</symbol>
<symbol id="icon-house" viewBox="0 0 32 32">
<path d="M24.5 31.998h-17c-4.136 0-7.5-3.364-7.5-7.5v-10.517c0-2.324 1.103-4.554 2.952-5.963l8.5-6.483c2.678-2.043 6.419-2.043 9.097 0l2.702 2.059v-1.595c0.066-1.659 2.435-1.657 2.5 0v4.119c0 0.475-0.269 0.909-0.695 1.12s-0.934 0.162-1.312-0.126l-4.71-3.589c-1.786-1.362-4.28-1.362-6.065-0l-8.5 6.483c-1.232 0.94-1.968 2.426-1.968 3.976v10.517c0 2.757 2.243 5 5 5h17c2.757 0 5-2.243 5-5v-10.517c0-1.569-0.727-3.060-1.946-3.989-0.549-0.419-0.654-1.203-0.236-1.752s1.203-0.654 1.752-0.236c1.834 1.399 2.929 3.633 2.929 5.977v10.517c0 4.136-3.364 7.5-7.5 7.5zM13.5 14.435c-0.863 0-1.563 0.7-1.563 1.563 0.083 2.073 3.043 2.072 3.125 0 0-0.863-0.7-1.563-1.563-1.563zM20.063 15.998c-0.083 2.073-3.043 2.072-3.125 0 0.083-2.073 3.043-2.072 3.125 0zM15.063 20.998c-0.083 2.073-3.043 2.072-3.125 0 0.083-2.073 3.043-2.072 3.125 0zM20.063 20.998c-0.083 2.073-3.043 2.072-3.125 0 0.083-2.073 3.043-2.072 3.125 0z"></path>
</symbol>
<symbol id="icon-laptop" viewBox="0 0 32 32">
<path d="M31.488 26.512h-1.844v-14.512c0-1.556-1.269-2.825-2.825-2.825h-1.331c-0.456 0-0.825 0.369-0.825 0.825s0.369 0.825 0.825 0.825h1.331c0.65 0 1.175 0.525 1.175 1.175v14.512h-23.681v-14.512c0-0.65 0.525-1.175 1.175-1.175h1.331c0.456 0 0.825-0.369 0.825-0.825s-0.369-0.825-0.825-0.825h-1.331c-1.556 0-2.825 1.269-2.825 2.825v14.512h-1.837c-0.456 0-0.825 0.369-0.825 0.825s0.369 0.825 0.825 0.825h30.669c0.456 0 0.825-0.369 0.825-0.825-0.006-0.456-0.375-0.825-0.831-0.825z"></path>
<path d="M9.394 18.031v0c0.463 0.275 1.019 0.275 1.488 0.012 1.581-0.894 3.137-0.694 4.756 0.6 0.15 0.113 0.331 0.181 0.513 0.181 0.188 0 0.369-0.063 0.512-0.181 1.619-1.294 3.175-1.494 4.756-0.6 0.469 0.262 1.025 0.262 1.488-0.012 0.456-0.269 0.731-0.744 0.731-1.275v-10.081c0-0.719-0.337-1.375-0.913-1.763-2.15-1.438-4.425-1.419-6.581 0.063-2.156-1.475-4.431-1.5-6.581-0.063-0.569 0.381-0.906 1.044-0.906 1.763v10.081c0.012 0.531 0.281 1.006 0.738 1.275zM10.494 6.281c0.781-0.525 1.556-0.787 2.331-0.787 0.831 0 1.669 0.306 2.512 0.912v10.075c-0.825-0.425-1.662-0.637-2.494-0.637-0.844 0-1.688 0.219-2.525 0.65v-9.819c-0.006-0.162 0.063-0.319 0.175-0.394zM22 6.675v9.806c-0.837-0.431-1.675-0.644-2.512-0.644s-1.675 0.212-2.506 0.644v-10.075c1.631-1.169 3.219-1.213 4.838-0.125 0.113 0.075 0.181 0.225 0.181 0.394z"></path>
</symbol>
<symbol id="icon-news" viewBox="0 0 32 32">
<path d="M31.111 0h-24.889c-0.491 0-0.889 0.398-0.889 0.889v4.444h-4.444c-0.491 0-0.889 0.398-0.889 0.889v22.222c0.002 1.963 1.593 3.553 3.556 3.556h24c2.453-0.003 4.442-1.991 4.444-4.444v-26.667c0-0.491-0.398-0.889-0.889-0.889zM1.778 28.444v-21.333h3.556v21.333c0 0.982-0.796 1.778-1.778 1.778s-1.778-0.796-1.778-1.778zM30.222 27.556c-0.002 1.472-1.195 2.665-2.667 2.667h-20.939c0.32-0.538 0.491-1.152 0.494-1.778v-26.667h23.111z"></path>
<path d="M11.556 7.111h14.222c0.491 0 0.889-0.398 0.889-0.889s-0.398-0.889-0.889-0.889h-14.222c-0.491 0-0.889 0.398-0.889 0.889s0.398 0.889 0.889 0.889z"></path>
<path d="M11.556 12.444h14.222c0.491 0 0.889-0.398 0.889-0.889s-0.398-0.889-0.889-0.889h-14.222c-0.491 0-0.889 0.398-0.889 0.889s0.398 0.889 0.889 0.889z"></path>
<path d="M11.556 17.778h14.222c0.491 0 0.889-0.398 0.889-0.889s-0.398-0.889-0.889-0.889h-14.222c-0.491 0-0.889 0.398-0.889 0.889s0.398 0.889 0.889 0.889z"></path>
<path d="M11.556 23.111h14.222c0.491 0 0.889-0.398 0.889-0.889s-0.398-0.889-0.889-0.889h-14.222c-0.491 0-0.889 0.398-0.889 0.889s0.398 0.889 0.889 0.889z"></path>
</symbol>
<symbol id="icon-recordings" viewBox="0 0 32 32">
<path d="M22.795 7.877l1.201-0.694-1.201-0.694zM21.295 10.475l-0.005-0.003c-0.296-0.174-0.495-0.495-0.495-0.864v-4.851c0-0 0-0 0-0 0-0.552 0.448-1 1-1 0.184 0 0.357 0.050 0.5 0.134l4.206 2.428c0.296 0.174 0.495 0.495 0.495 0.864s-0.199 0.69-0.5 0.866l-4.197 2.423c-0.148 0.087-0.321 0.136-0.505 0.136s-0.357-0.050-0.5-0.134zM25.905 11.486v0c-0.368 0-0.69 0.199-0.866 0.5l-1.291 2.235-1.292-2.24c-0.174-0.296-0.495-0.495-0.864-0.495h-4.095v-8.604h12.503v8.604zM27.24 23.047v0c-0.001 0.074-0.061 0.134-0.135 0.135h-24.97c-0.074-0.001-0.134-0.061-0.135-0.135v-17.272c0.001-0.074 0.061-0.134 0.135-0.135h13.362v6.301c0.001 0.852 0.691 1.542 1.543 1.544h3.974l1.871 3.24c0.174 0.296 0.495 0.495 0.863 0.495s0.69-0.199 0.866-0.5l1.868-3.235h0.757v9.562zM30.457 0.881h-13.417c-0.852 0.001-1.542 0.691-1.543 1.543v1.216h-13.362c-1.179 0.001-2.134 0.956-2.135 2.135v17.272c0.001 1.179 0.956 2.134 2.135 2.135h11.485v1.331l-4.317 2.763c-0.287 0.179-0.476 0.493-0.476 0.852 0 0.552 0.448 1 1 1 0.206 0 0.398-0.062 0.557-0.169l-0.004 0.002 4.24-2.713 4.24 2.713c0.156 0.106 0.349 0.17 0.557 0.17 0.552 0 1-0.448 1-1 0-0.36-0.19-0.675-0.476-0.852l-0.004-0.002-4.318-2.763v-1.331h11.485c1.179-0.001 2.134-0.956 2.135-2.135v-9.562h1.217c0.852-0.001 1.542-0.692 1.543-1.544v-9.518c-0.001-0.852-0.691-1.542-1.543-1.543h-0zM15.734 17.365v-0c-0.002-1.624-1.318-2.94-2.942-2.942h-4.748c-1.624 0.002-2.94 1.318-2.942 2.942v1.762c0 0.552 0.448 1 1 1s1-0.448 1-1v-1.762c0.001-0.52 0.422-0.941 0.942-0.942h4.748c0.52 0.001 0.941 0.422 0.942 0.942v1.762c0 0.552 0.448 1 1 1s1-0.448 1-1v-1.762zM10.418 10.695h-0c-0.394 0.001-0.713 0.319-0.713 0.713v0c0 0 0 0 0 0 0 0.394 0.319 0.713 0.713 0.713s0.713-0.319 0.713-0.713c0-0.394-0.319-0.713-0.713-0.713zM10.418 14.122c-0 0-0 0-0 0-1.498 0-2.713-1.215-2.713-2.713s1.215-2.713 2.713-2.713c1.498 0 2.713 1.215 2.713 2.713v0c-0.002 1.498-1.215 2.711-2.713 2.713h-0z"></path>
</symbol>
<symbol id="icon-webinar" viewBox="0 0 32 32">
<path d="M26.349 13.512c-0.442 0-0.798 0.356-0.798 0.798v14.741c0 0.78-0.522 1.413-1.167 1.413h-21.663c-0.62 0-1.124-0.651-1.124-1.456v-19.581c0-0.78 0.534-1.443 1.167-1.443h10.564c0.442 0 0.798-0.356 0.798-0.798s-0.356-0.798-0.798-0.798h-10.564c-1.523 0-2.764 1.364-2.764 3.040v19.581c0 1.683 1.222 3.053 2.721 3.053h21.663c1.523 0 2.764-1.351 2.764-3.010v-14.741c0-0.442-0.356-0.798-0.798-0.798zM0.307 9.428v0c0-0.104 0.006-0.209 0.018-0.313-0.012 0.104-0.018 0.209-0.018 0.313zM26.122 30.962c0.055-0.061 0.111-0.123 0.16-0.19-0.055 0.068-0.104 0.129-0.16 0.19z"></path>
<path d="M9.158 13.015c-0.147 0-0.289 0.037-0.412 0.111-0.246 0.141-0.399 0.405-0.399 0.688v10.81c0 0 0 0 0 0.006 0.006 0.276 0.154 0.541 0.393 0.682 0.123 0.074 0.27 0.117 0.418 0.117 0.129 0 0.264-0.031 0.375-0.092l10.319-5.405c0.393-0.203 0.541-0.688 0.338-1.081-0.074-0.141-0.19-0.258-0.338-0.338l-10.319-5.405c-0.104-0.055-0.24-0.092-0.375-0.092zM8.906 25.047c-0.037-0.025-0.074-0.049-0.104-0.080 0.031 0.037 0.068 0.061 0.104 0.080 0 0 0 0 0 0s0 0 0 0zM9.158 13.322c0.012 0 0.018 0 0.031 0-0.012 0-0.018 0-0.031 0 0 0 0 0 0 0zM9.164 25.121c0 0-0.006 0-0.006 0 0.012 0 0.025 0 0.037 0-0.012 0-0.018 0-0.031 0zM19.716 19.661l-10.319 5.405c-0.018 0.012-0.037 0.018-0.055 0.025 0.018-0.006 0.037-0.018 0.055-0.025l10.319-5.405c0.012-0.006 0.031-0.018 0.043-0.025-0.012 0.006-0.031 0.018-0.043 0.025zM9.95 23.303v-8.169l7.8 4.091-7.8 4.078zM9.397 13.383c-0.018-0.012-0.037-0.018-0.055-0.025 0.018 0.006 0.037 0.018 0.055 0.025v0z"></path>
<path d="M31.877 8.15c-0.006-0.006-0.012-0.018-0.018-0.025l-6.461-7.825c-0.154-0.184-0.375-0.289-0.614-0.289l-10.184-0.012c0 0 0 0 0 0-0.215 0-0.412 0.086-0.565 0.233-0.147 0.154-0.233 0.35-0.233 0.565 0 0.184 0.068 0.362 0.184 0.504l1.965 2.383-1.179 2.5c-0.381 0.811-0.098 2.033 0.749 3.274 0.872 1.265 2.223 2.395 3.716 3.096 1.259 0.602 2.666 0.921 4.060 0.934 0.006 0 0.006 0 0.012 0 0.197 0 0.393 0 0.59-0.018 0.737-0.055 1.407-0.215 1.929-0.461 0.559-0.264 0.958-0.627 1.161-1.050l1.167-2.5h3.108c0.215 0 0.412-0.086 0.565-0.233s0.233-0.35 0.233-0.565c0-0.19-0.068-0.369-0.184-0.51zM24.783 0.319c0.012 0 0.018 0 0.031 0-0.012 0-0.025 0-0.031 0 0 0 0 0 0 0zM17.013 4.484v0 0zM17.578 9.883c0.178 0.166 0.369 0.338 0.571 0.498-0.203-0.166-0.393-0.332-0.571-0.498zM19.79 11.393c-0.461-0.215-0.884-0.467-1.265-0.737 0.381 0.27 0.805 0.516 1.265 0.737 0 0 0 0 0 0s0 0 0 0zM21.036 12.886c0.166 0.043 0.326 0.080 0.491 0.117-0.16-0.037-0.326-0.074-0.491-0.117zM25.551 11.277c-0.074 0.154-0.614 0.516-1.763 0.602-0.147 0.006-0.289 0.012-0.436 0.012-1.179 0-2.365-0.27-3.433-0.774-1.622-0.768-2.573-1.855-2.997-2.438-0.651-0.897-0.805-1.597-0.706-1.806l0.866-1.818 3.378 4.109c0.154 0.184 0.375 0.289 0.614 0.289h5.331l-0.854 1.824zM21.46 7.862l-5.159-6.265h8.108l5.159 6.265h-8.108zM31.263 9.152h-3.304c-0.006 0.006-0.006 0.006-0.012 0.012 0-0.006 0.006-0.006 0.012-0.012h3.304c0.086 0 0.166-0.025 0.233-0.061-0.068 0.037-0.147 0.061-0.233 0.061z"></path>
</symbol>
<symbol id="icon-credit-card" viewBox="0 0 32 32">
<path d="M28.667 5.333h-25.333c-1.837 0-3.333 1.496-3.333 3.333v14.667c0 1.837 1.496 3.333 3.333 3.333h25.333c1.837 0 3.333-1.496 3.333-3.333v-14.667c0-1.837-1.496-3.333-3.333-3.333zM30.667 23.333c0 1.103-0.897 2-2 2h-25.333c-1.103 0-2-0.897-2-2v-14.667c0-1.103 0.897-2 2-2h25.333c1.103 0 2 0.897 2 2v14.667z"></path>
<path d="M31.333 9.333h-30.667c-0.368 0-0.667 0.299-0.667 0.667v4c0 0.368 0.299 0.667 0.667 0.667h30.667c0.368 0 0.667-0.299 0.667-0.667v-4c-0-0.368-0.299-0.667-0.667-0.667zM30.667 13.333h-29.333v-2.667h29.333v2.667z"></path>
<path d="M10 18.667h-5.333c-0.368 0-0.667 0.299-0.667 0.667s0.299 0.667 0.667 0.667h5.333c0.368 0 0.667-0.299 0.667-0.667s-0.299-0.667-0.667-0.667z"></path>
<path d="M14 21.333h-9.333c-0.368 0-0.667 0.299-0.667 0.667s0.299 0.667 0.667 0.667h9.333c0.368 0 0.667-0.299 0.667-0.667s-0.299-0.667-0.667-0.667z"></path>
</symbol>
<symbol id="icon-Vector" viewBox="0 0 36 32">
<path fill="#afb1b8" style="fill: var(--color2, #afb1b8)" d="M35.556 4.976c-1.322 0.58-2.731 0.964-4.2 1.151 1.511-0.902 2.665-2.32 3.207-4.029-1.409 0.84-2.964 1.433-4.622 1.764-1.338-1.424-3.244-2.307-5.324-2.307-4.035 0-7.284 3.276-7.284 7.291 0 0.578 0.049 1.133 0.169 1.662-6.060-0.296-11.422-3.2-15.024-7.624-0.629 1.091-0.998 2.34-0.998 3.684 0 2.524 1.3 4.762 3.238 6.058-1.171-0.022-2.32-0.362-3.293-0.898 0 0.022 0 0.051 0 0.080 0 3.542 2.527 6.484 5.84 7.162-0.593 0.162-1.24 0.24-1.911 0.24-0.467 0-0.938-0.026-1.38-0.124 0.944 2.887 3.624 5.009 6.811 5.078-2.48 1.94-5.629 3.109-9.038 3.109-0.598 0-1.171-0.026-1.744-0.1 3.229 2.082 7.056 3.271 11.182 3.271 13.413 0 20.747-11.111 20.747-20.742 0-0.322-0.011-0.633-0.027-0.942 1.447-1.027 2.662-2.309 3.653-3.784z"></path>
</symbol>
<symbol id="icon-search" viewBox="0 0 32 32">
<path d="M31.636 29.876l-7.81-7.809c1.941-2.334 3.111-5.332 3.111-8.598 0-7.427-6.042-13.469-13.468-13.469s-13.468 6.042-13.468 13.469c0 7.426 6.042 13.468 13.468 13.468 3.266 0 6.264-1.169 8.598-3.111l7.81 7.81c0.243 0.243 0.561 0.364 0.88 0.364s0.637-0.121 0.88-0.364c0.486-0.486 0.486-1.273-0-1.759zM2.488 13.469c0-6.055 4.926-10.98 10.98-10.98s10.98 4.926 10.98 10.98c0 6.054-4.925 10.979-10.98 10.979s-10.98-4.925-10.98-10.979z"></path>
</symbol>
<symbol id="icon-dashboard" viewBox="0 0 32 32">
<path d="M27.531 30h-8.062c-1.361 0-2.469-1.108-2.469-2.469v-10.062c0-1.361 1.108-2.469 2.469-2.469h8.062c1.361 0 2.469 1.108 2.469 2.469v10.062c0 1.361-1.108 2.469-2.469 2.469zM19.469 17c-0.259 0-0.469 0.21-0.469 0.469v10.062c0 0.259 0.21 0.469 0.469 0.469h8.062c0.259 0 0.469-0.21 0.469-0.469v-10.062c0-0.259-0.21-0.469-0.469-0.469z"></path>
<path d="M27.531 13h-8.062c-1.361 0-2.469-1.108-2.469-2.469v-6.062c0-1.361 1.108-2.469 2.469-2.469h8.062c1.361 0 2.469 1.108 2.469 2.469v6.062c0 1.361-1.108 2.469-2.469 2.469zM19.469 4c-0.259 0-0.469 0.21-0.469 0.469v6.062c0 0.259 0.21 0.469 0.469 0.469h8.062c0.259 0 0.469-0.21 0.469-0.469v-6.062c0-0.259-0.21-0.469-0.469-0.469z"></path>
<path d="M12.531 17h-8.062c-1.361 0-2.469-1.108-2.469-2.469v-10.062c0-1.361 1.108-2.469 2.469-2.469h8.062c1.361 0 2.469 1.108 2.469 2.469v10.062c0 1.361-1.108 2.469-2.469 2.469zM4.469 4c-0.259 0-0.469 0.21-0.469 0.469v10.062c0 0.259 0.21 0.469 0.469 0.469h8.062c0.259 0 0.469-0.21 0.469-0.469v-10.062c0-0.259-0.21-0.469-0.469-0.469z"></path>
<path d="M12.531 30h-8.062c-1.361 0-2.469-1.108-2.469-2.469v-6.062c0-1.361 1.108-2.469 2.469-2.469h8.062c1.361 0 2.469 1.108 2.469 2.469v6.062c0 1.361-1.108 2.469-2.469 2.469zM4.469 21c-0.259 0-0.469 0.21-0.469 0.469v6.062c0 0.259 0.21 0.469 0.469 0.469h8.062c0.259 0 0.469-0.21 0.469-0.469v-6.062c0-0.259-0.21-0.469-0.469-0.469z"></path>
</symbol>
<symbol id="icon-star-4" viewBox="0 0 32 32">
<path d="M27.314 4.686c-3.022-3.022-7.040-4.686-11.314-4.686s-8.292 1.664-11.314 4.686c-3.022 3.022-4.686 7.040-4.686 11.314s1.664 8.292 4.686 11.314c3.022 3.022 7.040 4.686 11.314 4.686s8.292-1.664 11.314-4.686c3.022-3.022 4.686-7.040 4.686-11.314s-1.664-8.292-4.686-11.314zM16 30.125c-7.789 0-14.125-6.336-14.125-14.125s6.336-14.125 14.125-14.125 14.125 6.336 14.125 14.125-6.336 14.125-14.125 14.125z"></path>
<path d="M26.976 12.521l-7.584-1.102-3.392-6.873-3.392 6.873-7.585 1.102 5.488 5.35-1.296 7.554 6.784-3.566 6.784 3.566-1.296-7.554 5.488-5.35zM16 19.74l-4.293 2.257 0.82-4.781-3.474-3.386 4.8-0.698 2.147-4.35 2.147 4.35 4.8 0.698-3.474 3.386 0.82 4.781-4.294-2.257z"></path>
</symbol>
<symbol id="icon-user-10" viewBox="0 0 32 32">
<path d="M14.139 1.333h3.722l1.354 3.975 2.184 0.695 4.036-1.511 2.074 2.074-1.511 4.036 0.695 2.184 3.975 1.354v3.722l-3.975 1.354-0.695 2.184 1.511 4.036-2.074 2.074-4.036-1.511-2.184 0.695-1.354 3.975h-3.722l-1.354-3.975-2.184-0.695-4.036 1.511-2.074-2.074 1.511-4.036-0.695-2.184-3.975-1.354v-3.722l3.975-1.354 0.695-2.184-1.511-4.036 2.074-2.074 4.036 1.511 2.184-0.695zM15.094 2.668l-1.263 3.708-3.266 1.039-3.664-1.372-0.859 0.859 1.372 3.664-1.039 3.266-3.708 1.263v1.812l3.708 1.263 1.039 3.266-1.372 3.664 0.859 0.859 3.664-1.372 3.266 1.039 1.263 3.708h1.812l1.263-3.708 3.266-1.039 3.664 1.372 0.859-0.859-1.372-3.664 1.039-3.266 3.708-1.263v-1.812l-3.708-1.263-1.039-3.266 1.372-3.664-0.859-0.859-3.664 1.372-3.266-1.039-1.263-3.708z"></path>
<path d="M16 10.667c-1.104 0-2 0.895-2 1.999s0.895 2 2 2c1.104 0 1.999-0.895 1.999-2s-0.895-1.999-1.999-1.999zM12.666 12.667c0-1.841 1.493-3.334 3.334-3.334s3.334 1.493 3.334 3.334c0 1.841-1.493 3.334-3.334 3.334s-3.334-1.493-3.334-3.334z"></path>
<path d="M13.667 18.667c-0.442 0-0.866 0.176-1.178 0.488s-0.488 0.736-0.488 1.178v2.333h-1.334v-2.333c0-0.796 0.316-1.559 0.879-2.122s1.326-0.879 2.122-0.879h4.667c0.796 0 1.559 0.316 2.122 0.879s0.879 1.326 0.879 2.122v2.333h-1.334v-2.333c0-0.442-0.176-0.866-0.488-1.178s-0.736-0.488-1.178-0.488z"></path>
</symbol>
<symbol id="icon-bank" viewBox="0 0 32 32">
<path d="M0.168 31.597c0.175 0.252 0.462 0.403 0.77 0.403h30.125c0.308 0 0.595-0.151 0.77-0.403s0.216-0.575 0.108-0.863c-0.365-0.977-1.048-1.834-1.326-2.156-0.178-0.208-0.438-0.328-0.711-0.328h-27.807c-0.274 0-0.534 0.12-0.711 0.328-0.277 0.322-0.96 1.179-1.326 2.156-0.108 0.288-0.068 0.611 0.108 0.863z"></path>
<path d="M3.75 15.062h5.688v11.312h-5.688z"></path>
<path d="M13.187 15.062h5.625v11.312h-5.625z"></path>
<path d="M22.562 15.062h5.688v11.312h-5.688z"></path>
<path d="M2.029 12.911c0.176 0.177 0.421 0.276 0.663 0.276 0 0 0-0 0-0s0 0 0-0.001h26.613c0 0.001 0 0.001 0 0.001s0 0 0 0c0.242 0 0.487-0.099 0.663-0.276 0.191-0.191 1.616-1.675 2.029-3.474h-32c0.413 1.799 1.838 3.283 2.029 3.474z"></path>
<path d="M31.403 7.563l-14.984-7.464c-0.264-0.132-0.575-0.132-0.839 0l-14.984 7.464z"></path>
</symbol>
<symbol id="icon-next" viewBox="0 0 32 32">
<path d="M24.276 15.122l-14.801-14.76c-0.485-0.483-1.27-0.482-1.754 0.003s-0.482 1.27 0.003 1.754l13.92 13.881-13.92 13.881c-0.485 0.484-0.486 1.269-0.003 1.754 0.243 0.243 0.561 0.365 0.879 0.365s0.634-0.121 0.876-0.362l14.801-14.76c0.234-0.232 0.365-0.549 0.365-0.878s-0.131-0.645-0.365-0.878z"></path>
</symbol>
<symbol id="icon-apps2-1" viewBox="0 0 32 32">
<path d="M9.331 0h-4c-2.944 0-5.331 2.388-5.331 5.331v4c0 2.944 2.388 5.331 5.331 5.331h4c2.944 0 5.331-2.387 5.331-5.331v-4c0.006-2.944-2.381-5.331-5.331-5.331zM12 9.331c0 1.475-1.194 2.669-2.669 2.669h-4c-1.475 0-2.669-1.194-2.669-2.669v-4c0-1.475 1.194-2.669 2.669-2.669h4c1.475 0 2.669 1.194 2.669 2.669v4z"></path>
<path d="M9.331 17.331h-4c-2.944 0-5.331 2.387-5.331 5.338v4c0 2.944 2.388 5.331 5.331 5.331h4c2.944 0 5.331-2.387 5.331-5.331v-4c0.006-2.95-2.381-5.338-5.331-5.338zM12 26.669c0 1.475-1.194 2.669-2.669 2.669h-4c-1.475 0-2.669-1.194-2.669-2.669v-4c0-1.475 1.194-2.669 2.669-2.669h4c1.475 0 2.669 1.194 2.669 2.669v4z"></path>
<path d="M26.669 17.331h-4c-2.944 0-5.331 2.387-5.331 5.331v4c0 2.944 2.387 5.331 5.331 5.331h4c2.944 0 5.331-2.387 5.331-5.331v-4c0-2.944-2.387-5.331-5.331-5.331zM29.331 26.669c0 1.475-1.194 2.669-2.669 2.669h-4c-1.475 0-2.669-1.194-2.669-2.669v-4c0-1.475 1.194-2.669 2.669-2.669h4c1.475 0 2.669 1.194 2.669 2.669v4z"></path>
<path d="M23.831 2.419h-0.050l-2.813 1.319-0.494-2.044 3.738-1.712h2.438v14.281h-2.813v-11.844z"></path>
</symbol>
<symbol id="icon-apps11-1" viewBox="0 0 32 32">
<path d="M9.331 0h-4c-2.944 0-5.331 2.388-5.331 5.331v4c0 2.944 2.388 5.331 5.331 5.331h4c2.944 0 5.331-2.387 5.331-5.331v-4c0.006-2.944-2.381-5.331-5.331-5.331zM12 9.331c0 1.475-1.194 2.669-2.669 2.669h-4c-1.475 0-2.669-1.194-2.669-2.669v-4c0-1.475 1.194-2.669 2.669-2.669h4c1.475 0 2.669 1.194 2.669 2.669v4z"></path>
<path d="M9.331 17.331h-4c-2.944 0-5.331 2.387-5.331 5.338v4c0 2.944 2.388 5.331 5.331 5.331h4c2.944 0 5.331-2.387 5.331-5.331v-4c0.006-2.95-2.381-5.338-5.331-5.338zM12 26.669c0 1.475-1.194 2.669-2.669 2.669h-4c-1.475 0-2.669-1.194-2.669-2.669v-4c0-1.475 1.194-2.669 2.669-2.669h4c1.475 0 2.669 1.194 2.669 2.669v4z"></path>
<path d="M26.669 17.331h-4c-2.944 0-5.331 2.387-5.331 5.331v4c0 2.944 2.387 5.331 5.331 5.331h4c2.944 0 5.331-2.387 5.331-5.331v-4c0-2.944-2.387-5.331-5.331-5.331zM29.331 26.669c0 1.475-1.194 2.669-2.669 2.669h-4c-1.475 0-2.669-1.194-2.669-2.669v-4c0-1.475 1.194-2.669 2.669-2.669h4c1.475 0 2.669 1.194 2.669 2.669v4z"></path>
<path d="M19.269 14.569v-1.65l1.819-1.563c3.619-3.119 5.319-4.831 5.344-6.725 0-1.275-0.731-2.394-2.744-2.394-1.35 0-2.506 0.638-3.288 1.188l-0.85-1.913c1.113-0.825 2.788-1.462 4.725-1.462 3.406 0 5.056 2 5.056 4.325 0 2.506-1.938 4.525-4.606 6.831l-1.35 1.075v0.044h6.313v2.244h-10.419z"></path>
</symbol>
<symbol id="icon-apps111-1" viewBox="0 0 32 32">
<path d="M9.331 0h-4c-2.944 0-5.331 2.388-5.331 5.331v4c0 2.944 2.388 5.331 5.331 5.331h4c2.944 0 5.331-2.387 5.331-5.331v-4c0.006-2.944-2.381-5.331-5.331-5.331zM12 9.331c0 1.475-1.194 2.669-2.669 2.669h-4c-1.475 0-2.669-1.194-2.669-2.669v-4c0-1.475 1.194-2.669 2.669-2.669h4c1.475 0 2.669 1.194 2.669 2.669v4z"></path>
<path d="M9.331 17.331h-4c-2.944 0-5.331 2.387-5.331 5.338v4c0 2.944 2.388 5.331 5.331 5.331h4c2.944 0 5.331-2.387 5.331-5.331v-4c0.006-2.95-2.381-5.338-5.331-5.338zM12 26.669c0 1.475-1.194 2.669-2.669 2.669h-4c-1.475 0-2.669-1.194-2.669-2.669v-4c0-1.475 1.194-2.669 2.669-2.669h4c1.475 0 2.669 1.194 2.669 2.669v4z"></path>
<path d="M26.669 17.331h-4c-2.944 0-5.331 2.387-5.331 5.331v4c0 2.944 2.387 5.331 5.331 5.331h4c2.944 0 5.331-2.387 5.331-5.331v-4c0-2.944-2.387-5.331-5.331-5.331zM29.331 26.669c0 1.475-1.194 2.669-2.669 2.669h-4c-1.475 0-2.669-1.194-2.669-2.669v-4c0-1.475 1.194-2.669 2.669-2.669h4c1.475 0 2.669 1.194 2.669 2.669v4z"></path>
<path d="M19.856 11.781c0.594 0.331 2.031 0.881 3.5 0.881 2.219 0 3.119-1.162 3.094-2.287 0-1.694-1.7-2.419-3.475-2.419h-1.35v-1.975h1.3c1.35 0 3.050-0.569 3.050-2 0-0.969-0.781-1.781-2.456-1.781-1.25 0-2.506 0.506-3.144 0.9l-0.663-1.956c0.875-0.569 2.575-1.1 4.419-1.1 3.169 0 4.8 1.625 4.8 3.494 0 1.494-0.944 2.725-2.837 3.337v0.044c1.869 0.306 3.381 1.625 3.381 3.556 0 2.419-2.175 4.325-5.981 4.325-1.869 0-3.475-0.481-4.3-0.988l0.663-2.031z"></path>
</symbol>
<symbol id="icon-calendar-9" viewBox="0 0 32 32">
<path d="M25.333 2.667h-1.333v-1.333c0-0.736-0.597-1.333-1.333-1.333s-1.333 0.597-1.333 1.333v0 1.333h-10.667v-1.333c0-0.736-0.597-1.333-1.333-1.333s-1.333 0.597-1.333 1.333v0 1.333h-1.333c-3.68 0.005-6.662 2.987-6.667 6.666v16c0.005 3.68 2.987 6.662 6.666 6.667h18.667c3.68-0.005 6.662-2.987 6.667-6.666v-16c-0.005-3.68-2.987-6.662-6.666-6.667h-0zM2.667 9.333c0-2.209 1.791-4 4-4v0h18.667c2.209 0 4 1.791 4 4v0 1.333h-26.667zM25.333 29.333h-18.667c-2.209 0-4-1.791-4-4v0-12h26.667v12c0 2.209-1.791 4-4 4v0z"></path>
<path d="M18 20c0 1.105-0.895 2-2 2s-2-0.895-2-2c0-1.105 0.895-2 2-2s2 0.895 2 2z"></path>
<path d="M11.333 20c0 1.105-0.895 2-2 2s-2-0.895-2-2c0-1.105 0.895-2 2-2s2 0.895 2 2z"></path>
<path d="M24.667 20c0 1.105-0.895 2-2 2s-2-0.895-2-2c0-1.105 0.895-2 2-2s2 0.895 2 2z"></path>
</symbol>
<symbol id="icon-chart-histogram" viewBox="0 0 32 32">
<path d="M30.667 29.333h-24c-2.209 0-4-1.791-4-4v0-24c0-0.736-0.597-1.333-1.333-1.333s-1.333 0.597-1.333 1.333v0 24c0.005 3.68 2.987 6.662 6.666 6.667h24c0.736 0 1.333-0.597 1.333-1.333s-0.597-1.333-1.333-1.333v0z"></path>
<path d="M8 26.667c0.736 0 1.333-0.597 1.333-1.333v0-9.333c0-0.736-0.597-1.333-1.333-1.333s-1.333 0.597-1.333 1.333v0 9.333c0 0.736 0.597 1.333 1.333 1.333v0z"></path>
<path d="M13.333 13.333v12c0 0.736 0.597 1.333 1.333 1.333s1.333-0.597 1.333-1.333v0-12c0-0.736-0.597-1.333-1.333-1.333s-1.333 0.597-1.333 1.333v0z"></path>
<path d="M20 17.333v8c0 0.736 0.597 1.333 1.333 1.333s1.333-0.597 1.333-1.333v0-8c0-0.736-0.597-1.333-1.333-1.333s-1.333 0.597-1.333 1.333v0z"></path>
<path d="M26.667 12v13.333c0 0.736 0.597 1.333 1.333 1.333s1.333-0.597 1.333-1.333v0-13.333c0-0.736-0.597-1.333-1.333-1.333s-1.333 0.597-1.333 1.333v0z"></path>
<path d="M8 12c0.368-0 0.701-0.149 0.943-0.391l4.781-4.781c0.245-0.233 0.577-0.377 0.943-0.377s0.698 0.144 0.943 0.378l-0.001-0 2.896 2.896c0.724 0.724 1.724 1.171 2.828 1.171s2.104-0.448 2.828-1.171l7.448-7.448c0.232-0.24 0.374-0.566 0.374-0.926 0-0.736-0.597-1.333-1.333-1.333-0.36 0-0.687 0.143-0.927 0.375l-7.448 7.446c-0.241 0.241-0.575 0.39-0.943 0.39s-0.701-0.149-0.943-0.39l-2.896-2.895c-0.724-0.724-1.724-1.171-2.828-1.171s-2.104 0.448-2.828 1.171l-4.781 4.781c-0.241 0.241-0.39 0.575-0.39 0.943 0 0.736 0.597 1.333 1.333 1.333h0z"></path>
</symbol>
<symbol id="icon-chat-arrow-grow1" viewBox="0 0 32 32">
<path d="M30 5.301h-4.115c-0.736 0-1.333 0.597-1.333 1.333 0 0.368 0.149 0.701 0.39 0.943l1.448 1.448-4.781 4.78c-0.245 0.234-0.577 0.378-0.943 0.378s-0.699-0.144-0.944-0.379l0 0-0.227-0.228c-0.734-0.702-1.731-1.134-2.829-1.134s-2.095 0.432-2.83 1.136l0.002-0.001-6.8 6.8c-0.241 0.242-0.391 0.576-0.391 0.945 0 0.739 0.599 1.338 1.338 1.338 0.37 0 0.705-0.15 0.947-0.393l6.8-6.8c0.245-0.234 0.577-0.379 0.943-0.379s0.699 0.144 0.944 0.379l-0-0 0.227 0.228c0.734 0.701 1.731 1.133 2.829 1.133s2.095-0.432 2.83-1.135l-0.002 0.001 4.781-4.781 1.448 1.448c0.24 0.236 0.57 0.381 0.933 0.381 0.734 0 1.329-0.593 1.333-1.326v-4.115c0-1.105-0.895-2-2-2v0z"></path>
<path d="M30.667 29.301h-24c-2.209 0-4-1.791-4-4v0-23.968c0-0.736-0.597-1.333-1.333-1.333s-1.333 0.597-1.333 1.333v0 23.968c0.005 3.68 2.987 6.662 6.666 6.667h24c0.736 0 1.333-0.597 1.333-1.333s-0.597-1.333-1.333-1.333v0z"></path>
</symbol>
<symbol id="icon-bell-2" viewBox="0 0 32 32">
<path d="M29.239 26.991l-2.291-3.816c-1.056-1.761-1.615-3.777-1.615-5.832v-3.343c0-5.145-4.188-9.333-9.333-9.333s-9.333 4.188-9.333 9.333v3.343c0 2.055-0.559 4.071-1.615 5.832l-2.291 3.816c-0.124 0.205-0.127 0.463-0.009 0.671 0.119 0.209 0.341 0.339 0.581 0.339h25.333c0.24 0 0.463-0.129 0.581-0.339 0.117-0.208 0.115-0.465-0.009-0.671zM4.511 26.667l1.684-2.807c1.181-1.968 1.805-4.221 1.805-6.517v-3.343c0-4.412 3.588-8 8-8s8 3.588 8 8v3.343c0 2.296 0.624 4.549 1.804 6.517l1.685 2.807h-22.979z"></path>
<path d="M16 0c-1.471 0-2.667 1.196-2.667 2.667v2.667c0 0.368 0.299 0.667 0.667 0.667s0.667-0.299 0.667-0.667v-2.667c0-0.736 0.597-1.333 1.333-1.333s1.333 0.597 1.333 1.333v2.667c0 0.368 0.299 0.667 0.667 0.667s0.667-0.299 0.667-0.667v-2.667c0-1.471-1.196-2.667-2.667-2.667z"></path>
<path d="M18.885 26.996c-0.188-0.317-0.595-0.421-0.913-0.239-0.319 0.187-0.425 0.596-0.239 0.913 0.173 0.295 0.268 0.648 0.268 0.996 0 1.103-0.897 2-2 2s-2-0.897-2-2c0-0.348 0.095-0.701 0.268-0.996 0.185-0.319 0.079-0.727-0.239-0.913-0.321-0.183-0.727-0.079-0.913 0.239-0.295 0.504-0.451 1.081-0.451 1.671 0 1.839 1.495 3.333 3.333 3.333s3.333-1.495 3.336-3.333c0-0.589-0.156-1.167-0.451-1.671z"></path>
</symbol>
<symbol id="icon-crown-2" viewBox="0 0 32 32">
<path d="M31.675 11.026c-0.291-0.22-0.692-0.218-0.979 0.003l-8.423 6.428-5.528-12.489c-0.263-0.589-1.226-0.589-1.489 0l-5.593 12.635-8.349-6.567c-0.287-0.227-0.692-0.233-0.985-0.015-0.295 0.218-0.406 0.606-0.274 0.947l5.801 14.986c0.121 0.313 0.422 0.519 0.757 0.519h18.774c0.338 0 0.636-0.204 0.758-0.519l5.8-14.986c0.132-0.34 0.021-0.726-0.27-0.943zM24.831 25.848h-17.66l-4.53-11.7 6.841 5.378c0.197 0.157 0.453 0.21 0.699 0.153 0.244-0.063 0.446-0.231 0.548-0.462l5.273-11.91 5.202 11.753c0.103 0.228 0.3 0.397 0.542 0.458 0.244 0.060 0.498 0.008 0.697-0.141l6.95-5.306-4.562 11.778z"></path>
</symbol>
<symbol id="icon-dollar-3" viewBox="0 0 32 32">
<path d="M16.938 15.157v-5.558c1.091 0.387 1.875 1.429 1.875 2.651h1.875c0-2.264-1.613-4.158-3.75-4.593v-1.657h-1.875v1.657c-2.137 0.436-3.75 2.329-3.75 4.593s1.613 4.158 3.75 4.593v5.558c-1.091-0.387-1.875-1.429-1.875-2.651h-1.875c0 2.264 1.613 4.158 3.75 4.593v1.657h1.875v-1.657c2.137-0.436 3.75-2.329 3.75-4.593s-1.613-4.158-3.75-4.593zM15.063 14.901c-1.091-0.387-1.875-1.429-1.875-2.651s0.784-2.264 1.875-2.651v5.303zM16.938 22.401v-5.302c1.091 0.387 1.875 1.429 1.875 2.651s-0.784 2.264-1.875 2.651z"></path>
<path d="M16 0c-8.837 0-16 7.163-16 16s7.163 16 16 16 16-7.163 16-16-7.163-16-16-16zM16 30.125c-7.801 0-14.125-6.324-14.125-14.125s6.324-14.125 14.125-14.125 14.125 6.324 14.125 14.125-6.324 14.125-14.125 14.125z"></path>
</symbol>
<symbol id="icon-facebook-app-symbol" viewBox="0 0 32 32">
<path d="M18.478 32v-14.596h4.897l0.735-5.69h-5.632v-3.632c0-1.647 0.455-2.769 2.82-2.769l3.010-0.001v-5.089c-0.521-0.068-2.308-0.223-4.388-0.223-4.343 0-7.317 2.651-7.317 7.519v4.196h-4.912v5.69h4.912v14.596h5.874z"></path>
</symbol>
<symbol id="icon-google" viewBox="0 0 32 32">
<path fill="#59c36a" style="fill: var(--color3, #59c36a)" d="M26.294 28.169c-2.775 2.344-6.375 3.831-10.294 3.831-5.831 0-10.95-3.212-13.725-7.9l1.039-4.789 4.605-0.855c1.069 3.45 4.294 5.981 8.081 5.981 1.837 0 3.544-0.581 4.95-1.613l4.425 0.675z"></path>
<path fill="#00a66c" style="fill: var(--color4, #00a66c)" d="M26.294 28.169l-0.919-4.669-4.425-0.675c-1.406 1.031-3.113 1.613-4.95 1.613v7.563c3.919 0 7.519-1.488 10.294-3.831z"></path>
<path fill="#ffda2d" style="fill: var(--color5, #ffda2d)" d="M7.563 16c0 0.862 0.131 1.687 0.356 2.456l-5.644 5.644c-1.406-2.363-2.275-5.138-2.275-8.1s0.869-5.738 2.275-8.1l4.53 0.78 1.114 4.864c-0.225 0.769-0.356 1.594-0.356 2.456z"></path>
<path fill="#4086f4" style="fill: var(--color6, #4086f4)" d="M32 16c0 4.875-2.256 9.244-5.706 12.169l-5.344-5.344c1.087-0.788 2.006-1.838 2.606-3.075h-7.556c-0.525 0-0.938-0.413-0.938-0.938v-5.625c0-0.525 0.412-0.938 0.938-0.938h14.8c0.45 0 0.844 0.319 0.919 0.769 0.188 0.975 0.281 1.988 0.281 2.981z"></path>
<path fill="#4175df" style="fill: var(--color7, #4175df)" d="M23.556 19.75c-0.6 1.237-1.519 2.287-2.606 3.075l5.344 5.344c3.45-2.925 5.706-7.294 5.706-12.169 0-0.994-0.094-2.006-0.281-2.981-0.075-0.45-0.469-0.769-0.919-0.769h-14.8v7.5z"></path>
<path fill="#ff641a" style="fill: var(--color8, #ff641a)" d="M26.556 4.469c0.019 0.263-0.094 0.506-0.262 0.694l-4.012 3.994c-0.319 0.338-0.844 0.375-1.219 0.094-1.481-1.106-3.225-1.687-5.063-1.687-3.788 0-7.013 2.531-8.081 5.981l-5.644-5.644c2.775-4.688 7.894-7.9 13.725-7.9 3.731 0 7.369 1.375 10.219 3.775 0.206 0.169 0.319 0.431 0.337 0.694z"></path>
<path fill="#f03800" style="fill: var(--color9, #f03800)" d="M21.063 9.25c0.375 0.281 0.9 0.244 1.219-0.094l4.012-3.994c0.169-0.187 0.281-0.431 0.262-0.694s-0.131-0.525-0.337-0.694c-2.85-2.4-6.487-3.775-10.219-3.775v7.563c1.837 0 3.581 0.581 5.063 1.687z"></path>
</symbol>
<symbol id="icon-letter-x" viewBox="0 0 32 32">
<path d="M0.453 2.67c-0.6-0.6-0.6-1.599 0-2.22 0.621-0.6 1.599-0.6 2.22 0l13.319 13.341 13.341-13.341c0.6-0.6 1.599-0.6 2.197 0 0.621 0.621 0.621 1.621 0 2.22l-13.319 13.32 13.319 13.341c0.621 0.6 0.621 1.599 0 2.22-0.6 0.6-1.599 0.6-2.197 0l-13.341-13.341-13.319 13.341c-0.621 0.6-1.599 0.6-2.22 0-0.6-0.621-0.6-1.621 0-2.22l13.319-13.341-13.319-13.32z"></path>
</symbol>
<symbol id="icon-linkedin" viewBox="0 0 32 32">
<path fill="#fff" style="fill: var(--color10, #fff)" d="M25.554 17.283v6.588h-3.822v-6.132c0-1.54-0.542-2.595-1.939-2.595-1.055 0-1.683 0.713-1.968 1.398-0.114 0.257-0.114 0.599-0.114 0.941v6.417h-3.822c0 0 0.057-10.41 0-11.494h3.822v1.626c0 0-0.029 0.029-0.029 0.029h0.029v-0.029c0.513-0.77 1.426-1.911 3.451-1.911 2.51 0 4.392 1.626 4.392 5.162v0zM9.897 6.845c-1.312 0-2.168 0.856-2.168 1.996 0 1.112 0.827 1.996 2.111 1.996h0.029c1.34 0 2.168-0.884 2.168-1.996-0.029-1.141-0.856-1.996-2.139-1.996v0zM7.957 23.872h3.822v-11.494h-3.822v11.494z"></path>
</symbol>
<symbol id="icon-locked-padlock" viewBox="0 0 32 32">
<path d="M26.553 12.923h-0.624v-2.918c0-5.398-4.283-9.906-9.637-10.003-0.146-0.003-0.439-0.003-0.585 0-5.354 0.096-9.637 4.605-9.637 10.003v2.918h-0.624c-0.961 0-1.745 0.992-1.745 2.216v14.637c0 1.223 0.784 2.224 1.745 2.224h21.106c0.961 0 1.745-1.001 1.745-2.224v-14.637c0-1.225-0.784-2.216-1.745-2.216zM17.977 22.443v4.423c0 0.506-0.424 0.935-0.931 0.935h-2.093c-0.507 0-0.931-0.429-0.931-0.935v-4.423c-0.492-0.484-0.778-1.153-0.778-1.893 0-1.403 1.084-2.608 2.463-2.663 0.146-0.006 0.439-0.006 0.585 0 1.379 0.056 2.463 1.261 2.463 2.663-0 0.74-0.286 1.409-0.778 1.893zM21.82 12.923h-11.639v-2.918c0-3.215 2.613-5.874 5.82-5.874s5.82 2.659 5.82 5.874v2.918z"></path>
</symbol>
<symbol id="icon-logout" viewBox="0 0 32 32">
<path d="M31.604 15.234l-3.424-2.414c-0.62-0.437-1.478 0.008-1.478 0.766v1.476h-16.44c-0.518 0-0.938 0.42-0.938 0.938s0.42 0.938 0.938 0.938h16.44v1.476c0 0.763 0.862 1.2 1.478 0.766l3.424-2.414c0.523-0.368 0.533-1.156 0-1.533z"></path>
<path d="M26.904 22.020c-0.448-0.259-1.022-0.106-1.281 0.342-2.202 3.807-6.319 6.363-11.023 6.363-7.017 0-12.725-5.709-12.725-12.725s5.708-12.725 12.725-12.725c4.707 0 8.822 2.558 11.023 6.363 0.259 0.448 0.833 0.601 1.281 0.342s0.601-0.833 0.342-1.281c-2.533-4.379-7.263-7.299-12.646-7.299-8.070 0-14.6 6.53-14.6 14.6s6.53 14.6 14.6 14.6c5.385 0 10.115-2.923 12.646-7.299 0.259-0.448 0.106-1.022-0.342-1.281z"></path>
</symbol>
<symbol id="icon-twitter" viewBox="0 0 32 32">
<path d="M28.768 8.064c-0.96 0.416-1.952 0.704-3.008 0.832 1.088-0.64 1.92-1.664 2.304-2.912-1.024 0.608-2.144 1.024-3.328 1.28-0.96-1.024-2.336-1.664-3.84-1.664-2.912 0-5.248 2.368-5.248 5.248 0 0.416 0.032 0.8 0.128 1.184-4.352-0.192-8.192-2.304-10.784-5.472-1.856 3.328 0.224 6.080 1.6 7.008-0.832 0-1.664-0.256-2.368-0.64 0 2.592 1.824 4.736 4.192 5.216-0.512 0.16-1.664 0.256-2.368 0.096 0.672 2.080 2.624 3.616 4.896 3.648-1.792 1.408-4.416 2.528-7.776 2.176 2.336 1.504 5.088 2.368 8.064 2.368 9.664 0 14.912-8 14.912-14.912 0-0.224 0-0.448-0.032-0.672 1.088-0.8 1.984-1.728 2.656-2.784z"></path>
</symbol>
</defs>
</svg>
