<?xml version="1.0" encoding="utf-8"?>
<!-- Generator: Adobe Illustrator 21.0.0, SVG Export Plug-In . SVG Version: 6.00 Build 0)  -->
<svg version="1.1" id="Capa_1" xmlns="http://www.w3.org/2000/svg" xmlns:xlink="http://www.w3.org/1999/xlink" x="0px" y="0px"
	 viewBox="0 0 644 629" style="enable-background:new 0 0 644 629;" xml:space="preserve">
<style type="text/css">
	.st0{fill:#5F85E1;}
	.st1{fill:#A8D5A2;}
</style>
<path class="st0" d="M458.7,151H128c-10.1,0-18.3,8.2-18.3,18.3v57.4H18.3C8.2,226.7,0,234.9,0,245v365.7C0,620.8,8.2,629,18.3,629
	H384c10.1,0,18.3-8.2,18.3-18.3v-91.4h56.4c10.1,0,18.3-8.2,18.3-18.3V169.3C477,159.2,468.8,151,458.7,151z M365.7,592.4H36.6
	V263.3h329.1L365.7,592.4L365.7,592.4z M440.4,482.7h-38.1V245c0-10.1-8.2-18.3-18.3-18.3H146.3v-39.1h294.1L440.4,482.7
	L440.4,482.7z"/>
<path class="st0" d="M625.7,0H286c-10.1,0-18.3,8.2-18.3,18.3v57.4h-91.4c-10.1,0-18.3,8.2-18.3,18.3v57h36.6v-38.7h329.1v329.1h0
	H477V478h65c10.1,0,18.3-8.2,18.3-18.3v-91.4h65.4c10.1,0,18.3-8.2,18.3-18.3V18.3C644,8.2,635.8,0,625.7,0z M607.4,331.7
	L607.4,331.7h-47.1V94c0-10.1-8.2-18.3-18.3-18.3H304.3V36.6h303.1V331.7z"/>
<rect x="125" y="353" class="st1" width="138" height="138"/>
</svg>
